<?xml version="1.0" encoding="utf-8"?>
<svg xmlns="http://www.w3.org/2000/svg" xmlns:xlink="http://www.w3.org/1999/xlink" width="600" height="400" viewBox="0 0 2400 1600">
<defs>
  <clipPath id="clip700">
    <rect x="0" y="0" width="2400" height="1600"/>
  </clipPath>
</defs>
<path clip-path="url(#clip700)" d="M0 1600 L2400 1600 L2400 0 L0 0  Z" fill="#ffffff" fill-rule="evenodd" fill-opacity="1"/>
<defs>
  <clipPath id="clip701">
    <rect x="480" y="0" width="1681" height="1600"/>
  </clipPath>
</defs>
<path clip-path="url(#clip700)" d="M264.287 1423.18 L2352.76 1423.18 L2352.76 123.472 L264.287 123.472  Z" fill="#ffffff" fill-rule="evenodd" fill-opacity="1"/>
<defs>
  <clipPath id="clip702">
    <rect x="264" y="123" width="2089" height="1301"/>
  </clipPath>
</defs>
<polyline clip-path="url(#clip702)" style="stroke:#000000; stroke-linecap:round; stroke-linejoin:round; stroke-width:2; stroke-opacity:0.1; fill:none" points="574.917,1423.18 574.917,123.472 "/>
<polyline clip-path="url(#clip702)" style="stroke:#000000; stroke-linecap:round; stroke-linejoin:round; stroke-width:2; stroke-opacity:0.1; fill:none" points="994.119,1423.18 994.119,123.472 "/>
<polyline clip-path="url(#clip702)" style="stroke:#000000; stroke-linecap:round; stroke-linejoin:round; stroke-width:2; stroke-opacity:0.1; fill:none" points="1413.32,1423.18 1413.32,123.472 "/>
<polyline clip-path="url(#clip702)" style="stroke:#000000; stroke-linecap:round; stroke-linejoin:round; stroke-width:2; stroke-opacity:0.1; fill:none" points="1832.53,1423.18 1832.53,123.472 "/>
<polyline clip-path="url(#clip702)" style="stroke:#000000; stroke-linecap:round; stroke-linejoin:round; stroke-width:2; stroke-opacity:0.1; fill:none" points="2251.73,1423.18 2251.73,123.472 "/>
<polyline clip-path="url(#clip700)" style="stroke:#000000; stroke-linecap:round; stroke-linejoin:round; stroke-width:4; stroke-opacity:1; fill:none" points="264.287,1423.18 2352.76,1423.18 "/>
<polyline clip-path="url(#clip700)" style="stroke:#000000; stroke-linecap:round; stroke-linejoin:round; stroke-width:4; stroke-opacity:1; fill:none" points="574.917,1423.18 574.917,1404.28 "/>
<polyline clip-path="url(#clip700)" style="stroke:#000000; stroke-linecap:round; stroke-linejoin:round; stroke-width:4; stroke-opacity:1; fill:none" points="994.119,1423.18 994.119,1404.28 "/>
<polyline clip-path="url(#clip700)" style="stroke:#000000; stroke-linecap:round; stroke-linejoin:round; stroke-width:4; stroke-opacity:1; fill:none" points="1413.32,1423.18 1413.32,1404.28 "/>
<polyline clip-path="url(#clip700)" style="stroke:#000000; stroke-linecap:round; stroke-linejoin:round; stroke-width:4; stroke-opacity:1; fill:none" points="1832.53,1423.18 1832.53,1404.28 "/>
<polyline clip-path="url(#clip700)" style="stroke:#000000; stroke-linecap:round; stroke-linejoin:round; stroke-width:4; stroke-opacity:1; fill:none" points="2251.73,1423.18 2251.73,1404.28 "/>
<path clip-path="url(#clip700)" d="M534.535 1451.02 L552.891 1451.02 L552.891 1454.96 L538.817 1454.96 L538.817 1463.43 Q539.836 1463.08 540.854 1462.92 Q541.873 1462.73 542.891 1462.73 Q548.678 1462.73 552.058 1465.9 Q555.438 1469.08 555.438 1474.49 Q555.438 1480.07 551.965 1483.17 Q548.493 1486.25 542.174 1486.25 Q539.998 1486.25 537.729 1485.88 Q535.484 1485.51 533.077 1484.77 L533.077 1480.07 Q535.16 1481.2 537.382 1481.76 Q539.604 1482.32 542.081 1482.32 Q546.086 1482.32 548.424 1480.21 Q550.762 1478.1 550.762 1474.49 Q550.762 1470.88 548.424 1468.77 Q546.086 1466.67 542.081 1466.67 Q540.206 1466.67 538.331 1467.08 Q536.479 1467.5 534.535 1468.38 L534.535 1451.02 Z" fill="#000000" fill-rule="nonzero" fill-opacity="1" /><path clip-path="url(#clip700)" d="M574.65 1454.1 Q571.039 1454.1 569.211 1457.66 Q567.405 1461.2 567.405 1468.33 Q567.405 1475.44 569.211 1479.01 Q571.039 1482.55 574.65 1482.55 Q578.285 1482.55 580.09 1479.01 Q581.919 1475.44 581.919 1468.33 Q581.919 1461.2 580.09 1457.66 Q578.285 1454.1 574.65 1454.1 M574.65 1450.39 Q580.461 1450.39 583.516 1455 Q586.595 1459.58 586.595 1468.33 Q586.595 1477.06 583.516 1481.67 Q580.461 1486.25 574.65 1486.25 Q568.84 1486.25 565.762 1481.67 Q562.706 1477.06 562.706 1468.33 Q562.706 1459.58 565.762 1455 Q568.84 1450.39 574.65 1450.39 Z" fill="#000000" fill-rule="nonzero" fill-opacity="1" /><path clip-path="url(#clip700)" d="M604.812 1454.1 Q601.201 1454.1 599.373 1457.66 Q597.567 1461.2 597.567 1468.33 Q597.567 1475.44 599.373 1479.01 Q601.201 1482.55 604.812 1482.55 Q608.447 1482.55 610.252 1479.01 Q612.081 1475.44 612.081 1468.33 Q612.081 1461.2 610.252 1457.66 Q608.447 1454.1 604.812 1454.1 M604.812 1450.39 Q610.622 1450.39 613.678 1455 Q616.757 1459.58 616.757 1468.33 Q616.757 1477.06 613.678 1481.67 Q610.622 1486.25 604.812 1486.25 Q599.002 1486.25 595.923 1481.67 Q592.868 1477.06 592.868 1468.33 Q592.868 1459.58 595.923 1455 Q599.002 1450.39 604.812 1450.39 Z" fill="#000000" fill-rule="nonzero" fill-opacity="1" /><path clip-path="url(#clip700)" d="M938.645 1481.64 L946.284 1481.64 L946.284 1455.28 L937.974 1456.95 L937.974 1452.69 L946.238 1451.02 L950.914 1451.02 L950.914 1481.64 L958.553 1481.64 L958.553 1485.58 L938.645 1485.58 L938.645 1481.64 Z" fill="#000000" fill-rule="nonzero" fill-opacity="1" /><path clip-path="url(#clip700)" d="M977.997 1454.1 Q974.386 1454.1 972.557 1457.66 Q970.752 1461.2 970.752 1468.33 Q970.752 1475.44 972.557 1479.01 Q974.386 1482.55 977.997 1482.55 Q981.631 1482.55 983.437 1479.01 Q985.265 1475.44 985.265 1468.33 Q985.265 1461.2 983.437 1457.66 Q981.631 1454.1 977.997 1454.1 M977.997 1450.39 Q983.807 1450.39 986.863 1455 Q989.941 1459.58 989.941 1468.33 Q989.941 1477.06 986.863 1481.67 Q983.807 1486.25 977.997 1486.25 Q972.187 1486.25 969.108 1481.67 Q966.053 1477.06 966.053 1468.33 Q966.053 1459.58 969.108 1455 Q972.187 1450.39 977.997 1450.39 Z" fill="#000000" fill-rule="nonzero" fill-opacity="1" /><path clip-path="url(#clip700)" d="M1008.16 1454.1 Q1004.55 1454.1 1002.72 1457.66 Q1000.91 1461.2 1000.91 1468.33 Q1000.91 1475.44 1002.72 1479.01 Q1004.55 1482.55 1008.16 1482.55 Q1011.79 1482.55 1013.6 1479.01 Q1015.43 1475.44 1015.43 1468.33 Q1015.43 1461.2 1013.6 1457.66 Q1011.79 1454.1 1008.16 1454.1 M1008.16 1450.39 Q1013.97 1450.39 1017.02 1455 Q1020.1 1459.58 1020.1 1468.33 Q1020.1 1477.06 1017.02 1481.67 Q1013.97 1486.25 1008.16 1486.25 Q1002.35 1486.25 999.27 1481.67 Q996.214 1477.06 996.214 1468.33 Q996.214 1459.58 999.27 1455 Q1002.35 1450.39 1008.16 1450.39 Z" fill="#000000" fill-rule="nonzero" fill-opacity="1" /><path clip-path="url(#clip700)" d="M1038.32 1454.1 Q1034.71 1454.1 1032.88 1457.66 Q1031.08 1461.2 1031.08 1468.33 Q1031.08 1475.44 1032.88 1479.01 Q1034.71 1482.55 1038.32 1482.55 Q1041.95 1482.55 1043.76 1479.01 Q1045.59 1475.44 1045.59 1468.33 Q1045.59 1461.2 1043.76 1457.66 Q1041.95 1454.1 1038.32 1454.1 M1038.32 1450.39 Q1044.13 1450.39 1047.19 1455 Q1050.27 1459.58 1050.27 1468.33 Q1050.27 1477.06 1047.19 1481.67 Q1044.13 1486.25 1038.32 1486.25 Q1032.51 1486.25 1029.43 1481.67 Q1026.38 1477.06 1026.38 1468.33 Q1026.38 1459.58 1029.43 1455 Q1032.51 1450.39 1038.32 1450.39 Z" fill="#000000" fill-rule="nonzero" fill-opacity="1" /><path clip-path="url(#clip700)" d="M1357.85 1481.64 L1365.49 1481.64 L1365.49 1455.28 L1357.18 1456.95 L1357.18 1452.69 L1365.44 1451.02 L1370.12 1451.02 L1370.12 1481.64 L1377.76 1481.64 L1377.76 1485.58 L1357.85 1485.58 L1357.85 1481.64 Z" fill="#000000" fill-rule="nonzero" fill-opacity="1" /><path clip-path="url(#clip700)" d="M1387.25 1451.02 L1405.6 1451.02 L1405.6 1454.96 L1391.53 1454.96 L1391.53 1463.43 Q1392.55 1463.08 1393.57 1462.92 Q1394.58 1462.73 1395.6 1462.73 Q1401.39 1462.73 1404.77 1465.9 Q1408.15 1469.08 1408.15 1474.49 Q1408.15 1480.07 1404.68 1483.17 Q1401.2 1486.25 1394.88 1486.25 Q1392.71 1486.25 1390.44 1485.88 Q1388.2 1485.51 1385.79 1484.77 L1385.79 1480.07 Q1387.87 1481.2 1390.09 1481.76 Q1392.32 1482.32 1394.79 1482.32 Q1398.8 1482.32 1401.13 1480.21 Q1403.47 1478.1 1403.47 1474.49 Q1403.47 1470.88 1401.13 1468.77 Q1398.8 1466.67 1394.79 1466.67 Q1392.92 1466.67 1391.04 1467.08 Q1389.19 1467.5 1387.25 1468.38 L1387.25 1451.02 Z" fill="#000000" fill-rule="nonzero" fill-opacity="1" /><path clip-path="url(#clip700)" d="M1427.36 1454.1 Q1423.75 1454.1 1421.92 1457.66 Q1420.12 1461.2 1420.12 1468.33 Q1420.12 1475.44 1421.92 1479.01 Q1423.75 1482.55 1427.36 1482.55 Q1431 1482.55 1432.8 1479.01 Q1434.63 1475.44 1434.63 1468.33 Q1434.63 1461.2 1432.8 1457.66 Q1431 1454.1 1427.36 1454.1 M1427.36 1450.39 Q1433.17 1450.39 1436.23 1455 Q1439.31 1459.58 1439.31 1468.33 Q1439.31 1477.06 1436.23 1481.67 Q1433.17 1486.25 1427.36 1486.25 Q1421.55 1486.25 1418.47 1481.67 Q1415.42 1477.06 1415.42 1468.33 Q1415.42 1459.58 1418.47 1455 Q1421.55 1450.39 1427.36 1450.39 Z" fill="#000000" fill-rule="nonzero" fill-opacity="1" /><path clip-path="url(#clip700)" d="M1457.52 1454.1 Q1453.91 1454.1 1452.08 1457.66 Q1450.28 1461.2 1450.28 1468.33 Q1450.28 1475.44 1452.08 1479.01 Q1453.91 1482.55 1457.52 1482.55 Q1461.16 1482.55 1462.96 1479.01 Q1464.79 1475.44 1464.79 1468.33 Q1464.79 1461.2 1462.96 1457.66 Q1461.16 1454.1 1457.52 1454.1 M1457.52 1450.39 Q1463.33 1450.39 1466.39 1455 Q1469.47 1459.58 1469.47 1468.33 Q1469.47 1477.06 1466.39 1481.67 Q1463.33 1486.25 1457.52 1486.25 Q1451.71 1486.25 1448.63 1481.67 Q1445.58 1477.06 1445.58 1468.33 Q1445.58 1459.58 1448.63 1455 Q1451.71 1450.39 1457.52 1450.39 Z" fill="#000000" fill-rule="nonzero" fill-opacity="1" /><path clip-path="url(#clip700)" d="M1781.14 1481.64 L1797.46 1481.64 L1797.46 1485.58 L1775.51 1485.58 L1775.51 1481.64 Q1778.17 1478.89 1782.76 1474.26 Q1787.36 1469.61 1788.54 1468.27 Q1790.79 1465.74 1791.67 1464.01 Q1792.57 1462.25 1792.57 1460.56 Q1792.57 1457.8 1790.63 1456.07 Q1788.71 1454.33 1785.6 1454.33 Q1783.41 1454.33 1780.95 1455.09 Q1778.52 1455.86 1775.74 1457.41 L1775.74 1452.69 Q1778.57 1451.55 1781.02 1450.97 Q1783.47 1450.39 1785.51 1450.39 Q1790.88 1450.39 1794.08 1453.08 Q1797.27 1455.77 1797.27 1460.26 Q1797.27 1462.39 1796.46 1464.31 Q1795.67 1466.2 1793.57 1468.8 Q1792.99 1469.47 1789.89 1472.69 Q1786.78 1475.88 1781.14 1481.64 Z" fill="#000000" fill-rule="nonzero" fill-opacity="1" /><path clip-path="url(#clip700)" d="M1817.27 1454.1 Q1813.66 1454.1 1811.83 1457.66 Q1810.03 1461.2 1810.03 1468.33 Q1810.03 1475.44 1811.83 1479.01 Q1813.66 1482.55 1817.27 1482.55 Q1820.9 1482.55 1822.71 1479.01 Q1824.54 1475.44 1824.54 1468.33 Q1824.54 1461.2 1822.71 1457.66 Q1820.9 1454.1 1817.27 1454.1 M1817.27 1450.39 Q1823.08 1450.39 1826.14 1455 Q1829.22 1459.58 1829.22 1468.33 Q1829.22 1477.06 1826.14 1481.67 Q1823.08 1486.25 1817.27 1486.25 Q1811.46 1486.25 1808.38 1481.67 Q1805.33 1477.06 1805.33 1468.33 Q1805.33 1459.58 1808.38 1455 Q1811.46 1450.39 1817.27 1450.39 Z" fill="#000000" fill-rule="nonzero" fill-opacity="1" /><path clip-path="url(#clip700)" d="M1847.43 1454.1 Q1843.82 1454.1 1841.99 1457.66 Q1840.19 1461.2 1840.19 1468.33 Q1840.19 1475.44 1841.99 1479.01 Q1843.82 1482.55 1847.43 1482.55 Q1851.07 1482.55 1852.87 1479.01 Q1854.7 1475.44 1854.7 1468.33 Q1854.7 1461.2 1852.87 1457.66 Q1851.07 1454.1 1847.43 1454.1 M1847.43 1450.39 Q1853.24 1450.39 1856.3 1455 Q1859.38 1459.58 1859.38 1468.33 Q1859.38 1477.06 1856.3 1481.67 Q1853.24 1486.25 1847.43 1486.25 Q1841.62 1486.25 1838.54 1481.67 Q1835.49 1477.06 1835.49 1468.33 Q1835.49 1459.58 1838.54 1455 Q1841.62 1450.39 1847.43 1450.39 Z" fill="#000000" fill-rule="nonzero" fill-opacity="1" /><path clip-path="url(#clip700)" d="M1877.59 1454.1 Q1873.98 1454.1 1872.15 1457.66 Q1870.35 1461.2 1870.35 1468.33 Q1870.35 1475.44 1872.15 1479.01 Q1873.98 1482.55 1877.59 1482.55 Q1881.23 1482.55 1883.03 1479.01 Q1884.86 1475.44 1884.86 1468.33 Q1884.86 1461.2 1883.03 1457.66 Q1881.23 1454.1 1877.59 1454.1 M1877.59 1450.39 Q1883.4 1450.39 1886.46 1455 Q1889.54 1459.58 1889.54 1468.33 Q1889.54 1477.06 1886.46 1481.67 Q1883.4 1486.25 1877.59 1486.25 Q1871.78 1486.25 1868.71 1481.67 Q1865.65 1477.06 1865.65 1468.33 Q1865.65 1459.58 1868.71 1455 Q1871.78 1450.39 1877.59 1450.39 Z" fill="#000000" fill-rule="nonzero" fill-opacity="1" /><path clip-path="url(#clip700)" d="M2200.34 1481.64 L2216.66 1481.64 L2216.66 1485.58 L2194.71 1485.58 L2194.71 1481.64 Q2197.38 1478.89 2201.96 1474.26 Q2206.57 1469.61 2207.75 1468.27 Q2209.99 1465.74 2210.87 1464.01 Q2211.77 1462.25 2211.77 1460.56 Q2211.77 1457.8 2209.83 1456.07 Q2207.91 1454.33 2204.81 1454.33 Q2202.61 1454.33 2200.15 1455.09 Q2197.72 1455.86 2194.95 1457.41 L2194.95 1452.69 Q2197.77 1451.55 2200.22 1450.97 Q2202.68 1450.39 2204.71 1450.39 Q2210.08 1450.39 2213.28 1453.08 Q2216.47 1455.77 2216.47 1460.26 Q2216.47 1462.39 2215.66 1464.31 Q2214.88 1466.2 2212.77 1468.8 Q2212.19 1469.47 2209.09 1472.69 Q2205.99 1475.88 2200.34 1481.64 Z" fill="#000000" fill-rule="nonzero" fill-opacity="1" /><path clip-path="url(#clip700)" d="M2226.52 1451.02 L2244.88 1451.02 L2244.88 1454.96 L2230.8 1454.96 L2230.8 1463.43 Q2231.82 1463.08 2232.84 1462.92 Q2233.86 1462.73 2234.88 1462.73 Q2240.66 1462.73 2244.04 1465.9 Q2247.42 1469.08 2247.42 1474.49 Q2247.42 1480.07 2243.95 1483.17 Q2240.48 1486.25 2234.16 1486.25 Q2231.98 1486.25 2229.71 1485.88 Q2227.47 1485.51 2225.06 1484.77 L2225.06 1480.07 Q2227.14 1481.2 2229.37 1481.76 Q2231.59 1482.32 2234.07 1482.32 Q2238.07 1482.32 2240.41 1480.21 Q2242.75 1478.1 2242.75 1474.49 Q2242.75 1470.88 2240.41 1468.77 Q2238.07 1466.67 2234.07 1466.67 Q2232.19 1466.67 2230.32 1467.08 Q2228.46 1467.5 2226.52 1468.38 L2226.52 1451.02 Z" fill="#000000" fill-rule="nonzero" fill-opacity="1" /><path clip-path="url(#clip700)" d="M2266.64 1454.1 Q2263.02 1454.1 2261.2 1457.66 Q2259.39 1461.2 2259.39 1468.33 Q2259.39 1475.44 2261.2 1479.01 Q2263.02 1482.55 2266.64 1482.55 Q2270.27 1482.55 2272.08 1479.01 Q2273.9 1475.44 2273.9 1468.33 Q2273.9 1461.2 2272.08 1457.66 Q2270.27 1454.1 2266.64 1454.1 M2266.64 1450.39 Q2272.45 1450.39 2275.5 1455 Q2278.58 1459.58 2278.58 1468.33 Q2278.58 1477.06 2275.5 1481.67 Q2272.45 1486.25 2266.64 1486.25 Q2260.83 1486.25 2257.75 1481.67 Q2254.69 1477.06 2254.69 1468.33 Q2254.69 1459.58 2257.75 1455 Q2260.83 1450.39 2266.64 1450.39 Z" fill="#000000" fill-rule="nonzero" fill-opacity="1" /><path clip-path="url(#clip700)" d="M2296.8 1454.1 Q2293.19 1454.1 2291.36 1457.66 Q2289.55 1461.2 2289.55 1468.33 Q2289.55 1475.44 2291.36 1479.01 Q2293.19 1482.55 2296.8 1482.55 Q2300.43 1482.55 2302.24 1479.01 Q2304.07 1475.44 2304.07 1468.33 Q2304.07 1461.2 2302.24 1457.66 Q2300.43 1454.1 2296.8 1454.1 M2296.8 1450.39 Q2302.61 1450.39 2305.66 1455 Q2308.74 1459.58 2308.74 1468.33 Q2308.74 1477.06 2305.66 1481.67 Q2302.61 1486.25 2296.8 1486.25 Q2290.99 1486.25 2287.91 1481.67 Q2284.85 1477.06 2284.85 1468.33 Q2284.85 1459.58 2287.91 1455 Q2290.99 1450.39 2296.8 1450.39 Z" fill="#000000" fill-rule="nonzero" fill-opacity="1" /><path clip-path="url(#clip700)" d="M1184.14 1525.81 L1184.14 1562.76 L1191.9 1562.76 Q1201.74 1562.76 1206.29 1558.3 Q1210.87 1553.85 1210.87 1544.24 Q1210.87 1534.69 1206.29 1530.26 Q1201.74 1525.81 1191.9 1525.81 L1184.14 1525.81 M1177.71 1520.52 L1190.92 1520.52 Q1204.73 1520.52 1211.19 1526.28 Q1217.65 1532.01 1217.65 1544.24 Q1217.65 1556.52 1211.16 1562.28 Q1204.67 1568.04 1190.92 1568.04 L1177.71 1568.04 L1177.71 1520.52 Z" fill="#000000" fill-rule="nonzero" fill-opacity="1" /><path clip-path="url(#clip700)" d="M1258.14 1548.76 L1258.14 1551.62 L1231.21 1551.62 Q1231.59 1557.67 1234.84 1560.85 Q1238.12 1564 1243.94 1564 Q1247.32 1564 1250.47 1563.17 Q1253.65 1562.35 1256.77 1560.69 L1256.77 1566.23 Q1253.62 1567.57 1250.31 1568.27 Q1247 1568.97 1243.59 1568.97 Q1235.06 1568.97 1230.06 1564 Q1225.1 1559.04 1225.1 1550.57 Q1225.1 1541.82 1229.81 1536.69 Q1234.55 1531.54 1242.57 1531.54 Q1249.77 1531.54 1253.94 1536.18 Q1258.14 1540.8 1258.14 1548.76 M1252.28 1547.04 Q1252.22 1542.23 1249.58 1539.37 Q1246.97 1536.5 1242.64 1536.5 Q1237.73 1536.5 1234.77 1539.27 Q1231.85 1542.04 1231.4 1547.07 L1252.28 1547.04 Z" fill="#000000" fill-rule="nonzero" fill-opacity="1" /><path clip-path="url(#clip700)" d="M1291.21 1549.81 Q1291.21 1543.44 1288.57 1539.94 Q1285.96 1536.44 1281.21 1536.44 Q1276.5 1536.44 1273.86 1539.94 Q1271.25 1543.44 1271.25 1549.81 Q1271.25 1556.14 1273.86 1559.64 Q1276.5 1563.14 1281.21 1563.14 Q1285.96 1563.14 1288.57 1559.64 Q1291.21 1556.14 1291.21 1549.81 M1297.06 1563.62 Q1297.06 1572.72 1293.02 1577.15 Q1288.98 1581.6 1280.64 1581.6 Q1277.55 1581.6 1274.82 1581.13 Q1272.08 1580.68 1269.5 1579.72 L1269.5 1574.03 Q1272.08 1575.43 1274.59 1576.1 Q1277.11 1576.76 1279.72 1576.76 Q1285.48 1576.76 1288.34 1573.74 Q1291.21 1570.75 1291.21 1564.67 L1291.21 1561.77 Q1289.39 1564.92 1286.56 1566.48 Q1283.73 1568.04 1279.78 1568.04 Q1273.22 1568.04 1269.21 1563.05 Q1265.2 1558.05 1265.2 1549.81 Q1265.2 1541.53 1269.21 1536.53 Q1273.22 1531.54 1279.78 1531.54 Q1283.73 1531.54 1286.56 1533.1 Q1289.39 1534.66 1291.21 1537.81 L1291.21 1532.4 L1297.06 1532.4 L1297.06 1563.62 Z" fill="#000000" fill-rule="nonzero" fill-opacity="1" /><path clip-path="url(#clip700)" d="M1329.78 1537.87 Q1328.8 1537.3 1327.62 1537.04 Q1326.47 1536.76 1325.07 1536.76 Q1320.11 1536.76 1317.43 1540 Q1314.79 1543.22 1314.79 1549.27 L1314.79 1568.04 L1308.9 1568.04 L1308.9 1532.4 L1314.79 1532.4 L1314.79 1537.93 Q1316.64 1534.69 1319.6 1533.13 Q1322.56 1531.54 1326.79 1531.54 Q1327.4 1531.54 1328.13 1531.63 Q1328.86 1531.7 1329.75 1531.85 L1329.78 1537.87 Z" fill="#000000" fill-rule="nonzero" fill-opacity="1" /><path clip-path="url(#clip700)" d="M1364.99 1548.76 L1364.99 1551.62 L1338.06 1551.62 Q1338.44 1557.67 1341.69 1560.85 Q1344.97 1564 1350.79 1564 Q1354.16 1564 1357.31 1563.17 Q1360.5 1562.35 1363.62 1560.69 L1363.62 1566.23 Q1360.47 1567.57 1357.16 1568.27 Q1353.85 1568.97 1350.44 1568.97 Q1341.91 1568.97 1336.91 1564 Q1331.95 1559.04 1331.95 1550.57 Q1331.95 1541.82 1336.66 1536.69 Q1341.4 1531.54 1349.42 1531.54 Q1356.61 1531.54 1360.78 1536.18 Q1364.99 1540.8 1364.99 1548.76 M1359.13 1547.04 Q1359.07 1542.23 1356.42 1539.37 Q1353.81 1536.5 1349.48 1536.5 Q1344.58 1536.5 1341.62 1539.27 Q1338.7 1542.04 1338.25 1547.07 L1359.13 1547.04 Z" fill="#000000" fill-rule="nonzero" fill-opacity="1" /><path clip-path="url(#clip700)" d="M1405.09 1548.76 L1405.09 1551.62 L1378.16 1551.62 Q1378.54 1557.67 1381.79 1560.85 Q1385.07 1564 1390.89 1564 Q1394.27 1564 1397.42 1563.17 Q1400.6 1562.35 1403.72 1560.69 L1403.72 1566.23 Q1400.57 1567.57 1397.26 1568.27 Q1393.95 1568.97 1390.54 1568.97 Q1382.01 1568.97 1377.02 1564 Q1372.05 1559.04 1372.05 1550.57 Q1372.05 1541.82 1376.76 1536.69 Q1381.5 1531.54 1389.53 1531.54 Q1396.72 1531.54 1400.89 1536.18 Q1405.09 1540.8 1405.09 1548.76 M1399.23 1547.04 Q1399.17 1542.23 1396.53 1539.37 Q1393.92 1536.5 1389.59 1536.5 Q1384.69 1536.5 1381.73 1539.27 Q1378.8 1542.04 1378.35 1547.07 L1399.23 1547.04 Z" fill="#000000" fill-rule="nonzero" fill-opacity="1" /><path clip-path="url(#clip700)" d="M1437.43 1533.45 L1437.43 1538.98 Q1434.94 1537.71 1432.27 1537.07 Q1429.6 1536.44 1426.73 1536.44 Q1422.37 1536.44 1420.18 1537.77 Q1418.01 1539.11 1418.01 1541.79 Q1418.01 1543.82 1419.57 1545 Q1421.13 1546.15 1425.84 1547.2 L1427.85 1547.64 Q1434.09 1548.98 1436.7 1551.43 Q1439.34 1553.85 1439.34 1558.21 Q1439.34 1563.17 1435.39 1566.07 Q1431.48 1568.97 1424.6 1568.97 Q1421.74 1568.97 1418.62 1568.39 Q1415.53 1567.85 1412.09 1566.74 L1412.09 1560.69 Q1415.34 1562.38 1418.49 1563.24 Q1421.64 1564.07 1424.73 1564.07 Q1428.87 1564.07 1431.09 1562.66 Q1433.32 1561.23 1433.32 1558.65 Q1433.32 1556.27 1431.7 1554.99 Q1430.11 1553.72 1424.66 1552.54 L1422.63 1552.07 Q1417.18 1550.92 1414.77 1548.56 Q1412.35 1546.18 1412.35 1542.04 Q1412.35 1537.01 1415.91 1534.27 Q1419.48 1531.54 1426.03 1531.54 Q1429.28 1531.54 1432.14 1532.01 Q1435.01 1532.49 1437.43 1533.45 Z" fill="#000000" fill-rule="nonzero" fill-opacity="1" /><polyline clip-path="url(#clip702)" style="stroke:#000000; stroke-linecap:round; stroke-linejoin:round; stroke-width:2; stroke-opacity:0.1; fill:none" points="264.287,1393.24 2352.76,1393.24 "/>
<polyline clip-path="url(#clip702)" style="stroke:#000000; stroke-linecap:round; stroke-linejoin:round; stroke-width:2; stroke-opacity:0.1; fill:none" points="264.287,1165.08 2352.76,1165.08 "/>
<polyline clip-path="url(#clip702)" style="stroke:#000000; stroke-linecap:round; stroke-linejoin:round; stroke-width:2; stroke-opacity:0.1; fill:none" points="264.287,936.918 2352.76,936.918 "/>
<polyline clip-path="url(#clip702)" style="stroke:#000000; stroke-linecap:round; stroke-linejoin:round; stroke-width:2; stroke-opacity:0.1; fill:none" points="264.287,708.756 2352.76,708.756 "/>
<polyline clip-path="url(#clip702)" style="stroke:#000000; stroke-linecap:round; stroke-linejoin:round; stroke-width:2; stroke-opacity:0.1; fill:none" points="264.287,480.595 2352.76,480.595 "/>
<polyline clip-path="url(#clip702)" style="stroke:#000000; stroke-linecap:round; stroke-linejoin:round; stroke-width:2; stroke-opacity:0.1; fill:none" points="264.287,252.434 2352.76,252.434 "/>
<polyline clip-path="url(#clip700)" style="stroke:#000000; stroke-linecap:round; stroke-linejoin:round; stroke-width:4; stroke-opacity:1; fill:none" points="264.287,1423.18 264.287,123.472 "/>
<polyline clip-path="url(#clip700)" style="stroke:#000000; stroke-linecap:round; stroke-linejoin:round; stroke-width:4; stroke-opacity:1; fill:none" points="264.287,1393.24 283.185,1393.24 "/>
<polyline clip-path="url(#clip700)" style="stroke:#000000; stroke-linecap:round; stroke-linejoin:round; stroke-width:4; stroke-opacity:1; fill:none" points="264.287,1165.08 283.185,1165.08 "/>
<polyline clip-path="url(#clip700)" style="stroke:#000000; stroke-linecap:round; stroke-linejoin:round; stroke-width:4; stroke-opacity:1; fill:none" points="264.287,936.918 283.185,936.918 "/>
<polyline clip-path="url(#clip700)" style="stroke:#000000; stroke-linecap:round; stroke-linejoin:round; stroke-width:4; stroke-opacity:1; fill:none" points="264.287,708.756 283.185,708.756 "/>
<polyline clip-path="url(#clip700)" style="stroke:#000000; stroke-linecap:round; stroke-linejoin:round; stroke-width:4; stroke-opacity:1; fill:none" points="264.287,480.595 283.185,480.595 "/>
<polyline clip-path="url(#clip700)" style="stroke:#000000; stroke-linecap:round; stroke-linejoin:round; stroke-width:4; stroke-opacity:1; fill:none" points="264.287,252.434 283.185,252.434 "/>
<path clip-path="url(#clip700)" d="M216.343 1379.04 Q212.732 1379.04 210.903 1382.6 Q209.098 1386.15 209.098 1393.28 Q209.098 1400.38 210.903 1403.95 Q212.732 1407.49 216.343 1407.49 Q219.977 1407.49 221.783 1403.95 Q223.611 1400.38 223.611 1393.28 Q223.611 1386.15 221.783 1382.6 Q219.977 1379.04 216.343 1379.04 M216.343 1375.34 Q222.153 1375.34 225.209 1379.94 Q228.287 1384.53 228.287 1393.28 Q228.287 1402 225.209 1406.61 Q222.153 1411.19 216.343 1411.19 Q210.533 1411.19 207.454 1406.61 Q204.399 1402 204.399 1393.28 Q204.399 1384.53 207.454 1379.94 Q210.533 1375.34 216.343 1375.34 Z" fill="#000000" fill-rule="nonzero" fill-opacity="1" /><path clip-path="url(#clip700)" d="M146.066 1147.8 L164.422 1147.8 L164.422 1151.73 L150.348 1151.73 L150.348 1160.21 Q151.366 1159.86 152.385 1159.7 Q153.403 1159.51 154.422 1159.51 Q160.209 1159.51 163.589 1162.68 Q166.968 1165.85 166.968 1171.27 Q166.968 1176.85 163.496 1179.95 Q160.024 1183.03 153.704 1183.03 Q151.528 1183.03 149.26 1182.66 Q147.015 1182.29 144.607 1181.55 L144.607 1176.85 Q146.691 1177.98 148.913 1178.54 Q151.135 1179.1 153.612 1179.1 Q157.616 1179.1 159.954 1176.99 Q162.292 1174.88 162.292 1171.27 Q162.292 1167.66 159.954 1165.55 Q157.616 1163.45 153.612 1163.45 Q151.737 1163.45 149.862 1163.86 Q148.01 1164.28 146.066 1165.16 L146.066 1147.8 Z" fill="#000000" fill-rule="nonzero" fill-opacity="1" /><path clip-path="url(#clip700)" d="M186.181 1150.88 Q182.57 1150.88 180.741 1154.44 Q178.936 1157.98 178.936 1165.11 Q178.936 1172.22 180.741 1175.79 Q182.57 1179.33 186.181 1179.33 Q189.815 1179.33 191.621 1175.79 Q193.45 1172.22 193.45 1165.11 Q193.45 1157.98 191.621 1154.44 Q189.815 1150.88 186.181 1150.88 M186.181 1147.17 Q191.991 1147.17 195.047 1151.78 Q198.125 1156.36 198.125 1165.11 Q198.125 1173.84 195.047 1178.45 Q191.991 1183.03 186.181 1183.03 Q180.371 1183.03 177.292 1178.45 Q174.237 1173.84 174.237 1165.11 Q174.237 1156.36 177.292 1151.78 Q180.371 1147.17 186.181 1147.17 Z" fill="#000000" fill-rule="nonzero" fill-opacity="1" /><path clip-path="url(#clip700)" d="M216.343 1150.88 Q212.732 1150.88 210.903 1154.44 Q209.098 1157.98 209.098 1165.11 Q209.098 1172.22 210.903 1175.79 Q212.732 1179.33 216.343 1179.33 Q219.977 1179.33 221.783 1175.79 Q223.611 1172.22 223.611 1165.11 Q223.611 1157.98 221.783 1154.44 Q219.977 1150.88 216.343 1150.88 M216.343 1147.17 Q222.153 1147.17 225.209 1151.78 Q228.287 1156.36 228.287 1165.11 Q228.287 1173.84 225.209 1178.45 Q222.153 1183.03 216.343 1183.03 Q210.533 1183.03 207.454 1178.45 Q204.399 1173.84 204.399 1165.11 Q204.399 1156.36 207.454 1151.78 Q210.533 1147.17 216.343 1147.17 Z" fill="#000000" fill-rule="nonzero" fill-opacity="1" /><path clip-path="url(#clip700)" d="M116.668 950.263 L124.306 950.263 L124.306 923.897 L115.996 925.564 L115.996 921.304 L124.26 919.638 L128.936 919.638 L128.936 950.263 L136.575 950.263 L136.575 954.198 L116.668 954.198 L116.668 950.263 Z" fill="#000000" fill-rule="nonzero" fill-opacity="1" /><path clip-path="url(#clip700)" d="M156.019 922.716 Q152.408 922.716 150.579 926.281 Q148.774 929.823 148.774 936.952 Q148.774 944.059 150.579 947.624 Q152.408 951.165 156.019 951.165 Q159.653 951.165 161.459 947.624 Q163.288 944.059 163.288 936.952 Q163.288 929.823 161.459 926.281 Q159.653 922.716 156.019 922.716 M156.019 919.013 Q161.829 919.013 164.885 923.619 Q167.964 928.202 167.964 936.952 Q167.964 945.679 164.885 950.286 Q161.829 954.869 156.019 954.869 Q150.209 954.869 147.13 950.286 Q144.075 945.679 144.075 936.952 Q144.075 928.202 147.13 923.619 Q150.209 919.013 156.019 919.013 Z" fill="#000000" fill-rule="nonzero" fill-opacity="1" /><path clip-path="url(#clip700)" d="M186.181 922.716 Q182.57 922.716 180.741 926.281 Q178.936 929.823 178.936 936.952 Q178.936 944.059 180.741 947.624 Q182.57 951.165 186.181 951.165 Q189.815 951.165 191.621 947.624 Q193.45 944.059 193.45 936.952 Q193.45 929.823 191.621 926.281 Q189.815 922.716 186.181 922.716 M186.181 919.013 Q191.991 919.013 195.047 923.619 Q198.125 928.202 198.125 936.952 Q198.125 945.679 195.047 950.286 Q191.991 954.869 186.181 954.869 Q180.371 954.869 177.292 950.286 Q174.237 945.679 174.237 936.952 Q174.237 928.202 177.292 923.619 Q180.371 919.013 186.181 919.013 Z" fill="#000000" fill-rule="nonzero" fill-opacity="1" /><path clip-path="url(#clip700)" d="M216.343 922.716 Q212.732 922.716 210.903 926.281 Q209.098 929.823 209.098 936.952 Q209.098 944.059 210.903 947.624 Q212.732 951.165 216.343 951.165 Q219.977 951.165 221.783 947.624 Q223.611 944.059 223.611 936.952 Q223.611 929.823 221.783 926.281 Q219.977 922.716 216.343 922.716 M216.343 919.013 Q222.153 919.013 225.209 923.619 Q228.287 928.202 228.287 936.952 Q228.287 945.679 225.209 950.286 Q222.153 954.869 216.343 954.869 Q210.533 954.869 207.454 950.286 Q204.399 945.679 204.399 936.952 Q204.399 928.202 207.454 923.619 Q210.533 919.013 216.343 919.013 Z" fill="#000000" fill-rule="nonzero" fill-opacity="1" /><path clip-path="url(#clip700)" d="M116.668 722.101 L124.306 722.101 L124.306 695.736 L115.996 697.402 L115.996 693.143 L124.26 691.476 L128.936 691.476 L128.936 722.101 L136.575 722.101 L136.575 726.036 L116.668 726.036 L116.668 722.101 Z" fill="#000000" fill-rule="nonzero" fill-opacity="1" /><path clip-path="url(#clip700)" d="M146.066 691.476 L164.422 691.476 L164.422 695.411 L150.348 695.411 L150.348 703.884 Q151.366 703.536 152.385 703.374 Q153.403 703.189 154.422 703.189 Q160.209 703.189 163.589 706.36 Q166.968 709.532 166.968 714.948 Q166.968 720.527 163.496 723.629 Q160.024 726.708 153.704 726.708 Q151.528 726.708 149.26 726.337 Q147.015 725.967 144.607 725.226 L144.607 720.527 Q146.691 721.661 148.913 722.217 Q151.135 722.772 153.612 722.772 Q157.616 722.772 159.954 720.666 Q162.292 718.559 162.292 714.948 Q162.292 711.337 159.954 709.231 Q157.616 707.124 153.612 707.124 Q151.737 707.124 149.862 707.541 Q148.01 707.958 146.066 708.837 L146.066 691.476 Z" fill="#000000" fill-rule="nonzero" fill-opacity="1" /><path clip-path="url(#clip700)" d="M186.181 694.555 Q182.57 694.555 180.741 698.12 Q178.936 701.661 178.936 708.791 Q178.936 715.897 180.741 719.462 Q182.57 723.004 186.181 723.004 Q189.815 723.004 191.621 719.462 Q193.45 715.897 193.45 708.791 Q193.45 701.661 191.621 698.12 Q189.815 694.555 186.181 694.555 M186.181 690.851 Q191.991 690.851 195.047 695.458 Q198.125 700.041 198.125 708.791 Q198.125 717.518 195.047 722.124 Q191.991 726.708 186.181 726.708 Q180.371 726.708 177.292 722.124 Q174.237 717.518 174.237 708.791 Q174.237 700.041 177.292 695.458 Q180.371 690.851 186.181 690.851 Z" fill="#000000" fill-rule="nonzero" fill-opacity="1" /><path clip-path="url(#clip700)" d="M216.343 694.555 Q212.732 694.555 210.903 698.12 Q209.098 701.661 209.098 708.791 Q209.098 715.897 210.903 719.462 Q212.732 723.004 216.343 723.004 Q219.977 723.004 221.783 719.462 Q223.611 715.897 223.611 708.791 Q223.611 701.661 221.783 698.12 Q219.977 694.555 216.343 694.555 M216.343 690.851 Q222.153 690.851 225.209 695.458 Q228.287 700.041 228.287 708.791 Q228.287 717.518 225.209 722.124 Q222.153 726.708 216.343 726.708 Q210.533 726.708 207.454 722.124 Q204.399 717.518 204.399 708.791 Q204.399 700.041 207.454 695.458 Q210.533 690.851 216.343 690.851 Z" fill="#000000" fill-rule="nonzero" fill-opacity="1" /><path clip-path="url(#clip700)" d="M119.885 493.94 L136.204 493.94 L136.204 497.875 L114.26 497.875 L114.26 493.94 Q116.922 491.185 121.505 486.556 Q126.112 481.903 127.292 480.56 Q129.538 478.037 130.417 476.301 Q131.32 474.542 131.32 472.852 Q131.32 470.097 129.376 468.361 Q127.455 466.625 124.353 466.625 Q122.154 466.625 119.7 467.389 Q117.269 468.153 114.492 469.704 L114.492 464.982 Q117.316 463.847 119.769 463.269 Q122.223 462.69 124.26 462.69 Q129.63 462.69 132.825 465.375 Q136.019 468.06 136.019 472.551 Q136.019 474.681 135.209 476.602 Q134.422 478.5 132.316 481.093 Q131.737 481.764 128.635 484.981 Q125.533 488.176 119.885 493.94 Z" fill="#000000" fill-rule="nonzero" fill-opacity="1" /><path clip-path="url(#clip700)" d="M156.019 466.394 Q152.408 466.394 150.579 469.958 Q148.774 473.5 148.774 480.63 Q148.774 487.736 150.579 491.301 Q152.408 494.843 156.019 494.843 Q159.653 494.843 161.459 491.301 Q163.288 487.736 163.288 480.63 Q163.288 473.5 161.459 469.958 Q159.653 466.394 156.019 466.394 M156.019 462.69 Q161.829 462.69 164.885 467.296 Q167.964 471.88 167.964 480.63 Q167.964 489.356 164.885 493.963 Q161.829 498.546 156.019 498.546 Q150.209 498.546 147.13 493.963 Q144.075 489.356 144.075 480.63 Q144.075 471.88 147.13 467.296 Q150.209 462.69 156.019 462.69 Z" fill="#000000" fill-rule="nonzero" fill-opacity="1" /><path clip-path="url(#clip700)" d="M186.181 466.394 Q182.57 466.394 180.741 469.958 Q178.936 473.5 178.936 480.63 Q178.936 487.736 180.741 491.301 Q182.57 494.843 186.181 494.843 Q189.815 494.843 191.621 491.301 Q193.45 487.736 193.45 480.63 Q193.45 473.5 191.621 469.958 Q189.815 466.394 186.181 466.394 M186.181 462.69 Q191.991 462.69 195.047 467.296 Q198.125 471.88 198.125 480.63 Q198.125 489.356 195.047 493.963 Q191.991 498.546 186.181 498.546 Q180.371 498.546 177.292 493.963 Q174.237 489.356 174.237 480.63 Q174.237 471.88 177.292 467.296 Q180.371 462.69 186.181 462.69 Z" fill="#000000" fill-rule="nonzero" fill-opacity="1" /><path clip-path="url(#clip700)" d="M216.343 466.394 Q212.732 466.394 210.903 469.958 Q209.098 473.5 209.098 480.63 Q209.098 487.736 210.903 491.301 Q212.732 494.843 216.343 494.843 Q219.977 494.843 221.783 491.301 Q223.611 487.736 223.611 480.63 Q223.611 473.5 221.783 469.958 Q219.977 466.394 216.343 466.394 M216.343 462.69 Q222.153 462.69 225.209 467.296 Q228.287 471.88 228.287 480.63 Q228.287 489.356 225.209 493.963 Q222.153 498.546 216.343 498.546 Q210.533 498.546 207.454 493.963 Q204.399 489.356 204.399 480.63 Q204.399 471.88 207.454 467.296 Q210.533 462.69 216.343 462.69 Z" fill="#000000" fill-rule="nonzero" fill-opacity="1" /><path clip-path="url(#clip700)" d="M119.885 265.778 L136.204 265.778 L136.204 269.714 L114.26 269.714 L114.26 265.778 Q116.922 263.024 121.505 258.394 Q126.112 253.741 127.292 252.399 Q129.538 249.876 130.417 248.14 Q131.32 246.38 131.32 244.69 Q131.32 241.936 129.376 240.2 Q127.455 238.464 124.353 238.464 Q122.154 238.464 119.7 239.228 Q117.269 239.991 114.492 241.542 L114.492 236.82 Q117.316 235.686 119.769 235.107 Q122.223 234.529 124.26 234.529 Q129.63 234.529 132.825 237.214 Q136.019 239.899 136.019 244.39 Q136.019 246.519 135.209 248.44 Q134.422 250.339 132.316 252.931 Q131.737 253.602 128.635 256.82 Q125.533 260.014 119.885 265.778 Z" fill="#000000" fill-rule="nonzero" fill-opacity="1" /><path clip-path="url(#clip700)" d="M146.066 235.154 L164.422 235.154 L164.422 239.089 L150.348 239.089 L150.348 247.561 Q151.366 247.214 152.385 247.052 Q153.403 246.866 154.422 246.866 Q160.209 246.866 163.589 250.038 Q166.968 253.209 166.968 258.626 Q166.968 264.204 163.496 267.306 Q160.024 270.385 153.704 270.385 Q151.528 270.385 149.26 270.014 Q147.015 269.644 144.607 268.903 L144.607 264.204 Q146.691 265.339 148.913 265.894 Q151.135 266.45 153.612 266.45 Q157.616 266.45 159.954 264.343 Q162.292 262.237 162.292 258.626 Q162.292 255.015 159.954 252.908 Q157.616 250.802 153.612 250.802 Q151.737 250.802 149.862 251.218 Q148.01 251.635 146.066 252.515 L146.066 235.154 Z" fill="#000000" fill-rule="nonzero" fill-opacity="1" /><path clip-path="url(#clip700)" d="M186.181 238.232 Q182.57 238.232 180.741 241.797 Q178.936 245.339 178.936 252.468 Q178.936 259.575 180.741 263.139 Q182.57 266.681 186.181 266.681 Q189.815 266.681 191.621 263.139 Q193.45 259.575 193.45 252.468 Q193.45 245.339 191.621 241.797 Q189.815 238.232 186.181 238.232 M186.181 234.529 Q191.991 234.529 195.047 239.135 Q198.125 243.718 198.125 252.468 Q198.125 261.195 195.047 265.801 Q191.991 270.385 186.181 270.385 Q180.371 270.385 177.292 265.801 Q174.237 261.195 174.237 252.468 Q174.237 243.718 177.292 239.135 Q180.371 234.529 186.181 234.529 Z" fill="#000000" fill-rule="nonzero" fill-opacity="1" /><path clip-path="url(#clip700)" d="M216.343 238.232 Q212.732 238.232 210.903 241.797 Q209.098 245.339 209.098 252.468 Q209.098 259.575 210.903 263.139 Q212.732 266.681 216.343 266.681 Q219.977 266.681 221.783 263.139 Q223.611 259.575 223.611 252.468 Q223.611 245.339 221.783 241.797 Q219.977 238.232 216.343 238.232 M216.343 234.529 Q222.153 234.529 225.209 239.135 Q228.287 243.718 228.287 252.468 Q228.287 261.195 225.209 265.801 Q222.153 270.385 216.343 270.385 Q210.533 270.385 207.454 265.801 Q204.399 261.195 204.399 252.468 Q204.399 243.718 207.454 239.135 Q210.533 234.529 216.343 234.529 Z" fill="#000000" fill-rule="nonzero" fill-opacity="1" /><path clip-path="url(#clip700)" d="M16.4842 937.529 L16.4842 910.221 L21.895 910.221 L21.895 931.1 L35.8996 931.1 L35.8996 912.258 L41.3104 912.258 L41.3104 931.1 L64.0042 931.1 L64.0042 937.529 L16.4842 937.529 Z" fill="#000000" fill-rule="nonzero" fill-opacity="1" /><path clip-path="url(#clip700)" d="M33.8307 884.376 Q33.2578 885.362 33.0032 886.54 Q32.7167 887.686 32.7167 889.086 Q32.7167 894.052 35.9632 896.725 Q39.1779 899.367 45.2253 899.367 L64.0042 899.367 L64.0042 905.255 L28.3562 905.255 L28.3562 899.367 L33.8944 899.367 Q30.6479 897.521 29.0883 894.561 Q27.4968 891.601 27.4968 887.368 Q27.4968 886.763 27.5923 886.031 Q27.656 885.299 27.8151 884.408 L33.8307 884.376 Z" fill="#000000" fill-rule="nonzero" fill-opacity="1" /><path clip-path="url(#clip700)" d="M44.7161 849.173 L47.5806 849.173 L47.5806 876.1 Q53.6281 875.718 56.8109 872.472 Q59.9619 869.194 59.9619 863.369 Q59.9619 859.995 59.1344 856.844 Q58.3069 853.661 56.6518 850.542 L62.1899 850.542 Q63.5267 853.693 64.227 857.003 Q64.9272 860.313 64.9272 863.719 Q64.9272 872.249 59.9619 877.246 Q54.9967 882.211 46.5303 882.211 Q37.7774 882.211 32.6531 877.501 Q27.4968 872.758 27.4968 864.738 Q27.4968 857.544 32.1438 853.375 Q36.7589 849.173 44.7161 849.173 M42.9973 855.03 Q38.1912 855.093 35.3266 857.735 Q32.4621 860.345 32.4621 864.674 Q32.4621 869.575 35.2312 872.536 Q38.0002 875.464 43.0292 875.909 L42.9973 855.03 Z" fill="#000000" fill-rule="nonzero" fill-opacity="1" /><path clip-path="url(#clip700)" d="M46.212 836.06 Q52.6732 836.06 56.3653 833.418 Q60.0256 830.745 60.0256 826.098 Q60.0256 821.451 56.3653 818.777 Q52.6732 816.104 46.212 816.104 Q39.7508 816.104 36.0905 818.777 Q32.3984 821.451 32.3984 826.098 Q32.3984 830.745 36.0905 833.418 Q39.7508 836.06 46.212 836.06 M58.657 816.104 Q61.8398 817.95 63.3994 820.782 Q64.9272 823.583 64.9272 827.53 Q64.9272 833.991 59.771 838.065 Q54.6147 842.107 46.212 842.107 Q37.8093 842.107 32.6531 838.065 Q27.4968 833.991 27.4968 827.53 Q27.4968 823.583 29.0564 820.782 Q30.5842 817.95 33.7671 816.104 L28.3562 816.104 L28.3562 810.247 L77.5631 810.247 L77.5631 816.104 L58.657 816.104 Z" fill="#000000" fill-rule="nonzero" fill-opacity="1" /><path clip-path="url(#clip700)" d="M49.9359 798.789 L28.3562 798.789 L28.3562 792.932 L49.7131 792.932 Q54.7739 792.932 57.3202 790.959 Q59.8346 788.986 59.8346 785.039 Q59.8346 780.296 56.8109 777.559 Q53.7872 774.79 48.5673 774.79 L28.3562 774.79 L28.3562 768.934 L64.0042 768.934 L64.0042 774.79 L58.5296 774.79 Q61.7762 776.923 63.3676 779.755 Q64.9272 782.556 64.9272 786.28 Q64.9272 792.423 61.1078 795.606 Q57.2883 798.789 49.9359 798.789 M27.4968 784.052 L27.4968 784.052 Z" fill="#000000" fill-rule="nonzero" fill-opacity="1" /><path clip-path="url(#clip700)" d="M44.7161 726.379 L47.5806 726.379 L47.5806 753.306 Q53.6281 752.924 56.8109 749.677 Q59.9619 746.399 59.9619 740.574 Q59.9619 737.201 59.1344 734.05 Q58.3069 730.867 56.6518 727.748 L62.1899 727.748 Q63.5267 730.899 64.227 734.209 Q64.9272 737.519 64.9272 740.925 Q64.9272 749.455 59.9619 754.452 Q54.9967 759.417 46.5303 759.417 Q37.7774 759.417 32.6531 754.706 Q27.4968 749.964 27.4968 741.943 Q27.4968 734.75 32.1438 730.58 Q36.7589 726.379 44.7161 726.379 M42.9973 732.235 Q38.1912 732.299 35.3266 734.941 Q32.4621 737.551 32.4621 741.879 Q32.4621 746.781 35.2312 749.741 Q38.0002 752.669 43.0292 753.115 L42.9973 732.235 Z" fill="#000000" fill-rule="nonzero" fill-opacity="1" /><path clip-path="url(#clip700)" d="M42.4881 687.134 L64.0042 687.134 L64.0042 692.991 L42.679 692.991 Q37.6183 692.991 35.1038 694.964 Q32.5894 696.938 32.5894 700.884 Q32.5894 705.627 35.6131 708.364 Q38.6368 711.101 43.8567 711.101 L64.0042 711.101 L64.0042 716.989 L28.3562 716.989 L28.3562 711.101 L33.8944 711.101 Q30.6797 709.001 29.0883 706.168 Q27.4968 703.303 27.4968 699.579 Q27.4968 693.436 31.3163 690.285 Q35.1038 687.134 42.4881 687.134 Z" fill="#000000" fill-rule="nonzero" fill-opacity="1" /><path clip-path="url(#clip700)" d="M29.7248 649.799 L35.1993 649.799 Q33.8307 652.282 33.1623 654.797 Q32.4621 657.279 32.4621 659.825 Q32.4621 665.523 36.0905 668.674 Q39.6872 671.825 46.212 671.825 Q52.7369 671.825 56.3653 668.674 Q59.9619 665.523 59.9619 659.825 Q59.9619 657.279 59.2935 654.797 Q58.5933 652.282 57.2247 649.799 L62.6355 649.799 Q63.7814 652.25 64.3543 654.892 Q64.9272 657.502 64.9272 660.462 Q64.9272 668.515 59.8664 673.257 Q54.8057 678 46.212 678 Q37.491 678 32.4939 673.225 Q27.4968 668.419 27.4968 660.08 Q27.4968 657.375 28.0697 654.797 Q28.6108 652.218 29.7248 649.799 Z" fill="#000000" fill-rule="nonzero" fill-opacity="1" /><path clip-path="url(#clip700)" d="M67.3143 624.782 Q73.68 627.265 75.6216 629.62 Q77.5631 631.975 77.5631 635.922 L77.5631 640.601 L72.6615 640.601 L72.6615 637.164 Q72.6615 634.745 71.5157 633.408 Q70.3699 632.071 66.1048 630.448 L63.4312 629.397 L28.3562 643.816 L28.3562 637.609 L56.238 626.469 L28.3562 615.329 L28.3562 609.123 L67.3143 624.782 Z" fill="#000000" fill-rule="nonzero" fill-opacity="1" /><path clip-path="url(#clip700)" d="M412.381 12.096 L424.574 12.096 L440.008 53.2532 L455.523 12.096 L467.716 12.096 L467.716 72.576 L459.736 72.576 L459.736 19.4686 L444.14 60.9499 L435.916 60.9499 L420.32 19.4686 L420.32 72.576 L412.381 72.576 L412.381 12.096 Z" fill="#000000" fill-rule="nonzero" fill-opacity="1" /><path clip-path="url(#clip700)" d="M483.636 27.2059 L491.09 27.2059 L491.09 72.576 L483.636 72.576 L483.636 27.2059 M483.636 9.54393 L491.09 9.54393 L491.09 18.9825 L483.636 18.9825 L483.636 9.54393 Z" fill="#000000" fill-rule="nonzero" fill-opacity="1" /><path clip-path="url(#clip700)" d="M536.541 34.0924 L536.541 9.54393 L543.994 9.54393 L543.994 72.576 L536.541 72.576 L536.541 65.7705 Q534.191 69.8214 530.586 71.8063 Q527.021 73.7508 521.998 73.7508 Q513.775 73.7508 508.59 67.1883 Q503.445 60.6258 503.445 49.9314 Q503.445 39.2371 508.59 32.6746 Q513.775 26.1121 521.998 26.1121 Q527.021 26.1121 530.586 28.0971 Q534.191 30.0415 536.541 34.0924 M511.142 49.9314 Q511.142 58.1548 514.504 62.8538 Q517.907 67.5124 523.821 67.5124 Q529.735 67.5124 533.138 62.8538 Q536.541 58.1548 536.541 49.9314 Q536.541 41.7081 533.138 37.0496 Q529.735 32.3505 523.821 32.3505 Q517.907 32.3505 514.504 37.0496 Q511.142 41.7081 511.142 49.9314 Z" fill="#000000" fill-rule="nonzero" fill-opacity="1" /><path clip-path="url(#clip700)" d="M589.203 34.0924 L589.203 9.54393 L596.656 9.54393 L596.656 72.576 L589.203 72.576 L589.203 65.7705 Q586.853 69.8214 583.248 71.8063 Q579.683 73.7508 574.66 73.7508 Q566.436 73.7508 561.251 67.1883 Q556.107 60.6258 556.107 49.9314 Q556.107 39.2371 561.251 32.6746 Q566.436 26.1121 574.66 26.1121 Q579.683 26.1121 583.248 28.0971 Q586.853 30.0415 589.203 34.0924 M563.803 49.9314 Q563.803 58.1548 567.166 62.8538 Q570.568 67.5124 576.483 67.5124 Q582.397 67.5124 585.8 62.8538 Q589.203 58.1548 589.203 49.9314 Q589.203 41.7081 585.8 37.0496 Q582.397 32.3505 576.483 32.3505 Q570.568 32.3505 567.166 37.0496 Q563.803 41.7081 563.803 49.9314 Z" fill="#000000" fill-rule="nonzero" fill-opacity="1" /><path clip-path="url(#clip700)" d="M612.009 9.54393 L619.463 9.54393 L619.463 72.576 L612.009 72.576 L612.009 9.54393 Z" fill="#000000" fill-rule="nonzero" fill-opacity="1" /><path clip-path="url(#clip700)" d="M673.866 48.0275 L673.866 51.6733 L639.596 51.6733 Q640.082 59.3701 644.214 63.421 Q648.386 67.4314 655.799 67.4314 Q660.093 67.4314 664.104 66.3781 Q668.155 65.3249 672.125 63.2184 L672.125 70.267 Q668.114 71.9684 663.901 72.8596 Q659.688 73.7508 655.354 73.7508 Q644.497 73.7508 638.137 67.4314 Q631.818 61.1119 631.818 50.3365 Q631.818 39.1965 637.813 32.6746 Q643.849 26.1121 654.058 26.1121 Q663.213 26.1121 668.519 32.0264 Q673.866 37.9003 673.866 48.0275 M666.413 45.84 Q666.332 39.7232 662.97 36.0774 Q659.648 32.4315 654.139 32.4315 Q647.9 32.4315 644.133 35.9558 Q640.406 39.4801 639.839 45.8805 L666.413 45.84 Z" fill="#000000" fill-rule="nonzero" fill-opacity="1" /><path clip-path="url(#clip700)" d="M750.185 45.1919 L750.185 72.576 L742.732 72.576 L742.732 45.4349 Q742.732 38.994 740.22 35.7938 Q737.709 32.5936 732.686 32.5936 Q726.65 32.5936 723.166 36.4419 Q719.682 40.2903 719.682 46.9338 L719.682 72.576 L712.188 72.576 L712.188 9.54393 L719.682 9.54393 L719.682 34.2544 Q722.356 30.163 725.961 28.1376 Q729.607 26.1121 734.346 26.1121 Q742.165 26.1121 746.175 30.9732 Q750.185 35.7938 750.185 45.1919 Z" fill="#000000" fill-rule="nonzero" fill-opacity="1" /><path clip-path="url(#clip700)" d="M785.671 49.7694 Q776.638 49.7694 773.154 51.8354 Q769.67 53.9013 769.67 58.8839 Q769.67 62.8538 772.263 65.2034 Q774.896 67.5124 779.393 67.5124 Q785.59 67.5124 789.317 63.1374 Q793.085 58.7219 793.085 51.4303 L793.085 49.7694 L785.671 49.7694 M800.538 46.6907 L800.538 72.576 L793.085 72.576 L793.085 65.6895 Q790.532 69.8214 786.725 71.8063 Q782.917 73.7508 777.408 73.7508 Q770.44 73.7508 766.308 69.8619 Q762.217 65.9325 762.217 59.3701 Q762.217 51.7138 767.321 47.825 Q772.465 43.9361 782.633 43.9361 L793.085 43.9361 L793.085 43.2069 Q793.085 38.0623 789.682 35.2672 Q786.32 32.4315 780.203 32.4315 Q776.314 32.4315 772.627 33.3632 Q768.941 34.295 765.538 36.1584 L765.538 29.2718 Q769.63 27.692 773.478 26.9223 Q777.327 26.1121 780.972 26.1121 Q790.816 26.1121 795.677 31.2163 Q800.538 36.3204 800.538 46.6907 Z" fill="#000000" fill-rule="nonzero" fill-opacity="1" /><path clip-path="url(#clip700)" d="M815.891 9.54393 L823.345 9.54393 L823.345 72.576 L815.891 72.576 L815.891 9.54393 Z" fill="#000000" fill-rule="nonzero" fill-opacity="1" /><path clip-path="url(#clip700)" d="M861.909 9.54393 L861.909 15.7418 L854.78 15.7418 Q850.769 15.7418 849.19 17.3622 Q847.65 18.9825 847.65 23.1955 L847.65 27.2059 L859.924 27.2059 L859.924 32.9987 L847.65 32.9987 L847.65 72.576 L840.156 72.576 L840.156 32.9987 L833.026 32.9987 L833.026 27.2059 L840.156 27.2059 L840.156 24.0462 Q840.156 16.471 843.68 13.0277 Q847.205 9.54393 854.861 9.54393 L861.909 9.54393 Z" fill="#000000" fill-rule="nonzero" fill-opacity="1" /><path clip-path="url(#clip700)" d="M912.1 32.4315 Q906.105 32.4315 902.621 37.1306 Q899.137 41.7891 899.137 49.9314 Q899.137 58.0738 902.581 62.7728 Q906.064 67.4314 912.1 67.4314 Q918.055 67.4314 921.539 62.7323 Q925.023 58.0333 925.023 49.9314 Q925.023 41.8701 921.539 37.1711 Q918.055 32.4315 912.1 32.4315 M912.1 26.1121 Q921.822 26.1121 927.372 32.4315 Q932.922 38.7509 932.922 49.9314 Q932.922 61.0714 927.372 67.4314 Q921.822 73.7508 912.1 73.7508 Q902.337 73.7508 896.788 67.4314 Q891.278 61.0714 891.278 49.9314 Q891.278 38.7509 896.788 32.4315 Q902.337 26.1121 912.1 26.1121 Z" fill="#000000" fill-rule="nonzero" fill-opacity="1" /><path clip-path="url(#clip700)" d="M968.246 9.54393 L968.246 15.7418 L961.116 15.7418 Q957.106 15.7418 955.526 17.3622 Q953.986 18.9825 953.986 23.1955 L953.986 27.2059 L966.261 27.2059 L966.261 32.9987 L953.986 32.9987 L953.986 72.576 L946.492 72.576 L946.492 32.9987 L939.363 32.9987 L939.363 27.2059 L946.492 27.2059 L946.492 24.0462 Q946.492 16.471 950.017 13.0277 Q953.541 9.54393 961.197 9.54393 L968.246 9.54393 Z" fill="#000000" fill-rule="nonzero" fill-opacity="1" /><path clip-path="url(#clip700)" d="M1029.78 28.5427 L1029.78 35.5912 Q1026.62 33.9709 1023.22 33.1607 Q1019.81 32.3505 1016.17 32.3505 Q1010.62 32.3505 1007.82 34.0519 Q1005.07 35.7533 1005.07 39.156 Q1005.07 41.7486 1007.05 43.2475 Q1009.04 44.7058 1015.03 46.0426 L1017.59 46.6097 Q1025.53 48.3111 1028.85 51.4303 Q1032.21 54.509 1032.21 60.0587 Q1032.21 66.3781 1027.19 70.0644 Q1022.2 73.7508 1013.45 73.7508 Q1009.81 73.7508 1005.84 73.0216 Q1001.91 72.3329 997.534 70.9151 L997.534 63.2184 Q1001.67 65.3654 1005.68 66.4591 Q1009.69 67.5124 1013.62 67.5124 Q1018.88 67.5124 1021.72 65.73 Q1024.55 63.9071 1024.55 60.6258 Q1024.55 57.5877 1022.49 55.9673 Q1020.46 54.3469 1013.53 52.8481 L1010.94 52.2405 Q1004.02 50.7821 1000.94 47.7845 Q997.858 44.7463 997.858 39.4801 Q997.858 33.0797 1002.39 29.5959 Q1006.93 26.1121 1015.28 26.1121 Q1019.41 26.1121 1023.05 26.7198 Q1026.7 27.3274 1029.78 28.5427 Z" fill="#000000" fill-rule="nonzero" fill-opacity="1" /><path clip-path="url(#clip700)" d="M1061.66 32.4315 Q1055.66 32.4315 1052.18 37.1306 Q1048.7 41.7891 1048.7 49.9314 Q1048.7 58.0738 1052.14 62.7728 Q1055.62 67.4314 1061.66 67.4314 Q1067.61 67.4314 1071.1 62.7323 Q1074.58 58.0333 1074.58 49.9314 Q1074.58 41.8701 1071.1 37.1711 Q1067.61 32.4315 1061.66 32.4315 M1061.66 26.1121 Q1071.38 26.1121 1076.93 32.4315 Q1082.48 38.7509 1082.48 49.9314 Q1082.48 61.0714 1076.93 67.4314 Q1071.38 73.7508 1061.66 73.7508 Q1051.9 73.7508 1046.35 67.4314 Q1040.84 61.0714 1040.84 49.9314 Q1040.84 38.7509 1046.35 32.4315 Q1051.9 26.1121 1061.66 26.1121 Z" fill="#000000" fill-rule="nonzero" fill-opacity="1" /><path clip-path="url(#clip700)" d="M1121.13 34.1734 Q1119.87 33.4443 1118.37 33.1202 Q1116.91 32.7556 1115.13 32.7556 Q1108.81 32.7556 1105.41 36.8875 Q1102.05 40.9789 1102.05 48.6757 L1102.05 72.576 L1094.55 72.576 L1094.55 27.2059 L1102.05 27.2059 L1102.05 34.2544 Q1104.4 30.1225 1108.16 28.1376 Q1111.93 26.1121 1117.32 26.1121 Q1118.09 26.1121 1119.02 26.2337 Q1119.95 26.3147 1121.09 26.5172 L1121.13 34.1734 Z" fill="#000000" fill-rule="nonzero" fill-opacity="1" /><path clip-path="url(#clip700)" d="M1136.32 14.324 L1136.32 27.2059 L1151.67 27.2059 L1151.67 32.9987 L1136.32 32.9987 L1136.32 57.6282 Q1136.32 63.1779 1137.82 64.7578 Q1139.36 66.3376 1144.01 66.3376 L1151.67 66.3376 L1151.67 72.576 L1144.01 72.576 Q1135.39 72.576 1132.1 69.3758 Q1128.82 66.1351 1128.82 57.6282 L1128.82 32.9987 L1123.35 32.9987 L1123.35 27.2059 L1128.82 27.2059 L1128.82 14.324 L1136.32 14.324 Z" fill="#000000" fill-rule="nonzero" fill-opacity="1" /><path clip-path="url(#clip700)" d="M1200.28 48.0275 L1200.28 51.6733 L1166.01 51.6733 Q1166.5 59.3701 1170.63 63.421 Q1174.8 67.4314 1182.21 67.4314 Q1186.51 67.4314 1190.52 66.3781 Q1194.57 65.3249 1198.54 63.2184 L1198.54 70.267 Q1194.53 71.9684 1190.32 72.8596 Q1186.1 73.7508 1181.77 73.7508 Q1170.91 73.7508 1164.55 67.4314 Q1158.23 61.1119 1158.23 50.3365 Q1158.23 39.1965 1164.23 32.6746 Q1170.26 26.1121 1180.47 26.1121 Q1189.63 26.1121 1194.93 32.0264 Q1200.28 37.9003 1200.28 48.0275 M1192.83 45.84 Q1192.75 39.7232 1189.38 36.0774 Q1186.06 32.4315 1180.55 32.4315 Q1174.32 32.4315 1170.55 35.9558 Q1166.82 39.4801 1166.25 45.8805 L1192.83 45.84 Z" fill="#000000" fill-rule="nonzero" fill-opacity="1" /><path clip-path="url(#clip700)" d="M1242.37 34.0924 L1242.37 9.54393 L1249.82 9.54393 L1249.82 72.576 L1242.37 72.576 L1242.37 65.7705 Q1240.02 69.8214 1236.42 71.8063 Q1232.85 73.7508 1227.83 73.7508 Q1219.6 73.7508 1214.42 67.1883 Q1209.27 60.6258 1209.27 49.9314 Q1209.27 39.2371 1214.42 32.6746 Q1219.6 26.1121 1227.83 26.1121 Q1232.85 26.1121 1236.42 28.0971 Q1240.02 30.0415 1242.37 34.0924 M1216.97 49.9314 Q1216.97 58.1548 1220.33 62.8538 Q1223.74 67.5124 1229.65 67.5124 Q1235.56 67.5124 1238.97 62.8538 Q1242.37 58.1548 1242.37 49.9314 Q1242.37 41.7081 1238.97 37.0496 Q1235.56 32.3505 1229.65 32.3505 Q1223.74 32.3505 1220.33 37.0496 Q1216.97 41.7081 1216.97 49.9314 Z" fill="#000000" fill-rule="nonzero" fill-opacity="1" /><path clip-path="url(#clip700)" d="M1321.4 34.0924 L1321.4 9.54393 L1328.86 9.54393 L1328.86 72.576 L1321.4 72.576 L1321.4 65.7705 Q1319.05 69.8214 1315.45 71.8063 Q1311.88 73.7508 1306.86 73.7508 Q1298.64 73.7508 1293.45 67.1883 Q1288.31 60.6258 1288.31 49.9314 Q1288.31 39.2371 1293.45 32.6746 Q1298.64 26.1121 1306.86 26.1121 Q1311.88 26.1121 1315.45 28.0971 Q1319.05 30.0415 1321.4 34.0924 M1296 49.9314 Q1296 58.1548 1299.37 62.8538 Q1302.77 67.5124 1308.68 67.5124 Q1314.6 67.5124 1318 62.8538 Q1321.4 58.1548 1321.4 49.9314 Q1321.4 41.7081 1318 37.0496 Q1314.6 32.3505 1308.68 32.3505 Q1302.77 32.3505 1299.37 37.0496 Q1296 41.7081 1296 49.9314 Z" fill="#000000" fill-rule="nonzero" fill-opacity="1" /><path clip-path="url(#clip700)" d="M1383.02 48.0275 L1383.02 51.6733 L1348.75 51.6733 Q1349.23 59.3701 1353.37 63.421 Q1357.54 67.4314 1364.95 67.4314 Q1369.24 67.4314 1373.26 66.3781 Q1377.31 65.3249 1381.28 63.2184 L1381.28 70.267 Q1377.27 71.9684 1373.05 72.8596 Q1368.84 73.7508 1364.51 73.7508 Q1353.65 73.7508 1347.29 67.4314 Q1340.97 61.1119 1340.97 50.3365 Q1340.97 39.1965 1346.96 32.6746 Q1353 26.1121 1363.21 26.1121 Q1372.36 26.1121 1377.67 32.0264 Q1383.02 37.9003 1383.02 48.0275 M1375.56 45.84 Q1375.48 39.7232 1372.12 36.0774 Q1368.8 32.4315 1363.29 32.4315 Q1357.05 32.4315 1353.28 35.9558 Q1349.56 39.4801 1348.99 45.8805 L1375.56 45.84 Z" fill="#000000" fill-rule="nonzero" fill-opacity="1" /><path clip-path="url(#clip700)" d="M1425.11 49.3643 Q1425.11 41.2625 1421.74 36.8065 Q1418.42 32.3505 1412.39 32.3505 Q1406.39 32.3505 1403.03 36.8065 Q1399.71 41.2625 1399.71 49.3643 Q1399.71 57.4256 1403.03 61.8816 Q1406.39 66.3376 1412.39 66.3376 Q1418.42 66.3376 1421.74 61.8816 Q1425.11 57.4256 1425.11 49.3643 M1432.56 66.9452 Q1432.56 78.5308 1427.42 84.1616 Q1422.27 89.8329 1411.66 89.8329 Q1407.73 89.8329 1404.24 89.2252 Q1400.76 88.6581 1397.48 87.4428 L1397.48 80.1917 Q1400.76 81.9741 1403.96 82.8248 Q1407.16 83.6755 1410.48 83.6755 Q1417.82 83.6755 1421.46 79.8271 Q1425.11 76.0193 1425.11 68.282 L1425.11 64.5957 Q1422.8 68.6061 1419.19 70.5911 Q1415.59 72.576 1410.56 72.576 Q1402.22 72.576 1397.11 66.2161 Q1392.01 59.8562 1392.01 49.3643 Q1392.01 38.832 1397.11 32.472 Q1402.22 26.1121 1410.56 26.1121 Q1415.59 26.1121 1419.19 28.0971 Q1422.8 30.082 1425.11 34.0924 L1425.11 27.2059 L1432.56 27.2059 L1432.56 66.9452 Z" fill="#000000" fill-rule="nonzero" fill-opacity="1" /><path clip-path="url(#clip700)" d="M1474.2 34.1734 Q1472.95 33.4443 1471.45 33.1202 Q1469.99 32.7556 1468.21 32.7556 Q1461.89 32.7556 1458.49 36.8875 Q1455.12 40.9789 1455.12 48.6757 L1455.12 72.576 L1447.63 72.576 L1447.63 27.2059 L1455.12 27.2059 L1455.12 34.2544 Q1457.47 30.1225 1461.24 28.1376 Q1465.01 26.1121 1470.4 26.1121 Q1471.17 26.1121 1472.1 26.2337 Q1473.03 26.3147 1474.16 26.5172 L1474.2 34.1734 Z" fill="#000000" fill-rule="nonzero" fill-opacity="1" /><path clip-path="url(#clip700)" d="M1519.01 48.0275 L1519.01 51.6733 L1484.74 51.6733 Q1485.22 59.3701 1489.35 63.421 Q1493.53 67.4314 1500.94 67.4314 Q1505.23 67.4314 1509.24 66.3781 Q1513.29 65.3249 1517.26 63.2184 L1517.26 70.267 Q1513.25 71.9684 1509.04 72.8596 Q1504.83 73.7508 1500.49 73.7508 Q1489.64 73.7508 1483.28 67.4314 Q1476.96 61.1119 1476.96 50.3365 Q1476.96 39.1965 1482.95 32.6746 Q1488.99 26.1121 1499.2 26.1121 Q1508.35 26.1121 1513.66 32.0264 Q1519.01 37.9003 1519.01 48.0275 M1511.55 45.84 Q1511.47 39.7232 1508.11 36.0774 Q1504.79 32.4315 1499.28 32.4315 Q1493.04 32.4315 1489.27 35.9558 Q1485.55 39.4801 1484.98 45.8805 L1511.55 45.84 Z" fill="#000000" fill-rule="nonzero" fill-opacity="1" /><path clip-path="url(#clip700)" d="M1570.05 48.0275 L1570.05 51.6733 L1535.78 51.6733 Q1536.26 59.3701 1540.4 63.421 Q1544.57 67.4314 1551.98 67.4314 Q1556.27 67.4314 1560.29 66.3781 Q1564.34 65.3249 1568.31 63.2184 L1568.31 70.267 Q1564.3 71.9684 1560.08 72.8596 Q1555.87 73.7508 1551.54 73.7508 Q1540.68 73.7508 1534.32 67.4314 Q1528 61.1119 1528 50.3365 Q1528 39.1965 1533.99 32.6746 Q1540.03 26.1121 1550.24 26.1121 Q1559.39 26.1121 1564.7 32.0264 Q1570.05 37.9003 1570.05 48.0275 M1562.59 45.84 Q1562.51 39.7232 1559.15 36.0774 Q1555.83 32.4315 1550.32 32.4315 Q1544.08 32.4315 1540.31 35.9558 Q1536.59 39.4801 1536.02 45.8805 L1562.59 45.84 Z" fill="#000000" fill-rule="nonzero" fill-opacity="1" /><path clip-path="url(#clip700)" d="M1611.21 28.5427 L1611.21 35.5912 Q1608.05 33.9709 1604.64 33.1607 Q1601.24 32.3505 1597.59 32.3505 Q1592.04 32.3505 1589.25 34.0519 Q1586.49 35.7533 1586.49 39.156 Q1586.49 41.7486 1588.48 43.2475 Q1590.46 44.7058 1596.46 46.0426 L1599.01 46.6097 Q1606.95 48.3111 1610.27 51.4303 Q1613.64 54.509 1613.64 60.0587 Q1613.64 66.3781 1608.61 70.0644 Q1603.63 73.7508 1594.88 73.7508 Q1591.23 73.7508 1587.26 73.0216 Q1583.33 72.3329 1578.96 70.9151 L1578.96 63.2184 Q1583.09 65.3654 1587.1 66.4591 Q1591.11 67.5124 1595.04 67.5124 Q1600.31 67.5124 1603.14 65.73 Q1605.98 63.9071 1605.98 60.6258 Q1605.98 57.5877 1603.91 55.9673 Q1601.89 54.3469 1594.96 52.8481 L1592.37 52.2405 Q1585.44 50.7821 1582.36 47.7845 Q1579.28 44.7463 1579.28 39.4801 Q1579.28 33.0797 1583.82 29.5959 Q1588.36 26.1121 1596.7 26.1121 Q1600.83 26.1121 1604.48 26.7198 Q1608.13 27.3274 1611.21 28.5427 Z" fill="#000000" fill-rule="nonzero" fill-opacity="1" /><path clip-path="url(#clip700)" d="M1651.19 9.54393 L1668.36 9.54393 L1668.36 15.3367 L1658.64 15.3367 L1658.64 77.7206 L1668.36 77.7206 L1668.36 83.5134 L1651.19 83.5134 L1651.19 9.54393 Z" fill="#000000" fill-rule="nonzero" fill-opacity="1" /><path clip-path="url(#clip700)" d="M1686.71 65.6895 L1700.08 65.6895 L1700.08 19.5497 L1685.54 22.4663 L1685.54 15.0127 L1700 12.096 L1708.18 12.096 L1708.18 65.6895 L1721.55 65.6895 L1721.55 72.576 L1686.71 72.576 L1686.71 65.6895 Z" fill="#000000" fill-rule="nonzero" fill-opacity="1" /><path clip-path="url(#clip700)" d="M1755.58 17.4837 Q1749.26 17.4837 1746.06 23.7221 Q1742.9 29.92 1742.9 42.3968 Q1742.9 54.833 1746.06 61.0714 Q1749.26 67.2693 1755.58 67.2693 Q1761.94 67.2693 1765.1 61.0714 Q1768.3 54.833 1768.3 42.3968 Q1768.3 29.92 1765.1 23.7221 Q1761.94 17.4837 1755.58 17.4837 M1755.58 11.0023 Q1765.75 11.0023 1771.09 19.0636 Q1776.48 27.0843 1776.48 42.3968 Q1776.48 57.6687 1771.09 65.73 Q1765.75 73.7508 1755.58 73.7508 Q1745.41 73.7508 1740.02 65.73 Q1734.68 57.6687 1734.68 42.3968 Q1734.68 27.0843 1740.02 19.0636 Q1745.41 11.0023 1755.58 11.0023 Z" fill="#000000" fill-rule="nonzero" fill-opacity="1" /><path clip-path="url(#clip700)" d="M1808.36 17.4837 Q1802.04 17.4837 1798.84 23.7221 Q1795.68 29.92 1795.68 42.3968 Q1795.68 54.833 1798.84 61.0714 Q1802.04 67.2693 1808.36 67.2693 Q1814.72 67.2693 1817.88 61.0714 Q1821.08 54.833 1821.08 42.3968 Q1821.08 29.92 1817.88 23.7221 Q1814.72 17.4837 1808.36 17.4837 M1808.36 11.0023 Q1818.53 11.0023 1823.88 19.0636 Q1829.27 27.0843 1829.27 42.3968 Q1829.27 57.6687 1823.88 65.73 Q1818.53 73.7508 1808.36 73.7508 Q1798.19 73.7508 1792.81 65.73 Q1787.46 57.6687 1787.46 42.3968 Q1787.46 27.0843 1792.81 19.0636 Q1798.19 11.0023 1808.36 11.0023 Z" fill="#000000" fill-rule="nonzero" fill-opacity="1" /><path clip-path="url(#clip700)" d="M1861.15 17.4837 Q1854.83 17.4837 1851.63 23.7221 Q1848.47 29.92 1848.47 42.3968 Q1848.47 54.833 1851.63 61.0714 Q1854.83 67.2693 1861.15 67.2693 Q1867.51 67.2693 1870.67 61.0714 Q1873.87 54.833 1873.87 42.3968 Q1873.87 29.92 1870.67 23.7221 Q1867.51 17.4837 1861.15 17.4837 M1861.15 11.0023 Q1871.31 11.0023 1876.66 19.0636 Q1882.05 27.0843 1882.05 42.3968 Q1882.05 57.6687 1876.66 65.73 Q1871.31 73.7508 1861.15 73.7508 Q1850.98 73.7508 1845.59 65.73 Q1840.24 57.6687 1840.24 42.3968 Q1840.24 27.0843 1845.59 19.0636 Q1850.98 11.0023 1861.15 11.0023 Z" fill="#000000" fill-rule="nonzero" fill-opacity="1" /><path clip-path="url(#clip700)" d="M1897.28 62.2867 L1905.83 62.2867 L1905.83 72.576 L1897.28 72.576 L1897.28 62.2867 M1897.28 29.6769 L1905.83 29.6769 L1905.83 39.9662 L1897.28 39.9662 L1897.28 29.6769 Z" fill="#000000" fill-rule="nonzero" fill-opacity="1" /><path clip-path="url(#clip700)" d="M1924.46 12.096 L1956.59 12.096 L1956.59 18.9825 L1931.96 18.9825 L1931.96 33.8088 Q1933.74 33.2012 1935.52 32.9176 Q1937.3 32.5936 1939.09 32.5936 Q1949.21 32.5936 1955.13 38.1433 Q1961.04 43.6931 1961.04 53.1722 Q1961.04 62.9348 1954.96 68.3631 Q1948.89 73.7508 1937.83 73.7508 Q1934.02 73.7508 1930.05 73.1026 Q1926.12 72.4545 1921.91 71.1582 L1921.91 62.9348 Q1925.56 64.9198 1929.44 65.892 Q1933.33 66.8642 1937.67 66.8642 Q1944.68 66.8642 1948.77 63.1779 Q1952.86 59.4916 1952.86 53.1722 Q1952.86 46.8528 1948.77 43.1664 Q1944.68 39.4801 1937.67 39.4801 Q1934.39 39.4801 1931.11 40.2093 Q1927.86 40.9384 1924.46 42.4778 L1924.46 12.096 Z" fill="#000000" fill-rule="nonzero" fill-opacity="1" /><path clip-path="url(#clip700)" d="M1994.66 17.4837 Q1988.34 17.4837 1985.14 23.7221 Q1981.98 29.92 1981.98 42.3968 Q1981.98 54.833 1985.14 61.0714 Q1988.34 67.2693 1994.66 67.2693 Q2001.02 67.2693 2004.18 61.0714 Q2007.38 54.833 2007.38 42.3968 Q2007.38 29.92 2004.18 23.7221 Q2001.02 17.4837 1994.66 17.4837 M1994.66 11.0023 Q2004.83 11.0023 2010.18 19.0636 Q2015.57 27.0843 2015.57 42.3968 Q2015.57 57.6687 2010.18 65.73 Q2004.83 73.7508 1994.66 73.7508 Q1984.5 73.7508 1979.11 65.73 Q1973.76 57.6687 1973.76 42.3968 Q1973.76 27.0843 1979.11 19.0636 Q1984.5 11.0023 1994.66 11.0023 Z" fill="#000000" fill-rule="nonzero" fill-opacity="1" /><path clip-path="url(#clip700)" d="M2047.45 17.4837 Q2041.13 17.4837 2037.93 23.7221 Q2034.77 29.92 2034.77 42.3968 Q2034.77 54.833 2037.93 61.0714 Q2041.13 67.2693 2047.45 67.2693 Q2053.81 67.2693 2056.97 61.0714 Q2060.17 54.833 2060.17 42.3968 Q2060.17 29.92 2056.97 23.7221 Q2053.81 17.4837 2047.45 17.4837 M2047.45 11.0023 Q2057.61 11.0023 2062.96 19.0636 Q2068.35 27.0843 2068.35 42.3968 Q2068.35 57.6687 2062.96 65.73 Q2057.61 73.7508 2047.45 73.7508 Q2037.28 73.7508 2031.89 65.73 Q2026.54 57.6687 2026.54 42.3968 Q2026.54 27.0843 2031.89 19.0636 Q2037.28 11.0023 2047.45 11.0023 Z" fill="#000000" fill-rule="nonzero" fill-opacity="1" /><path clip-path="url(#clip700)" d="M2100.23 17.4837 Q2093.91 17.4837 2090.71 23.7221 Q2087.55 29.92 2087.55 42.3968 Q2087.55 54.833 2090.71 61.0714 Q2093.91 67.2693 2100.23 67.2693 Q2106.59 67.2693 2109.75 61.0714 Q2112.95 54.833 2112.95 42.3968 Q2112.95 29.92 2109.75 23.7221 Q2106.59 17.4837 2100.23 17.4837 M2100.23 11.0023 Q2110.4 11.0023 2115.75 19.0636 Q2121.13 27.0843 2121.13 42.3968 Q2121.13 57.6687 2115.75 65.73 Q2110.4 73.7508 2100.23 73.7508 Q2090.06 73.7508 2084.67 65.73 Q2079.33 57.6687 2079.33 42.3968 Q2079.33 27.0843 2084.67 19.0636 Q2090.06 11.0023 2100.23 11.0023 Z" fill="#000000" fill-rule="nonzero" fill-opacity="1" /><path clip-path="url(#clip700)" d="M2153.01 17.4837 Q2146.69 17.4837 2143.49 23.7221 Q2140.33 29.92 2140.33 42.3968 Q2140.33 54.833 2143.49 61.0714 Q2146.69 67.2693 2153.01 67.2693 Q2159.37 67.2693 2162.53 61.0714 Q2165.73 54.833 2165.73 42.3968 Q2165.73 29.92 2162.53 23.7221 Q2159.37 17.4837 2153.01 17.4837 M2153.01 11.0023 Q2163.18 11.0023 2168.53 19.0636 Q2173.92 27.0843 2173.92 42.3968 Q2173.92 57.6687 2168.53 65.73 Q2163.18 73.7508 2153.01 73.7508 Q2142.85 73.7508 2137.46 65.73 Q2132.11 57.6687 2132.11 42.3968 Q2132.11 27.0843 2137.46 19.0636 Q2142.85 11.0023 2153.01 11.0023 Z" fill="#000000" fill-rule="nonzero" fill-opacity="1" /><path clip-path="url(#clip700)" d="M2204.66 9.54393 L2204.66 83.5134 L2187.49 83.5134 L2187.49 77.7206 L2197.17 77.7206 L2197.17 15.3367 L2187.49 15.3367 L2187.49 9.54393 L2204.66 9.54393 Z" fill="#000000" fill-rule="nonzero" fill-opacity="1" /><polyline clip-path="url(#clip702)" style="stroke:#000000; stroke-linecap:round; stroke-linejoin:round; stroke-width:4; stroke-opacity:1; fill:none" points="323.395,1215.27 365.315,1215.27 "/>
<polyline clip-path="url(#clip702)" style="stroke:#000000; stroke-linecap:round; stroke-linejoin:round; stroke-width:4; stroke-opacity:1; fill:none" points="365.315,1091.61 407.235,1091.61 "/>
<polyline clip-path="url(#clip702)" style="stroke:#000000; stroke-linecap:round; stroke-linejoin:round; stroke-width:4; stroke-opacity:1; fill:none" points="407.235,950.607 449.156,950.607 "/>
<polyline clip-path="url(#clip702)" style="stroke:#000000; stroke-linecap:round; stroke-linejoin:round; stroke-width:4; stroke-opacity:1; fill:none" points="449.156,706.018 491.076,706.018 "/>
<polyline clip-path="url(#clip702)" style="stroke:#000000; stroke-linecap:round; stroke-linejoin:round; stroke-width:4; stroke-opacity:1; fill:none" points="491.076,674.988 532.996,674.988 "/>
<polyline clip-path="url(#clip702)" style="stroke:#000000; stroke-linecap:round; stroke-linejoin:round; stroke-width:4; stroke-opacity:1; fill:none" points="532.996,518.926 574.917,518.926 "/>
<polyline clip-path="url(#clip702)" style="stroke:#000000; stroke-linecap:round; stroke-linejoin:round; stroke-width:4; stroke-opacity:1; fill:none" points="574.917,713.776 616.837,713.776 "/>
<polyline clip-path="url(#clip702)" style="stroke:#000000; stroke-linecap:round; stroke-linejoin:round; stroke-width:4; stroke-opacity:1; fill:none" points="616.837,417.622 658.757,417.622 "/>
<polyline clip-path="url(#clip702)" style="stroke:#000000; stroke-linecap:round; stroke-linejoin:round; stroke-width:4; stroke-opacity:1; fill:none" points="658.757,657.648 700.677,657.648 "/>
<polyline clip-path="url(#clip702)" style="stroke:#000000; stroke-linecap:round; stroke-linejoin:round; stroke-width:4; stroke-opacity:1; fill:none" points="700.677,840.177 742.598,840.177 "/>
<polyline clip-path="url(#clip702)" style="stroke:#000000; stroke-linecap:round; stroke-linejoin:round; stroke-width:4; stroke-opacity:1; fill:none" points="742.598,206.345 784.518,206.345 "/>
<polyline clip-path="url(#clip702)" style="stroke:#000000; stroke-linecap:round; stroke-linejoin:round; stroke-width:4; stroke-opacity:1; fill:none" points="784.518,160.256 826.438,160.256 "/>
<polyline clip-path="url(#clip702)" style="stroke:#000000; stroke-linecap:round; stroke-linejoin:round; stroke-width:4; stroke-opacity:1; fill:none" points="826.438,182.16 868.359,182.16 "/>
<polyline clip-path="url(#clip702)" style="stroke:#000000; stroke-linecap:round; stroke-linejoin:round; stroke-width:4; stroke-opacity:1; fill:none" points="868.359,451.847 910.279,451.847 "/>
<polyline clip-path="url(#clip702)" style="stroke:#000000; stroke-linecap:round; stroke-linejoin:round; stroke-width:4; stroke-opacity:1; fill:none" points="910.279,891.285 952.199,891.285 "/>
<polyline clip-path="url(#clip702)" style="stroke:#000000; stroke-linecap:round; stroke-linejoin:round; stroke-width:4; stroke-opacity:1; fill:none" points="952.199,862.537 994.119,862.537 "/>
<polyline clip-path="url(#clip702)" style="stroke:#000000; stroke-linecap:round; stroke-linejoin:round; stroke-width:4; stroke-opacity:1; fill:none" points="994.119,913.189 1036.04,913.189 "/>
<polyline clip-path="url(#clip702)" style="stroke:#000000; stroke-linecap:round; stroke-linejoin:round; stroke-width:4; stroke-opacity:1; fill:none" points="1036.04,438.157 1077.96,438.157 "/>
<polyline clip-path="url(#clip702)" style="stroke:#000000; stroke-linecap:round; stroke-linejoin:round; stroke-width:4; stroke-opacity:1; fill:none" points="1077.96,771.729 1119.88,771.729 "/>
<polyline clip-path="url(#clip702)" style="stroke:#000000; stroke-linecap:round; stroke-linejoin:round; stroke-width:4; stroke-opacity:1; fill:none" points="1119.88,582.811 1161.8,582.811 "/>
<polyline clip-path="url(#clip702)" style="stroke:#000000; stroke-linecap:round; stroke-linejoin:round; stroke-width:4; stroke-opacity:1; fill:none" points="1161.8,551.325 1203.72,551.325 "/>
<polyline clip-path="url(#clip702)" style="stroke:#000000; stroke-linecap:round; stroke-linejoin:round; stroke-width:4; stroke-opacity:1; fill:none" points="1203.72,645.327 1245.64,645.327 "/>
<polyline clip-path="url(#clip702)" style="stroke:#000000; stroke-linecap:round; stroke-linejoin:round; stroke-width:4; stroke-opacity:1; fill:none" points="1245.64,364.233 1287.56,364.233 "/>
<polyline clip-path="url(#clip702)" style="stroke:#000000; stroke-linecap:round; stroke-linejoin:round; stroke-width:4; stroke-opacity:1; fill:none" points="1287.56,1195.65 1329.48,1195.65 "/>
<polyline clip-path="url(#clip702)" style="stroke:#000000; stroke-linecap:round; stroke-linejoin:round; stroke-width:4; stroke-opacity:1; fill:none" points="1329.48,651.716 1371.4,651.716 "/>
<polyline clip-path="url(#clip702)" style="stroke:#000000; stroke-linecap:round; stroke-linejoin:round; stroke-width:4; stroke-opacity:1; fill:none" points="1371.4,886.722 1413.32,886.722 "/>
<polyline clip-path="url(#clip702)" style="stroke:#000000; stroke-linecap:round; stroke-linejoin:round; stroke-width:4; stroke-opacity:1; fill:none" points="1413.32,1128.12 1455.24,1128.12 "/>
<polyline clip-path="url(#clip702)" style="stroke:#000000; stroke-linecap:round; stroke-linejoin:round; stroke-width:4; stroke-opacity:1; fill:none" points="1455.24,1280.99 1497.16,1280.99 "/>
<polyline clip-path="url(#clip702)" style="stroke:#000000; stroke-linecap:round; stroke-linejoin:round; stroke-width:4; stroke-opacity:1; fill:none" points="1497.16,1371.34 1539.08,1371.34 "/>
<polyline clip-path="url(#clip702)" style="stroke:#000000; stroke-linecap:round; stroke-linejoin:round; stroke-width:4; stroke-opacity:1; fill:none" points="1539.08,841.546 1581,841.546 "/>
<polyline clip-path="url(#clip702)" style="stroke:#000000; stroke-linecap:round; stroke-linejoin:round; stroke-width:4; stroke-opacity:1; fill:none" points="1581,201.325 1622.92,201.325 "/>
<polyline clip-path="url(#clip702)" style="stroke:#000000; stroke-linecap:round; stroke-linejoin:round; stroke-width:4; stroke-opacity:1; fill:none" points="1622.92,1082.94 1664.84,1082.94 "/>
<polyline clip-path="url(#clip702)" style="stroke:#000000; stroke-linecap:round; stroke-linejoin:round; stroke-width:4; stroke-opacity:1; fill:none" points="1664.84,1029.55 1706.76,1029.55 "/>
<polyline clip-path="url(#clip702)" style="stroke:#000000; stroke-linecap:round; stroke-linejoin:round; stroke-width:4; stroke-opacity:1; fill:none" points="1706.76,1369.97 1748.68,1369.97 "/>
<polyline clip-path="url(#clip702)" style="stroke:#000000; stroke-linecap:round; stroke-linejoin:round; stroke-width:4; stroke-opacity:1; fill:none" points="1748.68,1352.17 1790.6,1352.17 "/>
<polyline clip-path="url(#clip702)" style="stroke:#000000; stroke-linecap:round; stroke-linejoin:round; stroke-width:4; stroke-opacity:1; fill:none" points="1790.6,1377.73 1832.53,1377.73 "/>
<polyline clip-path="url(#clip702)" style="stroke:#000000; stroke-linecap:round; stroke-linejoin:round; stroke-width:4; stroke-opacity:1; fill:none" points="1832.53,1009.47 1874.45,1009.47 "/>
<polyline clip-path="url(#clip702)" style="stroke:#000000; stroke-linecap:round; stroke-linejoin:round; stroke-width:4; stroke-opacity:1; fill:none" points="1874.45,1376.36 1916.37,1376.36 "/>
<polyline clip-path="url(#clip702)" style="stroke:#000000; stroke-linecap:round; stroke-linejoin:round; stroke-width:4; stroke-opacity:1; fill:none" points="1916.37,1385.48 1958.29,1385.48 "/>
<polyline clip-path="url(#clip702)" style="stroke:#000000; stroke-linecap:round; stroke-linejoin:round; stroke-width:4; stroke-opacity:1; fill:none" points="1958.29,1383.66 2000.21,1383.66 "/>
<polyline clip-path="url(#clip702)" style="stroke:#000000; stroke-linecap:round; stroke-linejoin:round; stroke-width:4; stroke-opacity:1; fill:none" points="2000.21,1380.92 2042.13,1380.92 "/>
<polyline clip-path="url(#clip702)" style="stroke:#000000; stroke-linecap:round; stroke-linejoin:round; stroke-width:4; stroke-opacity:1; fill:none" points="2042.13,1384.57 2084.05,1384.57 "/>
<polyline clip-path="url(#clip702)" style="stroke:#000000; stroke-linecap:round; stroke-linejoin:round; stroke-width:4; stroke-opacity:1; fill:none" points="2084.05,1383.2 2125.97,1383.2 "/>
<polyline clip-path="url(#clip702)" style="stroke:#000000; stroke-linecap:round; stroke-linejoin:round; stroke-width:4; stroke-opacity:1; fill:none" points="2125.97,1386.4 2167.89,1386.4 "/>
<polyline clip-path="url(#clip702)" style="stroke:#000000; stroke-linecap:round; stroke-linejoin:round; stroke-width:4; stroke-opacity:1; fill:none" points="2167.89,1383.2 2209.81,1383.2 "/>
<polyline clip-path="url(#clip702)" style="stroke:#000000; stroke-linecap:round; stroke-linejoin:round; stroke-width:4; stroke-opacity:1; fill:none" points="2209.81,1382.29 2251.73,1382.29 "/>
<polyline clip-path="url(#clip702)" style="stroke:#000000; stroke-linecap:round; stroke-linejoin:round; stroke-width:4; stroke-opacity:1; fill:none" points="2251.73,1088.87 2293.65,1088.87 "/>
<line clip-path="url(#clip702)" x1="323.395" y1="1231.27" x2="323.395" y2="1199.27" style="stroke:#000000; stroke-width:3.2; stroke-opacity:1"/>
<line clip-path="url(#clip702)" x1="365.315" y1="1231.27" x2="365.315" y2="1199.27" style="stroke:#000000; stroke-width:3.2; stroke-opacity:1"/>
<line clip-path="url(#clip702)" x1="365.315" y1="1107.61" x2="365.315" y2="1075.61" style="stroke:#000000; stroke-width:3.2; stroke-opacity:1"/>
<line clip-path="url(#clip702)" x1="407.235" y1="1107.61" x2="407.235" y2="1075.61" style="stroke:#000000; stroke-width:3.2; stroke-opacity:1"/>
<line clip-path="url(#clip702)" x1="407.235" y1="966.607" x2="407.235" y2="934.607" style="stroke:#000000; stroke-width:3.2; stroke-opacity:1"/>
<line clip-path="url(#clip702)" x1="449.156" y1="966.607" x2="449.156" y2="934.607" style="stroke:#000000; stroke-width:3.2; stroke-opacity:1"/>
<line clip-path="url(#clip702)" x1="449.156" y1="722.018" x2="449.156" y2="690.018" style="stroke:#000000; stroke-width:3.2; stroke-opacity:1"/>
<line clip-path="url(#clip702)" x1="491.076" y1="722.018" x2="491.076" y2="690.018" style="stroke:#000000; stroke-width:3.2; stroke-opacity:1"/>
<line clip-path="url(#clip702)" x1="491.076" y1="690.988" x2="491.076" y2="658.988" style="stroke:#000000; stroke-width:3.2; stroke-opacity:1"/>
<line clip-path="url(#clip702)" x1="532.996" y1="690.988" x2="532.996" y2="658.988" style="stroke:#000000; stroke-width:3.2; stroke-opacity:1"/>
<line clip-path="url(#clip702)" x1="532.996" y1="534.926" x2="532.996" y2="502.926" style="stroke:#000000; stroke-width:3.2; stroke-opacity:1"/>
<line clip-path="url(#clip702)" x1="574.917" y1="534.926" x2="574.917" y2="502.926" style="stroke:#000000; stroke-width:3.2; stroke-opacity:1"/>
<line clip-path="url(#clip702)" x1="574.917" y1="729.776" x2="574.917" y2="697.776" style="stroke:#000000; stroke-width:3.2; stroke-opacity:1"/>
<line clip-path="url(#clip702)" x1="616.837" y1="729.776" x2="616.837" y2="697.776" style="stroke:#000000; stroke-width:3.2; stroke-opacity:1"/>
<line clip-path="url(#clip702)" x1="616.837" y1="433.622" x2="616.837" y2="401.622" style="stroke:#000000; stroke-width:3.2; stroke-opacity:1"/>
<line clip-path="url(#clip702)" x1="658.757" y1="433.622" x2="658.757" y2="401.622" style="stroke:#000000; stroke-width:3.2; stroke-opacity:1"/>
<line clip-path="url(#clip702)" x1="658.757" y1="673.648" x2="658.757" y2="641.648" style="stroke:#000000; stroke-width:3.2; stroke-opacity:1"/>
<line clip-path="url(#clip702)" x1="700.677" y1="673.648" x2="700.677" y2="641.648" style="stroke:#000000; stroke-width:3.2; stroke-opacity:1"/>
<line clip-path="url(#clip702)" x1="700.677" y1="856.177" x2="700.677" y2="824.177" style="stroke:#000000; stroke-width:3.2; stroke-opacity:1"/>
<line clip-path="url(#clip702)" x1="742.598" y1="856.177" x2="742.598" y2="824.177" style="stroke:#000000; stroke-width:3.2; stroke-opacity:1"/>
<line clip-path="url(#clip702)" x1="742.598" y1="222.345" x2="742.598" y2="190.345" style="stroke:#000000; stroke-width:3.2; stroke-opacity:1"/>
<line clip-path="url(#clip702)" x1="784.518" y1="222.345" x2="784.518" y2="190.345" style="stroke:#000000; stroke-width:3.2; stroke-opacity:1"/>
<line clip-path="url(#clip702)" x1="784.518" y1="176.256" x2="784.518" y2="144.256" style="stroke:#000000; stroke-width:3.2; stroke-opacity:1"/>
<line clip-path="url(#clip702)" x1="826.438" y1="176.256" x2="826.438" y2="144.256" style="stroke:#000000; stroke-width:3.2; stroke-opacity:1"/>
<line clip-path="url(#clip702)" x1="826.438" y1="198.16" x2="826.438" y2="166.16" style="stroke:#000000; stroke-width:3.2; stroke-opacity:1"/>
<line clip-path="url(#clip702)" x1="868.359" y1="198.16" x2="868.359" y2="166.16" style="stroke:#000000; stroke-width:3.2; stroke-opacity:1"/>
<line clip-path="url(#clip702)" x1="868.359" y1="467.847" x2="868.359" y2="435.847" style="stroke:#000000; stroke-width:3.2; stroke-opacity:1"/>
<line clip-path="url(#clip702)" x1="910.279" y1="467.847" x2="910.279" y2="435.847" style="stroke:#000000; stroke-width:3.2; stroke-opacity:1"/>
<line clip-path="url(#clip702)" x1="910.279" y1="907.285" x2="910.279" y2="875.285" style="stroke:#000000; stroke-width:3.2; stroke-opacity:1"/>
<line clip-path="url(#clip702)" x1="952.199" y1="907.285" x2="952.199" y2="875.285" style="stroke:#000000; stroke-width:3.2; stroke-opacity:1"/>
<line clip-path="url(#clip702)" x1="952.199" y1="878.537" x2="952.199" y2="846.537" style="stroke:#000000; stroke-width:3.2; stroke-opacity:1"/>
<line clip-path="url(#clip702)" x1="994.119" y1="878.537" x2="994.119" y2="846.537" style="stroke:#000000; stroke-width:3.2; stroke-opacity:1"/>
<line clip-path="url(#clip702)" x1="994.119" y1="929.189" x2="994.119" y2="897.189" style="stroke:#000000; stroke-width:3.2; stroke-opacity:1"/>
<line clip-path="url(#clip702)" x1="1036.04" y1="929.189" x2="1036.04" y2="897.189" style="stroke:#000000; stroke-width:3.2; stroke-opacity:1"/>
<line clip-path="url(#clip702)" x1="1036.04" y1="454.157" x2="1036.04" y2="422.157" style="stroke:#000000; stroke-width:3.2; stroke-opacity:1"/>
<line clip-path="url(#clip702)" x1="1077.96" y1="454.157" x2="1077.96" y2="422.157" style="stroke:#000000; stroke-width:3.2; stroke-opacity:1"/>
<line clip-path="url(#clip702)" x1="1077.96" y1="787.729" x2="1077.96" y2="755.729" style="stroke:#000000; stroke-width:3.2; stroke-opacity:1"/>
<line clip-path="url(#clip702)" x1="1119.88" y1="787.729" x2="1119.88" y2="755.729" style="stroke:#000000; stroke-width:3.2; stroke-opacity:1"/>
<line clip-path="url(#clip702)" x1="1119.88" y1="598.811" x2="1119.88" y2="566.811" style="stroke:#000000; stroke-width:3.2; stroke-opacity:1"/>
<line clip-path="url(#clip702)" x1="1161.8" y1="598.811" x2="1161.8" y2="566.811" style="stroke:#000000; stroke-width:3.2; stroke-opacity:1"/>
<line clip-path="url(#clip702)" x1="1161.8" y1="567.325" x2="1161.8" y2="535.325" style="stroke:#000000; stroke-width:3.2; stroke-opacity:1"/>
<line clip-path="url(#clip702)" x1="1203.72" y1="567.325" x2="1203.72" y2="535.325" style="stroke:#000000; stroke-width:3.2; stroke-opacity:1"/>
<line clip-path="url(#clip702)" x1="1203.72" y1="661.327" x2="1203.72" y2="629.327" style="stroke:#000000; stroke-width:3.2; stroke-opacity:1"/>
<line clip-path="url(#clip702)" x1="1245.64" y1="661.327" x2="1245.64" y2="629.327" style="stroke:#000000; stroke-width:3.2; stroke-opacity:1"/>
<line clip-path="url(#clip702)" x1="1245.64" y1="380.233" x2="1245.64" y2="348.233" style="stroke:#000000; stroke-width:3.2; stroke-opacity:1"/>
<line clip-path="url(#clip702)" x1="1287.56" y1="380.233" x2="1287.56" y2="348.233" style="stroke:#000000; stroke-width:3.2; stroke-opacity:1"/>
<line clip-path="url(#clip702)" x1="1287.56" y1="1211.65" x2="1287.56" y2="1179.65" style="stroke:#000000; stroke-width:3.2; stroke-opacity:1"/>
<line clip-path="url(#clip702)" x1="1329.48" y1="1211.65" x2="1329.48" y2="1179.65" style="stroke:#000000; stroke-width:3.2; stroke-opacity:1"/>
<line clip-path="url(#clip702)" x1="1329.48" y1="667.716" x2="1329.48" y2="635.716" style="stroke:#000000; stroke-width:3.2; stroke-opacity:1"/>
<line clip-path="url(#clip702)" x1="1371.4" y1="667.716" x2="1371.4" y2="635.716" style="stroke:#000000; stroke-width:3.2; stroke-opacity:1"/>
<line clip-path="url(#clip702)" x1="1371.4" y1="902.722" x2="1371.4" y2="870.722" style="stroke:#000000; stroke-width:3.2; stroke-opacity:1"/>
<line clip-path="url(#clip702)" x1="1413.32" y1="902.722" x2="1413.32" y2="870.722" style="stroke:#000000; stroke-width:3.2; stroke-opacity:1"/>
<line clip-path="url(#clip702)" x1="1413.32" y1="1144.12" x2="1413.32" y2="1112.12" style="stroke:#000000; stroke-width:3.2; stroke-opacity:1"/>
<line clip-path="url(#clip702)" x1="1455.24" y1="1144.12" x2="1455.24" y2="1112.12" style="stroke:#000000; stroke-width:3.2; stroke-opacity:1"/>
<line clip-path="url(#clip702)" x1="1455.24" y1="1296.99" x2="1455.24" y2="1264.99" style="stroke:#000000; stroke-width:3.2; stroke-opacity:1"/>
<line clip-path="url(#clip702)" x1="1497.16" y1="1296.99" x2="1497.16" y2="1264.99" style="stroke:#000000; stroke-width:3.2; stroke-opacity:1"/>
<line clip-path="url(#clip702)" x1="1497.16" y1="1387.34" x2="1497.16" y2="1355.34" style="stroke:#000000; stroke-width:3.2; stroke-opacity:1"/>
<line clip-path="url(#clip702)" x1="1539.08" y1="1387.34" x2="1539.08" y2="1355.34" style="stroke:#000000; stroke-width:3.2; stroke-opacity:1"/>
<line clip-path="url(#clip702)" x1="1539.08" y1="857.546" x2="1539.08" y2="825.546" style="stroke:#000000; stroke-width:3.2; stroke-opacity:1"/>
<line clip-path="url(#clip702)" x1="1581" y1="857.546" x2="1581" y2="825.546" style="stroke:#000000; stroke-width:3.2; stroke-opacity:1"/>
<line clip-path="url(#clip702)" x1="1581" y1="217.325" x2="1581" y2="185.325" style="stroke:#000000; stroke-width:3.2; stroke-opacity:1"/>
<line clip-path="url(#clip702)" x1="1622.92" y1="217.325" x2="1622.92" y2="185.325" style="stroke:#000000; stroke-width:3.2; stroke-opacity:1"/>
<line clip-path="url(#clip702)" x1="1622.92" y1="1098.94" x2="1622.92" y2="1066.94" style="stroke:#000000; stroke-width:3.2; stroke-opacity:1"/>
<line clip-path="url(#clip702)" x1="1664.84" y1="1098.94" x2="1664.84" y2="1066.94" style="stroke:#000000; stroke-width:3.2; stroke-opacity:1"/>
<line clip-path="url(#clip702)" x1="1664.84" y1="1045.55" x2="1664.84" y2="1013.55" style="stroke:#000000; stroke-width:3.2; stroke-opacity:1"/>
<line clip-path="url(#clip702)" x1="1706.76" y1="1045.55" x2="1706.76" y2="1013.55" style="stroke:#000000; stroke-width:3.2; stroke-opacity:1"/>
<line clip-path="url(#clip702)" x1="1706.76" y1="1385.97" x2="1706.76" y2="1353.97" style="stroke:#000000; stroke-width:3.2; stroke-opacity:1"/>
<line clip-path="url(#clip702)" x1="1748.68" y1="1385.97" x2="1748.68" y2="1353.97" style="stroke:#000000; stroke-width:3.2; stroke-opacity:1"/>
<line clip-path="url(#clip702)" x1="1748.68" y1="1368.17" x2="1748.68" y2="1336.17" style="stroke:#000000; stroke-width:3.2; stroke-opacity:1"/>
<line clip-path="url(#clip702)" x1="1790.6" y1="1368.17" x2="1790.6" y2="1336.17" style="stroke:#000000; stroke-width:3.2; stroke-opacity:1"/>
<line clip-path="url(#clip702)" x1="1790.6" y1="1393.73" x2="1790.6" y2="1361.73" style="stroke:#000000; stroke-width:3.2; stroke-opacity:1"/>
<line clip-path="url(#clip702)" x1="1832.53" y1="1393.73" x2="1832.53" y2="1361.73" style="stroke:#000000; stroke-width:3.2; stroke-opacity:1"/>
<line clip-path="url(#clip702)" x1="1832.53" y1="1025.47" x2="1832.53" y2="993.473" style="stroke:#000000; stroke-width:3.2; stroke-opacity:1"/>
<line clip-path="url(#clip702)" x1="1874.45" y1="1025.47" x2="1874.45" y2="993.473" style="stroke:#000000; stroke-width:3.2; stroke-opacity:1"/>
<line clip-path="url(#clip702)" x1="1874.45" y1="1392.36" x2="1874.45" y2="1360.36" style="stroke:#000000; stroke-width:3.2; stroke-opacity:1"/>
<line clip-path="url(#clip702)" x1="1916.37" y1="1392.36" x2="1916.37" y2="1360.36" style="stroke:#000000; stroke-width:3.2; stroke-opacity:1"/>
<line clip-path="url(#clip702)" x1="1916.37" y1="1401.48" x2="1916.37" y2="1369.48" style="stroke:#000000; stroke-width:3.2; stroke-opacity:1"/>
<line clip-path="url(#clip702)" x1="1958.29" y1="1401.48" x2="1958.29" y2="1369.48" style="stroke:#000000; stroke-width:3.2; stroke-opacity:1"/>
<line clip-path="url(#clip702)" x1="1958.29" y1="1399.66" x2="1958.29" y2="1367.66" style="stroke:#000000; stroke-width:3.2; stroke-opacity:1"/>
<line clip-path="url(#clip702)" x1="2000.21" y1="1399.66" x2="2000.21" y2="1367.66" style="stroke:#000000; stroke-width:3.2; stroke-opacity:1"/>
<line clip-path="url(#clip702)" x1="2000.21" y1="1396.92" x2="2000.21" y2="1364.92" style="stroke:#000000; stroke-width:3.2; stroke-opacity:1"/>
<line clip-path="url(#clip702)" x1="2042.13" y1="1396.92" x2="2042.13" y2="1364.92" style="stroke:#000000; stroke-width:3.2; stroke-opacity:1"/>
<line clip-path="url(#clip702)" x1="2042.13" y1="1400.57" x2="2042.13" y2="1368.57" style="stroke:#000000; stroke-width:3.2; stroke-opacity:1"/>
<line clip-path="url(#clip702)" x1="2084.05" y1="1400.57" x2="2084.05" y2="1368.57" style="stroke:#000000; stroke-width:3.2; stroke-opacity:1"/>
<line clip-path="url(#clip702)" x1="2084.05" y1="1399.2" x2="2084.05" y2="1367.2" style="stroke:#000000; stroke-width:3.2; stroke-opacity:1"/>
<line clip-path="url(#clip702)" x1="2125.97" y1="1399.2" x2="2125.97" y2="1367.2" style="stroke:#000000; stroke-width:3.2; stroke-opacity:1"/>
<line clip-path="url(#clip702)" x1="2125.97" y1="1402.4" x2="2125.97" y2="1370.4" style="stroke:#000000; stroke-width:3.2; stroke-opacity:1"/>
<line clip-path="url(#clip702)" x1="2167.89" y1="1402.4" x2="2167.89" y2="1370.4" style="stroke:#000000; stroke-width:3.2; stroke-opacity:1"/>
<line clip-path="url(#clip702)" x1="2167.89" y1="1399.2" x2="2167.89" y2="1367.2" style="stroke:#000000; stroke-width:3.2; stroke-opacity:1"/>
<line clip-path="url(#clip702)" x1="2209.81" y1="1399.2" x2="2209.81" y2="1367.2" style="stroke:#000000; stroke-width:3.2; stroke-opacity:1"/>
<line clip-path="url(#clip702)" x1="2209.81" y1="1398.29" x2="2209.81" y2="1366.29" style="stroke:#000000; stroke-width:3.2; stroke-opacity:1"/>
<line clip-path="url(#clip702)" x1="2251.73" y1="1398.29" x2="2251.73" y2="1366.29" style="stroke:#000000; stroke-width:3.2; stroke-opacity:1"/>
<line clip-path="url(#clip702)" x1="2251.73" y1="1104.87" x2="2251.73" y2="1072.87" style="stroke:#000000; stroke-width:3.2; stroke-opacity:1"/>
<line clip-path="url(#clip702)" x1="2293.65" y1="1104.87" x2="2293.65" y2="1072.87" style="stroke:#000000; stroke-width:3.2; stroke-opacity:1"/>
<circle clip-path="url(#clip702)" cx="344.355" cy="1215.27" r="14.4" fill="#009af9" fill-rule="evenodd" fill-opacity="1" stroke="#000000" stroke-opacity="1" stroke-width="3.2"/>
<circle clip-path="url(#clip702)" cx="386.275" cy="1091.61" r="14.4" fill="#009af9" fill-rule="evenodd" fill-opacity="1" stroke="#000000" stroke-opacity="1" stroke-width="3.2"/>
<circle clip-path="url(#clip702)" cx="428.196" cy="950.607" r="14.4" fill="#009af9" fill-rule="evenodd" fill-opacity="1" stroke="#000000" stroke-opacity="1" stroke-width="3.2"/>
<circle clip-path="url(#clip702)" cx="470.116" cy="706.018" r="14.4" fill="#009af9" fill-rule="evenodd" fill-opacity="1" stroke="#000000" stroke-opacity="1" stroke-width="3.2"/>
<circle clip-path="url(#clip702)" cx="512.036" cy="674.988" r="14.4" fill="#009af9" fill-rule="evenodd" fill-opacity="1" stroke="#000000" stroke-opacity="1" stroke-width="3.2"/>
<circle clip-path="url(#clip702)" cx="553.956" cy="518.926" r="14.4" fill="#009af9" fill-rule="evenodd" fill-opacity="1" stroke="#000000" stroke-opacity="1" stroke-width="3.2"/>
<circle clip-path="url(#clip702)" cx="595.877" cy="713.776" r="14.4" fill="#009af9" fill-rule="evenodd" fill-opacity="1" stroke="#000000" stroke-opacity="1" stroke-width="3.2"/>
<circle clip-path="url(#clip702)" cx="637.797" cy="417.622" r="14.4" fill="#009af9" fill-rule="evenodd" fill-opacity="1" stroke="#000000" stroke-opacity="1" stroke-width="3.2"/>
<circle clip-path="url(#clip702)" cx="679.717" cy="657.648" r="14.4" fill="#009af9" fill-rule="evenodd" fill-opacity="1" stroke="#000000" stroke-opacity="1" stroke-width="3.2"/>
<circle clip-path="url(#clip702)" cx="721.638" cy="840.177" r="14.4" fill="#009af9" fill-rule="evenodd" fill-opacity="1" stroke="#000000" stroke-opacity="1" stroke-width="3.2"/>
<circle clip-path="url(#clip702)" cx="763.558" cy="206.345" r="14.4" fill="#009af9" fill-rule="evenodd" fill-opacity="1" stroke="#000000" stroke-opacity="1" stroke-width="3.2"/>
<circle clip-path="url(#clip702)" cx="805.478" cy="160.256" r="14.4" fill="#009af9" fill-rule="evenodd" fill-opacity="1" stroke="#000000" stroke-opacity="1" stroke-width="3.2"/>
<circle clip-path="url(#clip702)" cx="847.398" cy="182.16" r="14.4" fill="#009af9" fill-rule="evenodd" fill-opacity="1" stroke="#000000" stroke-opacity="1" stroke-width="3.2"/>
<circle clip-path="url(#clip702)" cx="889.319" cy="451.847" r="14.4" fill="#009af9" fill-rule="evenodd" fill-opacity="1" stroke="#000000" stroke-opacity="1" stroke-width="3.2"/>
<circle clip-path="url(#clip702)" cx="931.239" cy="891.285" r="14.4" fill="#009af9" fill-rule="evenodd" fill-opacity="1" stroke="#000000" stroke-opacity="1" stroke-width="3.2"/>
<circle clip-path="url(#clip702)" cx="973.159" cy="862.537" r="14.4" fill="#009af9" fill-rule="evenodd" fill-opacity="1" stroke="#000000" stroke-opacity="1" stroke-width="3.2"/>
<circle clip-path="url(#clip702)" cx="1015.08" cy="913.189" r="14.4" fill="#009af9" fill-rule="evenodd" fill-opacity="1" stroke="#000000" stroke-opacity="1" stroke-width="3.2"/>
<circle clip-path="url(#clip702)" cx="1057" cy="438.157" r="14.4" fill="#009af9" fill-rule="evenodd" fill-opacity="1" stroke="#000000" stroke-opacity="1" stroke-width="3.2"/>
<circle clip-path="url(#clip702)" cx="1098.92" cy="771.729" r="14.4" fill="#009af9" fill-rule="evenodd" fill-opacity="1" stroke="#000000" stroke-opacity="1" stroke-width="3.2"/>
<circle clip-path="url(#clip702)" cx="1140.84" cy="582.811" r="14.4" fill="#009af9" fill-rule="evenodd" fill-opacity="1" stroke="#000000" stroke-opacity="1" stroke-width="3.2"/>
<circle clip-path="url(#clip702)" cx="1182.76" cy="551.325" r="14.4" fill="#009af9" fill-rule="evenodd" fill-opacity="1" stroke="#000000" stroke-opacity="1" stroke-width="3.2"/>
<circle clip-path="url(#clip702)" cx="1224.68" cy="645.327" r="14.4" fill="#009af9" fill-rule="evenodd" fill-opacity="1" stroke="#000000" stroke-opacity="1" stroke-width="3.2"/>
<circle clip-path="url(#clip702)" cx="1266.6" cy="364.233" r="14.4" fill="#009af9" fill-rule="evenodd" fill-opacity="1" stroke="#000000" stroke-opacity="1" stroke-width="3.2"/>
<circle clip-path="url(#clip702)" cx="1308.52" cy="1195.65" r="14.4" fill="#009af9" fill-rule="evenodd" fill-opacity="1" stroke="#000000" stroke-opacity="1" stroke-width="3.2"/>
<circle clip-path="url(#clip702)" cx="1350.44" cy="651.716" r="14.4" fill="#009af9" fill-rule="evenodd" fill-opacity="1" stroke="#000000" stroke-opacity="1" stroke-width="3.2"/>
<circle clip-path="url(#clip702)" cx="1392.36" cy="886.722" r="14.4" fill="#009af9" fill-rule="evenodd" fill-opacity="1" stroke="#000000" stroke-opacity="1" stroke-width="3.2"/>
<circle clip-path="url(#clip702)" cx="1434.28" cy="1128.12" r="14.4" fill="#009af9" fill-rule="evenodd" fill-opacity="1" stroke="#000000" stroke-opacity="1" stroke-width="3.2"/>
<circle clip-path="url(#clip702)" cx="1476.2" cy="1280.99" r="14.4" fill="#009af9" fill-rule="evenodd" fill-opacity="1" stroke="#000000" stroke-opacity="1" stroke-width="3.2"/>
<circle clip-path="url(#clip702)" cx="1518.12" cy="1371.34" r="14.4" fill="#009af9" fill-rule="evenodd" fill-opacity="1" stroke="#000000" stroke-opacity="1" stroke-width="3.2"/>
<circle clip-path="url(#clip702)" cx="1560.04" cy="841.546" r="14.4" fill="#009af9" fill-rule="evenodd" fill-opacity="1" stroke="#000000" stroke-opacity="1" stroke-width="3.2"/>
<circle clip-path="url(#clip702)" cx="1601.96" cy="201.325" r="14.4" fill="#009af9" fill-rule="evenodd" fill-opacity="1" stroke="#000000" stroke-opacity="1" stroke-width="3.2"/>
<circle clip-path="url(#clip702)" cx="1643.88" cy="1082.94" r="14.4" fill="#009af9" fill-rule="evenodd" fill-opacity="1" stroke="#000000" stroke-opacity="1" stroke-width="3.2"/>
<circle clip-path="url(#clip702)" cx="1685.8" cy="1029.55" r="14.4" fill="#009af9" fill-rule="evenodd" fill-opacity="1" stroke="#000000" stroke-opacity="1" stroke-width="3.2"/>
<circle clip-path="url(#clip702)" cx="1727.72" cy="1369.97" r="14.4" fill="#009af9" fill-rule="evenodd" fill-opacity="1" stroke="#000000" stroke-opacity="1" stroke-width="3.2"/>
<circle clip-path="url(#clip702)" cx="1769.64" cy="1352.17" r="14.4" fill="#009af9" fill-rule="evenodd" fill-opacity="1" stroke="#000000" stroke-opacity="1" stroke-width="3.2"/>
<circle clip-path="url(#clip702)" cx="1811.57" cy="1377.73" r="14.4" fill="#009af9" fill-rule="evenodd" fill-opacity="1" stroke="#000000" stroke-opacity="1" stroke-width="3.2"/>
<circle clip-path="url(#clip702)" cx="1853.49" cy="1009.47" r="14.4" fill="#009af9" fill-rule="evenodd" fill-opacity="1" stroke="#000000" stroke-opacity="1" stroke-width="3.2"/>
<circle clip-path="url(#clip702)" cx="1895.41" cy="1376.36" r="14.4" fill="#009af9" fill-rule="evenodd" fill-opacity="1" stroke="#000000" stroke-opacity="1" stroke-width="3.2"/>
<circle clip-path="url(#clip702)" cx="1937.33" cy="1385.48" r="14.4" fill="#009af9" fill-rule="evenodd" fill-opacity="1" stroke="#000000" stroke-opacity="1" stroke-width="3.2"/>
<circle clip-path="url(#clip702)" cx="1979.25" cy="1383.66" r="14.4" fill="#009af9" fill-rule="evenodd" fill-opacity="1" stroke="#000000" stroke-opacity="1" stroke-width="3.2"/>
<circle clip-path="url(#clip702)" cx="2021.17" cy="1380.92" r="14.4" fill="#009af9" fill-rule="evenodd" fill-opacity="1" stroke="#000000" stroke-opacity="1" stroke-width="3.2"/>
<circle clip-path="url(#clip702)" cx="2063.09" cy="1384.57" r="14.4" fill="#009af9" fill-rule="evenodd" fill-opacity="1" stroke="#000000" stroke-opacity="1" stroke-width="3.2"/>
<circle clip-path="url(#clip702)" cx="2105.01" cy="1383.2" r="14.4" fill="#009af9" fill-rule="evenodd" fill-opacity="1" stroke="#000000" stroke-opacity="1" stroke-width="3.2"/>
<circle clip-path="url(#clip702)" cx="2146.93" cy="1386.4" r="14.4" fill="#009af9" fill-rule="evenodd" fill-opacity="1" stroke="#000000" stroke-opacity="1" stroke-width="3.2"/>
<circle clip-path="url(#clip702)" cx="2188.85" cy="1383.2" r="14.4" fill="#009af9" fill-rule="evenodd" fill-opacity="1" stroke="#000000" stroke-opacity="1" stroke-width="3.2"/>
<circle clip-path="url(#clip702)" cx="2230.77" cy="1382.29" r="14.4" fill="#009af9" fill-rule="evenodd" fill-opacity="1" stroke="#000000" stroke-opacity="1" stroke-width="3.2"/>
<circle clip-path="url(#clip702)" cx="2272.69" cy="1088.87" r="14.4" fill="#009af9" fill-rule="evenodd" fill-opacity="1" stroke="#000000" stroke-opacity="1" stroke-width="3.2"/>
<path clip-path="url(#clip700)" d="M1754.02 270.476 L2283.14 270.476 L2283.14 166.796 L1754.02 166.796  Z" fill="#ffffff" fill-rule="evenodd" fill-opacity="1"/>
<polyline clip-path="url(#clip700)" style="stroke:#000000; stroke-linecap:round; stroke-linejoin:round; stroke-width:4; stroke-opacity:1; fill:none" points="1754.02,270.476 2283.14,270.476 2283.14,166.796 1754.02,166.796 1754.02,270.476 "/>
<circle clip-path="url(#clip700)" cx="1846.84" cy="218.636" r="20.48" fill="#009af9" fill-rule="evenodd" fill-opacity="1" stroke="#000000" stroke-opacity="1" stroke-width="4.55111"/>
<path clip-path="url(#clip700)" d="M1958.43 222.976 Q1958.43 218.277 1956.49 215.615 Q1954.57 212.93 1951.19 212.93 Q1947.81 212.93 1945.86 215.615 Q1943.94 218.277 1943.94 222.976 Q1943.94 227.675 1945.86 230.36 Q1947.81 233.022 1951.19 233.022 Q1954.57 233.022 1956.49 230.36 Q1958.43 227.675 1958.43 222.976 M1943.94 213.925 Q1945.28 211.61 1947.32 210.499 Q1949.38 209.365 1952.23 209.365 Q1956.95 209.365 1959.89 213.115 Q1962.85 216.865 1962.85 222.976 Q1962.85 229.087 1959.89 232.837 Q1956.95 236.587 1952.23 236.587 Q1949.38 236.587 1947.32 235.476 Q1945.28 234.342 1943.94 232.027 L1943.94 235.916 L1939.66 235.916 L1939.66 199.897 L1943.94 199.897 L1943.94 213.925 Z" fill="#000000" fill-rule="nonzero" fill-opacity="1" /><path clip-path="url(#clip700)" d="M1969.91 209.99 L1974.17 209.99 L1974.17 235.916 L1969.91 235.916 L1969.91 209.99 M1969.91 199.897 L1974.17 199.897 L1974.17 205.291 L1969.91 205.291 L1969.91 199.897 Z" fill="#000000" fill-rule="nonzero" fill-opacity="1" /><path clip-path="url(#clip700)" d="M2004.64 220.268 L2004.64 235.916 L2000.38 235.916 L2000.38 220.407 Q2000.38 216.726 1998.94 214.897 Q1997.51 213.069 1994.64 213.069 Q1991.19 213.069 1989.2 215.268 Q1987.21 217.467 1987.21 221.263 L1987.21 235.916 L1982.92 235.916 L1982.92 209.99 L1987.21 209.99 L1987.21 214.018 Q1988.73 211.68 1990.79 210.522 Q1992.88 209.365 1995.58 209.365 Q2000.05 209.365 2002.34 212.143 Q2004.64 214.897 2004.64 220.268 Z" fill="#000000" fill-rule="nonzero" fill-opacity="1" /><path clip-path="url(#clip700)" d="M2032.83 243.786 L2032.83 247.096 L2008.2 247.096 L2008.2 243.786 L2032.83 243.786 Z" fill="#000000" fill-rule="nonzero" fill-opacity="1" /><path clip-path="url(#clip700)" d="M2034.36 209.99 L2038.62 209.99 L2043.94 230.221 L2049.24 209.99 L2054.26 209.99 L2059.59 230.221 L2064.89 209.99 L2069.15 209.99 L2062.37 235.916 L2057.34 235.916 L2051.76 214.666 L2046.16 235.916 L2041.14 235.916 L2034.36 209.99 Z" fill="#000000" fill-rule="nonzero" fill-opacity="1" /><path clip-path="url(#clip700)" d="M2075.61 209.99 L2079.87 209.99 L2079.87 235.916 L2075.61 235.916 L2075.61 209.99 M2075.61 199.897 L2079.87 199.897 L2079.87 205.291 L2075.61 205.291 L2075.61 199.897 Z" fill="#000000" fill-rule="nonzero" fill-opacity="1" /><path clip-path="url(#clip700)" d="M2105.84 213.925 L2105.84 199.897 L2110.1 199.897 L2110.1 235.916 L2105.84 235.916 L2105.84 232.027 Q2104.5 234.342 2102.44 235.476 Q2100.4 236.587 2097.53 236.587 Q2092.83 236.587 2089.87 232.837 Q2086.93 229.087 2086.93 222.976 Q2086.93 216.865 2089.87 213.115 Q2092.83 209.365 2097.53 209.365 Q2100.4 209.365 2102.44 210.499 Q2104.5 211.61 2105.84 213.925 M2091.32 222.976 Q2091.32 227.675 2093.25 230.36 Q2095.19 233.022 2098.57 233.022 Q2101.95 233.022 2103.89 230.36 Q2105.84 227.675 2105.84 222.976 Q2105.84 218.277 2103.89 215.615 Q2101.95 212.93 2098.57 212.93 Q2095.19 212.93 2093.25 215.615 Q2091.32 218.277 2091.32 222.976 Z" fill="#000000" fill-rule="nonzero" fill-opacity="1" /><path clip-path="url(#clip700)" d="M2123.08 202.629 L2123.08 209.99 L2131.86 209.99 L2131.86 213.3 L2123.08 213.3 L2123.08 227.374 Q2123.08 230.545 2123.94 231.448 Q2124.82 232.351 2127.48 232.351 L2131.86 232.351 L2131.86 235.916 L2127.48 235.916 Q2122.55 235.916 2120.68 234.087 Q2118.8 232.235 2118.8 227.374 L2118.8 213.3 L2115.68 213.3 L2115.68 209.99 L2118.8 209.99 L2118.8 202.629 L2123.08 202.629 Z" fill="#000000" fill-rule="nonzero" fill-opacity="1" /><path clip-path="url(#clip700)" d="M2159.01 220.268 L2159.01 235.916 L2154.75 235.916 L2154.75 220.407 Q2154.75 216.726 2153.32 214.897 Q2151.88 213.069 2149.01 213.069 Q2145.56 213.069 2143.57 215.268 Q2141.58 217.467 2141.58 221.263 L2141.58 235.916 L2137.3 235.916 L2137.3 199.897 L2141.58 199.897 L2141.58 214.018 Q2143.11 211.68 2145.17 210.522 Q2147.25 209.365 2149.96 209.365 Q2154.43 209.365 2156.72 212.143 Q2159.01 214.897 2159.01 220.268 Z" fill="#000000" fill-rule="nonzero" fill-opacity="1" /><path clip-path="url(#clip700)" d="M2168.06 214.388 L2197.74 214.388 L2197.74 218.277 L2168.06 218.277 L2168.06 214.388 M2168.06 223.832 L2197.74 223.832 L2197.74 227.768 L2168.06 227.768 L2168.06 223.832 Z" fill="#000000" fill-rule="nonzero" fill-opacity="1" /><path clip-path="url(#clip700)" d="M2207.88 201.356 L2226.23 201.356 L2226.23 205.291 L2212.16 205.291 L2212.16 213.763 Q2213.18 213.416 2214.19 213.254 Q2215.21 213.069 2216.23 213.069 Q2222.02 213.069 2225.4 216.24 Q2228.78 219.411 2228.78 224.828 Q2228.78 230.406 2225.31 233.508 Q2221.83 236.587 2215.51 236.587 Q2213.34 236.587 2211.07 236.217 Q2208.82 235.846 2206.42 235.106 L2206.42 230.406 Q2208.5 231.541 2210.72 232.096 Q2212.94 232.652 2215.42 232.652 Q2219.43 232.652 2221.76 230.545 Q2224.1 228.439 2224.1 224.828 Q2224.1 221.217 2221.76 219.11 Q2219.43 217.004 2215.42 217.004 Q2213.55 217.004 2211.67 217.42 Q2209.82 217.837 2207.88 218.717 L2207.88 201.356 Z" fill="#000000" fill-rule="nonzero" fill-opacity="1" /><path clip-path="url(#clip700)" d="M2247.99 204.434 Q2244.38 204.434 2242.55 207.999 Q2240.75 211.541 2240.75 218.67 Q2240.75 225.777 2242.55 229.342 Q2244.38 232.883 2247.99 232.883 Q2251.62 232.883 2253.43 229.342 Q2255.26 225.777 2255.26 218.67 Q2255.26 211.541 2253.43 207.999 Q2251.62 204.434 2247.99 204.434 M2247.99 200.731 Q2253.8 200.731 2256.86 205.337 Q2259.94 209.92 2259.94 218.67 Q2259.94 227.397 2256.86 232.004 Q2253.8 236.587 2247.99 236.587 Q2242.18 236.587 2239.1 232.004 Q2236.05 227.397 2236.05 218.67 Q2236.05 209.92 2239.1 205.337 Q2242.18 200.731 2247.99 200.731 Z" fill="#000000" fill-rule="nonzero" fill-opacity="1" /></svg>
