<?xml version="1.0" encoding="utf-8"?>
<svg xmlns="http://www.w3.org/2000/svg" xmlns:xlink="http://www.w3.org/1999/xlink" width="600" height="400" viewBox="0 0 2400 1600">
<defs>
  <clipPath id="clip380">
    <rect x="0" y="0" width="2400" height="1600"/>
  </clipPath>
</defs>
<path clip-path="url(#clip380)" d="M0 1600 L2400 1600 L2400 0 L0 0  Z" fill="#ffffff" fill-rule="evenodd" fill-opacity="1"/>
<defs>
  <clipPath id="clip381">
    <rect x="480" y="0" width="1681" height="1600"/>
  </clipPath>
</defs>
<path clip-path="url(#clip380)" d="M232.389 1410.9 L2352.76 1410.9 L2352.76 123.472 L232.389 123.472  Z" fill="#ffffff" fill-rule="evenodd" fill-opacity="1"/>
<defs>
  <clipPath id="clip382">
    <rect x="232" y="123" width="2121" height="1288"/>
  </clipPath>
</defs>
<polyline clip-path="url(#clip382)" style="stroke:#000000; stroke-linecap:round; stroke-linejoin:round; stroke-width:2; stroke-opacity:0.1; fill:none" points="292.4,1410.9 292.4,123.472 "/>
<polyline clip-path="url(#clip382)" style="stroke:#000000; stroke-linecap:round; stroke-linejoin:round; stroke-width:2; stroke-opacity:0.1; fill:none" points="792.486,1410.9 792.486,123.472 "/>
<polyline clip-path="url(#clip382)" style="stroke:#000000; stroke-linecap:round; stroke-linejoin:round; stroke-width:2; stroke-opacity:0.1; fill:none" points="1292.57,1410.9 1292.57,123.472 "/>
<polyline clip-path="url(#clip382)" style="stroke:#000000; stroke-linecap:round; stroke-linejoin:round; stroke-width:2; stroke-opacity:0.1; fill:none" points="1792.66,1410.9 1792.66,123.472 "/>
<polyline clip-path="url(#clip382)" style="stroke:#000000; stroke-linecap:round; stroke-linejoin:round; stroke-width:2; stroke-opacity:0.1; fill:none" points="2292.75,1410.9 2292.75,123.472 "/>
<polyline clip-path="url(#clip380)" style="stroke:#000000; stroke-linecap:round; stroke-linejoin:round; stroke-width:4; stroke-opacity:1; fill:none" points="232.389,1410.9 2352.76,1410.9 "/>
<polyline clip-path="url(#clip380)" style="stroke:#000000; stroke-linecap:round; stroke-linejoin:round; stroke-width:4; stroke-opacity:1; fill:none" points="292.4,1410.9 292.4,1392 "/>
<polyline clip-path="url(#clip380)" style="stroke:#000000; stroke-linecap:round; stroke-linejoin:round; stroke-width:4; stroke-opacity:1; fill:none" points="792.486,1410.9 792.486,1392 "/>
<polyline clip-path="url(#clip380)" style="stroke:#000000; stroke-linecap:round; stroke-linejoin:round; stroke-width:4; stroke-opacity:1; fill:none" points="1292.57,1410.9 1292.57,1392 "/>
<polyline clip-path="url(#clip380)" style="stroke:#000000; stroke-linecap:round; stroke-linejoin:round; stroke-width:4; stroke-opacity:1; fill:none" points="1792.66,1410.9 1792.66,1392 "/>
<polyline clip-path="url(#clip380)" style="stroke:#000000; stroke-linecap:round; stroke-linejoin:round; stroke-width:4; stroke-opacity:1; fill:none" points="2292.75,1410.9 2292.75,1392 "/>
<path clip-path="url(#clip380)" d="M292.4 1441.82 Q288.789 1441.82 286.96 1445.38 Q285.154 1448.92 285.154 1456.05 Q285.154 1463.16 286.96 1466.72 Q288.789 1470.26 292.4 1470.26 Q296.034 1470.26 297.84 1466.72 Q299.668 1463.16 299.668 1456.05 Q299.668 1448.92 297.84 1445.38 Q296.034 1441.82 292.4 1441.82 M292.4 1438.11 Q298.21 1438.11 301.265 1442.72 Q304.344 1447.3 304.344 1456.05 Q304.344 1464.78 301.265 1469.38 Q298.21 1473.97 292.4 1473.97 Q286.59 1473.97 283.511 1469.38 Q280.455 1464.78 280.455 1456.05 Q280.455 1447.3 283.511 1442.72 Q286.59 1438.11 292.4 1438.11 Z" fill="#000000" fill-rule="nonzero" fill-opacity="1" /><path clip-path="url(#clip380)" d="M688.39 1485.02 L704.709 1485.02 L704.709 1488.96 L682.765 1488.96 L682.765 1485.02 Q685.427 1482.27 690.01 1477.64 Q694.616 1472.98 695.797 1471.64 Q698.042 1469.12 698.922 1467.38 Q699.825 1465.62 699.825 1463.93 Q699.825 1461.18 697.88 1459.44 Q695.959 1457.71 692.857 1457.71 Q690.658 1457.71 688.204 1458.47 Q685.774 1459.23 682.996 1460.79 L682.996 1456.06 Q685.82 1454.93 688.274 1454.35 Q690.727 1453.77 692.764 1453.77 Q698.135 1453.77 701.329 1456.46 Q704.524 1459.14 704.524 1463.63 Q704.524 1465.76 703.714 1467.68 Q702.926 1469.58 700.82 1472.17 Q700.241 1472.85 697.139 1476.06 Q694.038 1479.26 688.39 1485.02 Z" fill="#000000" fill-rule="nonzero" fill-opacity="1" /><path clip-path="url(#clip380)" d="M714.524 1483.08 L719.408 1483.08 L719.408 1488.96 L714.524 1488.96 L714.524 1483.08 Z" fill="#000000" fill-rule="nonzero" fill-opacity="1" /><path clip-path="url(#clip380)" d="M729.639 1454.4 L747.996 1454.4 L747.996 1458.33 L733.922 1458.33 L733.922 1466.8 Q734.94 1466.46 735.959 1466.29 Q736.977 1466.11 737.996 1466.11 Q743.783 1466.11 747.162 1469.28 Q750.542 1472.45 750.542 1477.87 Q750.542 1483.45 747.07 1486.55 Q743.598 1489.63 737.278 1489.63 Q735.102 1489.63 732.834 1489.26 Q730.588 1488.89 728.181 1488.15 L728.181 1483.45 Q730.264 1484.58 732.486 1485.14 Q734.709 1485.69 737.186 1485.69 Q741.19 1485.69 743.528 1483.59 Q745.866 1481.48 745.866 1477.87 Q745.866 1474.26 743.528 1472.15 Q741.19 1470.04 737.186 1470.04 Q735.311 1470.04 733.436 1470.46 Q731.584 1470.88 729.639 1471.76 L729.639 1454.4 Z" fill="#000000" fill-rule="nonzero" fill-opacity="1" /><path clip-path="url(#clip380)" d="M769.755 1457.48 Q766.144 1457.48 764.315 1461.04 Q762.509 1464.58 762.509 1471.71 Q762.509 1478.82 764.315 1482.38 Q766.144 1485.92 769.755 1485.92 Q773.389 1485.92 775.195 1482.38 Q777.023 1478.82 777.023 1471.71 Q777.023 1464.58 775.195 1461.04 Q773.389 1457.48 769.755 1457.48 M769.755 1453.77 Q775.565 1453.77 778.621 1458.38 Q781.699 1462.96 781.699 1471.71 Q781.699 1480.44 778.621 1485.04 Q775.565 1489.63 769.755 1489.63 Q763.945 1489.63 760.866 1485.04 Q757.81 1480.44 757.81 1471.71 Q757.81 1462.96 760.866 1458.38 Q763.945 1453.77 769.755 1453.77 Z" fill="#000000" fill-rule="nonzero" fill-opacity="1" /><path clip-path="url(#clip380)" d="M818.088 1463.49 L807.509 1474.12 L818.088 1484.7 L815.333 1487.5 L804.708 1476.87 L794.083 1487.5 L791.352 1484.7 L801.907 1474.12 L791.352 1463.49 L794.083 1460.69 L804.708 1471.32 L815.333 1460.69 L818.088 1463.49 Z" fill="#000000" fill-rule="nonzero" fill-opacity="1" /><path clip-path="url(#clip380)" d="M830.449 1485.02 L838.088 1485.02 L838.088 1458.66 L829.778 1460.32 L829.778 1456.06 L838.041 1454.4 L842.717 1454.4 L842.717 1485.02 L850.356 1485.02 L850.356 1488.96 L830.449 1488.96 L830.449 1485.02 Z" fill="#000000" fill-rule="nonzero" fill-opacity="1" /><path clip-path="url(#clip380)" d="M869.801 1457.48 Q866.189 1457.48 864.361 1461.04 Q862.555 1464.58 862.555 1471.71 Q862.555 1478.82 864.361 1482.38 Q866.189 1485.92 869.801 1485.92 Q873.435 1485.92 875.24 1482.38 Q877.069 1478.82 877.069 1471.71 Q877.069 1464.58 875.24 1461.04 Q873.435 1457.48 869.801 1457.48 M869.801 1453.77 Q875.611 1453.77 878.666 1458.38 Q881.745 1462.96 881.745 1471.71 Q881.745 1480.44 878.666 1485.04 Q875.611 1489.63 869.801 1489.63 Q863.99 1489.63 860.912 1485.04 Q857.856 1480.44 857.856 1471.71 Q857.856 1462.96 860.912 1458.38 Q863.99 1453.77 869.801 1453.77 Z" fill="#000000" fill-rule="nonzero" fill-opacity="1" /><path clip-path="url(#clip380)" d="M894.421 1436.78 L884.829 1451.77 L894.421 1451.77 L894.421 1436.78 M893.425 1433.47 L898.202 1433.47 L898.202 1451.77 L902.208 1451.77 L902.208 1454.93 L898.202 1454.93 L898.202 1461.55 L894.421 1461.55 L894.421 1454.93 L881.745 1454.93 L881.745 1451.26 L893.425 1433.47 Z" fill="#000000" fill-rule="nonzero" fill-opacity="1" /><path clip-path="url(#clip380)" d="M1184.4 1454.4 L1202.76 1454.4 L1202.76 1458.33 L1188.68 1458.33 L1188.68 1466.8 Q1189.7 1466.46 1190.72 1466.29 Q1191.74 1466.11 1192.76 1466.11 Q1198.55 1466.11 1201.92 1469.28 Q1205.3 1472.45 1205.3 1477.87 Q1205.3 1483.45 1201.83 1486.55 Q1198.36 1489.63 1192.04 1489.63 Q1189.86 1489.63 1187.6 1489.26 Q1185.35 1488.89 1182.94 1488.15 L1182.94 1483.45 Q1185.03 1484.58 1187.25 1485.14 Q1189.47 1485.69 1191.95 1485.69 Q1195.95 1485.69 1198.29 1483.59 Q1200.63 1481.48 1200.63 1477.87 Q1200.63 1474.26 1198.29 1472.15 Q1195.95 1470.04 1191.95 1470.04 Q1190.07 1470.04 1188.2 1470.46 Q1186.35 1470.88 1184.4 1471.76 L1184.4 1454.4 Z" fill="#000000" fill-rule="nonzero" fill-opacity="1" /><path clip-path="url(#clip380)" d="M1214.52 1483.08 L1219.4 1483.08 L1219.4 1488.96 L1214.52 1488.96 L1214.52 1483.08 Z" fill="#000000" fill-rule="nonzero" fill-opacity="1" /><path clip-path="url(#clip380)" d="M1239.59 1457.48 Q1235.98 1457.48 1234.15 1461.04 Q1232.34 1464.58 1232.34 1471.71 Q1232.34 1478.82 1234.15 1482.38 Q1235.98 1485.92 1239.59 1485.92 Q1243.22 1485.92 1245.03 1482.38 Q1246.86 1478.82 1246.86 1471.71 Q1246.86 1464.58 1245.03 1461.04 Q1243.22 1457.48 1239.59 1457.48 M1239.59 1453.77 Q1245.4 1453.77 1248.45 1458.38 Q1251.53 1462.96 1251.53 1471.71 Q1251.53 1480.44 1248.45 1485.04 Q1245.4 1489.63 1239.59 1489.63 Q1233.78 1489.63 1230.7 1485.04 Q1227.64 1480.44 1227.64 1471.71 Q1227.64 1462.96 1230.7 1458.38 Q1233.78 1453.77 1239.59 1453.77 Z" fill="#000000" fill-rule="nonzero" fill-opacity="1" /><path clip-path="url(#clip380)" d="M1269.75 1457.48 Q1266.14 1457.48 1264.31 1461.04 Q1262.5 1464.58 1262.5 1471.71 Q1262.5 1478.82 1264.31 1482.38 Q1266.14 1485.92 1269.75 1485.92 Q1273.38 1485.92 1275.19 1482.38 Q1277.02 1478.82 1277.02 1471.71 Q1277.02 1464.58 1275.19 1461.04 Q1273.38 1457.48 1269.75 1457.48 M1269.75 1453.77 Q1275.56 1453.77 1278.61 1458.38 Q1281.69 1462.96 1281.69 1471.71 Q1281.69 1480.44 1278.61 1485.04 Q1275.56 1489.63 1269.75 1489.63 Q1263.94 1489.63 1260.86 1485.04 Q1257.8 1480.44 1257.8 1471.71 Q1257.8 1462.96 1260.86 1458.38 Q1263.94 1453.77 1269.75 1453.77 Z" fill="#000000" fill-rule="nonzero" fill-opacity="1" /><path clip-path="url(#clip380)" d="M1318.08 1463.49 L1307.5 1474.12 L1318.08 1484.7 L1315.33 1487.5 L1304.7 1476.87 L1294.08 1487.5 L1291.35 1484.7 L1301.9 1474.12 L1291.35 1463.49 L1294.08 1460.69 L1304.7 1471.32 L1315.33 1460.69 L1318.08 1463.49 Z" fill="#000000" fill-rule="nonzero" fill-opacity="1" /><path clip-path="url(#clip380)" d="M1330.44 1485.02 L1338.08 1485.02 L1338.08 1458.66 L1329.77 1460.32 L1329.77 1456.06 L1338.04 1454.4 L1342.71 1454.4 L1342.71 1485.02 L1350.35 1485.02 L1350.35 1488.96 L1330.44 1488.96 L1330.44 1485.02 Z" fill="#000000" fill-rule="nonzero" fill-opacity="1" /><path clip-path="url(#clip380)" d="M1369.79 1457.48 Q1366.18 1457.48 1364.35 1461.04 Q1362.55 1464.58 1362.55 1471.71 Q1362.55 1478.82 1364.35 1482.38 Q1366.18 1485.92 1369.79 1485.92 Q1373.43 1485.92 1375.23 1482.38 Q1377.06 1478.82 1377.06 1471.71 Q1377.06 1464.58 1375.23 1461.04 Q1373.43 1457.48 1369.79 1457.48 M1369.79 1453.77 Q1375.6 1453.77 1378.66 1458.38 Q1381.74 1462.96 1381.74 1471.71 Q1381.74 1480.44 1378.66 1485.04 Q1375.6 1489.63 1369.79 1489.63 Q1363.98 1489.63 1360.91 1485.04 Q1357.85 1480.44 1357.85 1471.71 Q1357.85 1462.96 1360.91 1458.38 Q1363.98 1453.77 1369.79 1453.77 Z" fill="#000000" fill-rule="nonzero" fill-opacity="1" /><path clip-path="url(#clip380)" d="M1394.42 1436.78 L1384.82 1451.77 L1394.42 1451.77 L1394.42 1436.78 M1393.42 1433.47 L1398.2 1433.47 L1398.2 1451.77 L1402.2 1451.77 L1402.2 1454.93 L1398.2 1454.93 L1398.2 1461.55 L1394.42 1461.55 L1394.42 1454.93 L1381.74 1454.93 L1381.74 1451.26 L1393.42 1433.47 Z" fill="#000000" fill-rule="nonzero" fill-opacity="1" /><path clip-path="url(#clip380)" d="M1683.15 1454.4 L1705.37 1454.4 L1705.37 1456.39 L1692.82 1488.96 L1687.94 1488.96 L1699.74 1458.33 L1683.15 1458.33 L1683.15 1454.4 Z" fill="#000000" fill-rule="nonzero" fill-opacity="1" /><path clip-path="url(#clip380)" d="M1714.49 1483.08 L1719.37 1483.08 L1719.37 1488.96 L1714.49 1488.96 L1714.49 1483.08 Z" fill="#000000" fill-rule="nonzero" fill-opacity="1" /><path clip-path="url(#clip380)" d="M1729.6 1454.4 L1747.96 1454.4 L1747.96 1458.33 L1733.89 1458.33 L1733.89 1466.8 Q1734.9 1466.46 1735.92 1466.29 Q1736.94 1466.11 1737.96 1466.11 Q1743.75 1466.11 1747.13 1469.28 Q1750.51 1472.45 1750.51 1477.87 Q1750.51 1483.45 1747.03 1486.55 Q1743.56 1489.63 1737.24 1489.63 Q1735.07 1489.63 1732.8 1489.26 Q1730.55 1488.89 1728.15 1488.15 L1728.15 1483.45 Q1730.23 1484.58 1732.45 1485.14 Q1734.67 1485.69 1737.15 1485.69 Q1741.15 1485.69 1743.49 1483.59 Q1745.83 1481.48 1745.83 1477.87 Q1745.83 1474.26 1743.49 1472.15 Q1741.15 1470.04 1737.15 1470.04 Q1735.28 1470.04 1733.4 1470.46 Q1731.55 1470.88 1729.6 1471.76 L1729.6 1454.4 Z" fill="#000000" fill-rule="nonzero" fill-opacity="1" /><path clip-path="url(#clip380)" d="M1769.72 1457.48 Q1766.11 1457.48 1764.28 1461.04 Q1762.47 1464.58 1762.47 1471.71 Q1762.47 1478.82 1764.28 1482.38 Q1766.11 1485.92 1769.72 1485.92 Q1773.35 1485.92 1775.16 1482.38 Q1776.99 1478.82 1776.99 1471.71 Q1776.99 1464.58 1775.16 1461.04 Q1773.35 1457.48 1769.72 1457.48 M1769.72 1453.77 Q1775.53 1453.77 1778.59 1458.38 Q1781.66 1462.96 1781.66 1471.71 Q1781.66 1480.44 1778.59 1485.04 Q1775.53 1489.63 1769.72 1489.63 Q1763.91 1489.63 1760.83 1485.04 Q1757.78 1480.44 1757.78 1471.71 Q1757.78 1462.96 1760.83 1458.38 Q1763.91 1453.77 1769.72 1453.77 Z" fill="#000000" fill-rule="nonzero" fill-opacity="1" /><path clip-path="url(#clip380)" d="M1818.05 1463.49 L1807.47 1474.12 L1818.05 1484.7 L1815.3 1487.5 L1804.67 1476.87 L1794.05 1487.5 L1791.32 1484.7 L1801.87 1474.12 L1791.32 1463.49 L1794.05 1460.69 L1804.67 1471.32 L1815.3 1460.69 L1818.05 1463.49 Z" fill="#000000" fill-rule="nonzero" fill-opacity="1" /><path clip-path="url(#clip380)" d="M1830.41 1485.02 L1838.05 1485.02 L1838.05 1458.66 L1829.74 1460.32 L1829.74 1456.06 L1838.01 1454.4 L1842.68 1454.4 L1842.68 1485.02 L1850.32 1485.02 L1850.32 1488.96 L1830.41 1488.96 L1830.41 1485.02 Z" fill="#000000" fill-rule="nonzero" fill-opacity="1" /><path clip-path="url(#clip380)" d="M1869.77 1457.48 Q1866.15 1457.48 1864.33 1461.04 Q1862.52 1464.58 1862.52 1471.71 Q1862.52 1478.82 1864.33 1482.38 Q1866.15 1485.92 1869.77 1485.92 Q1873.4 1485.92 1875.2 1482.38 Q1877.03 1478.82 1877.03 1471.71 Q1877.03 1464.58 1875.2 1461.04 Q1873.4 1457.48 1869.77 1457.48 M1869.77 1453.77 Q1875.58 1453.77 1878.63 1458.38 Q1881.71 1462.96 1881.71 1471.71 Q1881.71 1480.44 1878.63 1485.04 Q1875.58 1489.63 1869.77 1489.63 Q1863.95 1489.63 1860.88 1485.04 Q1857.82 1480.44 1857.82 1471.71 Q1857.82 1462.96 1860.88 1458.38 Q1863.95 1453.77 1869.77 1453.77 Z" fill="#000000" fill-rule="nonzero" fill-opacity="1" /><path clip-path="url(#clip380)" d="M1894.39 1436.78 L1884.79 1451.77 L1894.39 1451.77 L1894.39 1436.78 M1893.39 1433.47 L1898.17 1433.47 L1898.17 1451.77 L1902.17 1451.77 L1902.17 1454.93 L1898.17 1454.93 L1898.17 1461.55 L1894.39 1461.55 L1894.39 1454.93 L1881.71 1454.93 L1881.71 1451.26 L1893.39 1433.47 Z" fill="#000000" fill-rule="nonzero" fill-opacity="1" /><path clip-path="url(#clip380)" d="M2185.71 1485.02 L2193.35 1485.02 L2193.35 1458.66 L2185.04 1460.32 L2185.04 1456.06 L2193.3 1454.4 L2197.98 1454.4 L2197.98 1485.02 L2205.62 1485.02 L2205.62 1488.96 L2185.71 1488.96 L2185.71 1485.02 Z" fill="#000000" fill-rule="nonzero" fill-opacity="1" /><path clip-path="url(#clip380)" d="M2215.06 1483.08 L2219.95 1483.08 L2219.95 1488.96 L2215.06 1488.96 L2215.06 1483.08 Z" fill="#000000" fill-rule="nonzero" fill-opacity="1" /><path clip-path="url(#clip380)" d="M2240.13 1457.48 Q2236.52 1457.48 2234.69 1461.04 Q2232.89 1464.58 2232.89 1471.71 Q2232.89 1478.82 2234.69 1482.38 Q2236.52 1485.92 2240.13 1485.92 Q2243.77 1485.92 2245.57 1482.38 Q2247.4 1478.82 2247.4 1471.71 Q2247.4 1464.58 2245.57 1461.04 Q2243.77 1457.48 2240.13 1457.48 M2240.13 1453.77 Q2245.94 1453.77 2249 1458.38 Q2252.08 1462.96 2252.08 1471.71 Q2252.08 1480.44 2249 1485.04 Q2245.94 1489.63 2240.13 1489.63 Q2234.32 1489.63 2231.24 1485.04 Q2228.19 1480.44 2228.19 1471.71 Q2228.19 1462.96 2231.24 1458.38 Q2234.32 1453.77 2240.13 1453.77 Z" fill="#000000" fill-rule="nonzero" fill-opacity="1" /><path clip-path="url(#clip380)" d="M2270.29 1457.48 Q2266.68 1457.48 2264.85 1461.04 Q2263.05 1464.58 2263.05 1471.71 Q2263.05 1478.82 2264.85 1482.38 Q2266.68 1485.92 2270.29 1485.92 Q2273.93 1485.92 2275.73 1482.38 Q2277.56 1478.82 2277.56 1471.71 Q2277.56 1464.58 2275.73 1461.04 Q2273.93 1457.48 2270.29 1457.48 M2270.29 1453.77 Q2276.1 1453.77 2279.16 1458.38 Q2282.24 1462.96 2282.24 1471.71 Q2282.24 1480.44 2279.16 1485.04 Q2276.1 1489.63 2270.29 1489.63 Q2264.48 1489.63 2261.4 1485.04 Q2258.35 1480.44 2258.35 1471.71 Q2258.35 1462.96 2261.4 1458.38 Q2264.48 1453.77 2270.29 1453.77 Z" fill="#000000" fill-rule="nonzero" fill-opacity="1" /><path clip-path="url(#clip380)" d="M2318.63 1463.49 L2308.05 1474.12 L2318.63 1484.7 L2315.87 1487.5 L2305.25 1476.87 L2294.62 1487.5 L2291.89 1484.7 L2302.45 1474.12 L2291.89 1463.49 L2294.62 1460.69 L2305.25 1471.32 L2315.87 1460.69 L2318.63 1463.49 Z" fill="#000000" fill-rule="nonzero" fill-opacity="1" /><path clip-path="url(#clip380)" d="M2330.99 1485.02 L2338.63 1485.02 L2338.63 1458.66 L2330.32 1460.32 L2330.32 1456.06 L2338.58 1454.4 L2343.26 1454.4 L2343.26 1485.02 L2350.89 1485.02 L2350.89 1488.96 L2330.99 1488.96 L2330.99 1485.02 Z" fill="#000000" fill-rule="nonzero" fill-opacity="1" /><path clip-path="url(#clip380)" d="M2370.34 1457.48 Q2366.73 1457.48 2364.9 1461.04 Q2363.09 1464.58 2363.09 1471.71 Q2363.09 1478.82 2364.9 1482.38 Q2366.73 1485.92 2370.34 1485.92 Q2373.97 1485.92 2375.78 1482.38 Q2377.61 1478.82 2377.61 1471.71 Q2377.61 1464.58 2375.78 1461.04 Q2373.97 1457.48 2370.34 1457.48 M2370.34 1453.77 Q2376.15 1453.77 2379.2 1458.38 Q2382.28 1462.96 2382.28 1471.71 Q2382.28 1480.44 2379.2 1485.04 Q2376.15 1489.63 2370.34 1489.63 Q2364.53 1489.63 2361.45 1485.04 Q2358.39 1480.44 2358.39 1471.71 Q2358.39 1462.96 2361.45 1458.38 Q2364.53 1453.77 2370.34 1453.77 Z" fill="#000000" fill-rule="nonzero" fill-opacity="1" /><path clip-path="url(#clip380)" d="M2383.47 1433.47 L2398.38 1433.47 L2398.38 1436.66 L2386.95 1436.66 L2386.95 1443.55 Q2387.78 1443.27 2388.6 1443.13 Q2389.43 1442.98 2390.26 1442.98 Q2394.96 1442.98 2397.71 1445.56 Q2400.45 1448.14 2400.45 1452.54 Q2400.45 1457.07 2397.63 1459.59 Q2394.81 1462.09 2389.67 1462.09 Q2387.91 1462.09 2386.06 1461.79 Q2384.24 1461.49 2382.28 1460.89 L2382.28 1457.07 Q2383.98 1457.99 2385.78 1458.44 Q2387.59 1458.89 2389.6 1458.89 Q2392.85 1458.89 2394.75 1457.18 Q2396.65 1455.47 2396.65 1452.54 Q2396.65 1449.6 2394.75 1447.89 Q2392.85 1446.18 2389.6 1446.18 Q2388.08 1446.18 2386.55 1446.52 Q2385.05 1446.86 2383.47 1447.57 L2383.47 1433.47 Z" fill="#000000" fill-rule="nonzero" fill-opacity="1" /><path clip-path="url(#clip380)" d="M1168.19 1531.95 L1168.19 1568.9 L1175.95 1568.9 Q1185.79 1568.9 1190.34 1564.45 Q1194.92 1559.99 1194.92 1550.38 Q1194.92 1540.83 1190.34 1536.4 Q1185.79 1531.95 1175.95 1531.95 L1168.19 1531.95 M1161.76 1526.67 L1174.97 1526.67 Q1188.78 1526.67 1195.24 1532.43 Q1201.7 1538.16 1201.7 1550.38 Q1201.7 1562.66 1195.21 1568.42 Q1188.72 1574.19 1174.97 1574.19 L1161.76 1574.19 L1161.76 1526.67 Z" fill="#000000" fill-rule="nonzero" fill-opacity="1" /><path clip-path="url(#clip380)" d="M1242.19 1554.9 L1242.19 1557.76 L1215.26 1557.76 Q1215.64 1563.81 1218.89 1566.99 Q1222.17 1570.14 1227.99 1570.14 Q1231.37 1570.14 1234.52 1569.32 Q1237.7 1568.49 1240.82 1566.83 L1240.82 1572.37 Q1237.67 1573.71 1234.36 1574.41 Q1231.05 1575.11 1227.64 1575.11 Q1219.11 1575.11 1214.12 1570.14 Q1209.15 1565.18 1209.15 1556.71 Q1209.15 1547.96 1213.86 1542.83 Q1218.6 1537.68 1226.62 1537.68 Q1233.82 1537.68 1237.99 1542.33 Q1242.19 1546.94 1242.19 1554.9 M1236.33 1553.18 Q1236.27 1548.37 1233.63 1545.51 Q1231.02 1542.64 1226.69 1542.64 Q1221.79 1542.64 1218.83 1545.41 Q1215.9 1548.18 1215.45 1553.21 L1236.33 1553.18 Z" fill="#000000" fill-rule="nonzero" fill-opacity="1" /><path clip-path="url(#clip380)" d="M1275.26 1555.95 Q1275.26 1549.58 1272.62 1546.08 Q1270.01 1542.58 1265.26 1542.58 Q1260.55 1542.58 1257.91 1546.08 Q1255.3 1549.58 1255.3 1555.95 Q1255.3 1562.28 1257.91 1565.78 Q1260.55 1569.28 1265.26 1569.28 Q1270.01 1569.28 1272.62 1565.78 Q1275.26 1562.28 1275.26 1555.95 M1281.11 1569.76 Q1281.11 1578.86 1277.07 1583.29 Q1273.03 1587.74 1264.69 1587.74 Q1261.6 1587.74 1258.87 1587.27 Q1256.13 1586.82 1253.55 1585.87 L1253.55 1580.17 Q1256.13 1581.57 1258.64 1582.24 Q1261.16 1582.91 1263.77 1582.91 Q1269.53 1582.91 1272.39 1579.88 Q1275.26 1576.89 1275.26 1570.81 L1275.26 1567.92 Q1273.44 1571.07 1270.61 1572.63 Q1267.78 1574.19 1263.83 1574.19 Q1257.27 1574.19 1253.26 1569.19 Q1249.25 1564.19 1249.25 1555.95 Q1249.25 1547.67 1253.26 1542.68 Q1257.27 1537.68 1263.83 1537.68 Q1267.78 1537.68 1270.61 1539.24 Q1273.44 1540.8 1275.26 1543.95 L1275.26 1538.54 L1281.11 1538.54 L1281.11 1569.76 Z" fill="#000000" fill-rule="nonzero" fill-opacity="1" /><path clip-path="url(#clip380)" d="M1313.83 1544.01 Q1312.85 1543.44 1311.67 1543.18 Q1310.52 1542.9 1309.12 1542.9 Q1304.16 1542.9 1301.48 1546.14 Q1298.84 1549.36 1298.84 1555.41 L1298.84 1574.19 L1292.95 1574.19 L1292.95 1538.54 L1298.84 1538.54 L1298.84 1544.08 Q1300.69 1540.83 1303.65 1539.27 Q1306.61 1537.68 1310.84 1537.68 Q1311.45 1537.68 1312.18 1537.77 Q1312.91 1537.84 1313.8 1538 L1313.83 1544.01 Z" fill="#000000" fill-rule="nonzero" fill-opacity="1" /><path clip-path="url(#clip380)" d="M1349.04 1554.9 L1349.04 1557.76 L1322.11 1557.76 Q1322.49 1563.81 1325.74 1566.99 Q1329.02 1570.14 1334.84 1570.14 Q1338.21 1570.14 1341.37 1569.32 Q1344.55 1568.49 1347.67 1566.83 L1347.67 1572.37 Q1344.52 1573.71 1341.21 1574.41 Q1337.9 1575.11 1334.49 1575.11 Q1325.96 1575.11 1320.96 1570.14 Q1316 1565.18 1316 1556.71 Q1316 1547.96 1320.71 1542.83 Q1325.45 1537.68 1333.47 1537.68 Q1340.67 1537.68 1344.84 1542.33 Q1349.04 1546.94 1349.04 1554.9 M1343.18 1553.18 Q1343.12 1548.37 1340.47 1545.51 Q1337.86 1542.64 1333.54 1542.64 Q1328.63 1542.64 1325.67 1545.41 Q1322.75 1548.18 1322.3 1553.21 L1343.18 1553.18 Z" fill="#000000" fill-rule="nonzero" fill-opacity="1" /><path clip-path="url(#clip380)" d="M1389.14 1554.9 L1389.14 1557.76 L1362.21 1557.76 Q1362.6 1563.81 1365.84 1566.99 Q1369.12 1570.14 1374.94 1570.14 Q1378.32 1570.14 1381.47 1569.32 Q1384.65 1568.49 1387.77 1566.83 L1387.77 1572.37 Q1384.62 1573.71 1381.31 1574.41 Q1378 1575.11 1374.59 1575.11 Q1366.06 1575.11 1361.07 1570.14 Q1356.1 1565.18 1356.1 1556.71 Q1356.1 1547.96 1360.81 1542.83 Q1365.56 1537.68 1373.58 1537.68 Q1380.77 1537.68 1384.94 1542.33 Q1389.14 1546.94 1389.14 1554.9 M1383.28 1553.18 Q1383.22 1548.37 1380.58 1545.51 Q1377.97 1542.64 1373.64 1542.64 Q1368.74 1542.64 1365.78 1545.41 Q1362.85 1548.18 1362.4 1553.21 L1383.28 1553.18 Z" fill="#000000" fill-rule="nonzero" fill-opacity="1" /><path clip-path="url(#clip380)" d="M1421.48 1539.59 L1421.48 1545.13 Q1419 1543.85 1416.32 1543.22 Q1413.65 1542.58 1410.78 1542.58 Q1406.42 1542.58 1404.23 1543.92 Q1402.06 1545.25 1402.06 1547.93 Q1402.06 1549.96 1403.62 1551.14 Q1405.18 1552.29 1409.89 1553.34 L1411.9 1553.78 Q1418.14 1555.12 1420.75 1557.57 Q1423.39 1559.99 1423.39 1564.35 Q1423.39 1569.32 1419.44 1572.21 Q1415.53 1575.11 1408.65 1575.11 Q1405.79 1575.11 1402.67 1574.54 Q1399.58 1573.99 1396.14 1572.88 L1396.14 1566.83 Q1399.39 1568.52 1402.54 1569.38 Q1405.69 1570.21 1408.78 1570.21 Q1412.92 1570.21 1415.14 1568.81 Q1417.37 1567.37 1417.37 1564.8 Q1417.37 1562.41 1415.75 1561.14 Q1414.16 1559.86 1408.71 1558.68 L1406.68 1558.21 Q1401.24 1557.06 1398.82 1554.71 Q1396.4 1552.32 1396.4 1548.18 Q1396.4 1543.15 1399.96 1540.42 Q1403.53 1537.68 1410.08 1537.68 Q1413.33 1537.68 1416.19 1538.16 Q1419.06 1538.63 1421.48 1539.59 Z" fill="#000000" fill-rule="nonzero" fill-opacity="1" /><polyline clip-path="url(#clip382)" style="stroke:#000000; stroke-linecap:round; stroke-linejoin:round; stroke-width:2; stroke-opacity:0.1; fill:none" points="232.389,1383.33 2352.76,1383.33 "/>
<polyline clip-path="url(#clip382)" style="stroke:#000000; stroke-linecap:round; stroke-linejoin:round; stroke-width:2; stroke-opacity:0.1; fill:none" points="232.389,1161.69 2352.76,1161.69 "/>
<polyline clip-path="url(#clip382)" style="stroke:#000000; stroke-linecap:round; stroke-linejoin:round; stroke-width:2; stroke-opacity:0.1; fill:none" points="232.389,940.058 2352.76,940.058 "/>
<polyline clip-path="url(#clip382)" style="stroke:#000000; stroke-linecap:round; stroke-linejoin:round; stroke-width:2; stroke-opacity:0.1; fill:none" points="232.389,718.425 2352.76,718.425 "/>
<polyline clip-path="url(#clip382)" style="stroke:#000000; stroke-linecap:round; stroke-linejoin:round; stroke-width:2; stroke-opacity:0.1; fill:none" points="232.389,496.792 2352.76,496.792 "/>
<polyline clip-path="url(#clip382)" style="stroke:#000000; stroke-linecap:round; stroke-linejoin:round; stroke-width:2; stroke-opacity:0.1; fill:none" points="232.389,275.158 2352.76,275.158 "/>
<polyline clip-path="url(#clip380)" style="stroke:#000000; stroke-linecap:round; stroke-linejoin:round; stroke-width:4; stroke-opacity:1; fill:none" points="232.389,1410.9 232.389,123.472 "/>
<polyline clip-path="url(#clip380)" style="stroke:#000000; stroke-linecap:round; stroke-linejoin:round; stroke-width:4; stroke-opacity:1; fill:none" points="232.389,1383.33 251.287,1383.33 "/>
<polyline clip-path="url(#clip380)" style="stroke:#000000; stroke-linecap:round; stroke-linejoin:round; stroke-width:4; stroke-opacity:1; fill:none" points="232.389,1161.69 251.287,1161.69 "/>
<polyline clip-path="url(#clip380)" style="stroke:#000000; stroke-linecap:round; stroke-linejoin:round; stroke-width:4; stroke-opacity:1; fill:none" points="232.389,940.058 251.287,940.058 "/>
<polyline clip-path="url(#clip380)" style="stroke:#000000; stroke-linecap:round; stroke-linejoin:round; stroke-width:4; stroke-opacity:1; fill:none" points="232.389,718.425 251.287,718.425 "/>
<polyline clip-path="url(#clip380)" style="stroke:#000000; stroke-linecap:round; stroke-linejoin:round; stroke-width:4; stroke-opacity:1; fill:none" points="232.389,496.792 251.287,496.792 "/>
<polyline clip-path="url(#clip380)" style="stroke:#000000; stroke-linecap:round; stroke-linejoin:round; stroke-width:4; stroke-opacity:1; fill:none" points="232.389,275.158 251.287,275.158 "/>
<path clip-path="url(#clip380)" d="M184.445 1369.12 Q180.834 1369.12 179.005 1372.69 Q177.2 1376.23 177.2 1383.36 Q177.2 1390.47 179.005 1394.03 Q180.834 1397.57 184.445 1397.57 Q188.079 1397.57 189.885 1394.03 Q191.713 1390.47 191.713 1383.36 Q191.713 1376.23 189.885 1372.69 Q188.079 1369.12 184.445 1369.12 M184.445 1365.42 Q190.255 1365.42 193.311 1370.03 Q196.389 1374.61 196.389 1383.36 Q196.389 1392.09 193.311 1396.69 Q190.255 1401.28 184.445 1401.28 Q178.635 1401.28 175.556 1396.69 Q172.501 1392.09 172.501 1383.36 Q172.501 1374.61 175.556 1370.03 Q178.635 1365.42 184.445 1365.42 Z" fill="#000000" fill-rule="nonzero" fill-opacity="1" /><path clip-path="url(#clip380)" d="M149.306 1175.04 L165.626 1175.04 L165.626 1178.97 L143.681 1178.97 L143.681 1175.04 Q146.343 1172.28 150.927 1167.65 Q155.533 1163 156.714 1161.66 Q158.959 1159.13 159.839 1157.4 Q160.741 1155.64 160.741 1153.95 Q160.741 1151.19 158.797 1149.46 Q156.876 1147.72 153.774 1147.72 Q151.575 1147.72 149.121 1148.49 Q146.691 1149.25 143.913 1150.8 L143.913 1146.08 Q146.737 1144.94 149.191 1144.37 Q151.644 1143.79 153.681 1143.79 Q159.052 1143.79 162.246 1146.47 Q165.44 1149.16 165.44 1153.65 Q165.44 1155.78 164.63 1157.7 Q163.843 1159.6 161.737 1162.19 Q161.158 1162.86 158.056 1166.08 Q154.954 1169.27 149.306 1175.04 Z" fill="#000000" fill-rule="nonzero" fill-opacity="1" /><path clip-path="url(#clip380)" d="M175.487 1144.41 L193.843 1144.41 L193.843 1148.35 L179.769 1148.35 L179.769 1156.82 Q180.788 1156.47 181.806 1156.31 Q182.825 1156.12 183.843 1156.12 Q189.63 1156.12 193.01 1159.3 Q196.389 1162.47 196.389 1167.88 Q196.389 1173.46 192.917 1176.56 Q189.445 1179.64 183.126 1179.64 Q180.95 1179.64 178.681 1179.27 Q176.436 1178.9 174.028 1178.16 L174.028 1173.46 Q176.112 1174.6 178.334 1175.15 Q180.556 1175.71 183.033 1175.71 Q187.038 1175.71 189.375 1173.6 Q191.713 1171.5 191.713 1167.88 Q191.713 1164.27 189.375 1162.17 Q187.038 1160.06 183.033 1160.06 Q181.158 1160.06 179.283 1160.48 Q177.431 1160.89 175.487 1161.77 L175.487 1144.41 Z" fill="#000000" fill-rule="nonzero" fill-opacity="1" /><path clip-path="url(#clip380)" d="M144.329 922.778 L162.686 922.778 L162.686 926.714 L148.612 926.714 L148.612 935.186 Q149.63 934.839 150.649 934.677 Q151.667 934.491 152.686 934.491 Q158.473 934.491 161.852 937.663 Q165.232 940.834 165.232 946.251 Q165.232 951.829 161.76 954.931 Q158.288 958.01 151.968 958.01 Q149.792 958.01 147.524 957.639 Q145.279 957.269 142.871 956.528 L142.871 951.829 Q144.954 952.964 147.177 953.519 Q149.399 954.075 151.876 954.075 Q155.88 954.075 158.218 951.968 Q160.556 949.862 160.556 946.251 Q160.556 942.639 158.218 940.533 Q155.88 938.427 151.876 938.427 Q150.001 938.427 148.126 938.843 Q146.274 939.26 144.329 940.14 L144.329 922.778 Z" fill="#000000" fill-rule="nonzero" fill-opacity="1" /><path clip-path="url(#clip380)" d="M184.445 925.857 Q180.834 925.857 179.005 929.422 Q177.2 932.964 177.2 940.093 Q177.2 947.2 179.005 950.764 Q180.834 954.306 184.445 954.306 Q188.079 954.306 189.885 950.764 Q191.713 947.2 191.713 940.093 Q191.713 932.964 189.885 929.422 Q188.079 925.857 184.445 925.857 M184.445 922.153 Q190.255 922.153 193.311 926.76 Q196.389 931.343 196.389 940.093 Q196.389 948.82 193.311 953.426 Q190.255 958.01 184.445 958.01 Q178.635 958.01 175.556 953.426 Q172.501 948.82 172.501 940.093 Q172.501 931.343 175.556 926.76 Q178.635 922.153 184.445 922.153 Z" fill="#000000" fill-rule="nonzero" fill-opacity="1" /><path clip-path="url(#clip380)" d="M144.098 701.145 L166.32 701.145 L166.32 703.136 L153.774 735.705 L148.89 735.705 L160.695 705.08 L144.098 705.08 L144.098 701.145 Z" fill="#000000" fill-rule="nonzero" fill-opacity="1" /><path clip-path="url(#clip380)" d="M175.487 701.145 L193.843 701.145 L193.843 705.08 L179.769 705.08 L179.769 713.552 Q180.788 713.205 181.806 713.043 Q182.825 712.858 183.843 712.858 Q189.63 712.858 193.01 716.029 Q196.389 719.2 196.389 724.617 Q196.389 730.196 192.917 733.298 Q189.445 736.376 183.126 736.376 Q180.95 736.376 178.681 736.006 Q176.436 735.636 174.028 734.895 L174.028 730.196 Q176.112 731.33 178.334 731.886 Q180.556 732.441 183.033 732.441 Q187.038 732.441 189.375 730.335 Q191.713 728.228 191.713 724.617 Q191.713 721.006 189.375 718.9 Q187.038 716.793 183.033 716.793 Q181.158 716.793 179.283 717.21 Q177.431 717.626 175.487 718.506 L175.487 701.145 Z" fill="#000000" fill-rule="nonzero" fill-opacity="1" /><path clip-path="url(#clip380)" d="M114.931 510.136 L122.57 510.136 L122.57 483.771 L114.26 485.437 L114.26 481.178 L122.524 479.512 L127.2 479.512 L127.2 510.136 L134.839 510.136 L134.839 514.072 L114.931 514.072 L114.931 510.136 Z" fill="#000000" fill-rule="nonzero" fill-opacity="1" /><path clip-path="url(#clip380)" d="M154.283 482.59 Q150.672 482.59 148.843 486.155 Q147.038 489.697 147.038 496.826 Q147.038 503.933 148.843 507.498 Q150.672 511.039 154.283 511.039 Q157.917 511.039 159.723 507.498 Q161.552 503.933 161.552 496.826 Q161.552 489.697 159.723 486.155 Q157.917 482.59 154.283 482.59 M154.283 478.887 Q160.093 478.887 163.149 483.493 Q166.227 488.076 166.227 496.826 Q166.227 505.553 163.149 510.16 Q160.093 514.743 154.283 514.743 Q148.473 514.743 145.394 510.16 Q142.339 505.553 142.339 496.826 Q142.339 488.076 145.394 483.493 Q148.473 478.887 154.283 478.887 Z" fill="#000000" fill-rule="nonzero" fill-opacity="1" /><path clip-path="url(#clip380)" d="M184.445 482.59 Q180.834 482.59 179.005 486.155 Q177.2 489.697 177.2 496.826 Q177.2 503.933 179.005 507.498 Q180.834 511.039 184.445 511.039 Q188.079 511.039 189.885 507.498 Q191.713 503.933 191.713 496.826 Q191.713 489.697 189.885 486.155 Q188.079 482.59 184.445 482.59 M184.445 478.887 Q190.255 478.887 193.311 483.493 Q196.389 488.076 196.389 496.826 Q196.389 505.553 193.311 510.16 Q190.255 514.743 184.445 514.743 Q178.635 514.743 175.556 510.16 Q172.501 505.553 172.501 496.826 Q172.501 488.076 175.556 483.493 Q178.635 478.887 184.445 478.887 Z" fill="#000000" fill-rule="nonzero" fill-opacity="1" /><path clip-path="url(#clip380)" d="M115.927 288.503 L123.566 288.503 L123.566 262.137 L115.256 263.804 L115.256 259.545 L123.519 257.878 L128.195 257.878 L128.195 288.503 L135.834 288.503 L135.834 292.438 L115.927 292.438 L115.927 288.503 Z" fill="#000000" fill-rule="nonzero" fill-opacity="1" /><path clip-path="url(#clip380)" d="M149.306 288.503 L165.626 288.503 L165.626 292.438 L143.681 292.438 L143.681 288.503 Q146.343 285.748 150.927 281.119 Q155.533 276.466 156.714 275.123 Q158.959 272.6 159.839 270.864 Q160.741 269.105 160.741 267.415 Q160.741 264.66 158.797 262.924 Q156.876 261.188 153.774 261.188 Q151.575 261.188 149.121 261.952 Q146.691 262.716 143.913 264.267 L143.913 259.545 Q146.737 258.41 149.191 257.832 Q151.644 257.253 153.681 257.253 Q159.052 257.253 162.246 259.938 Q165.44 262.623 165.44 267.114 Q165.44 269.244 164.63 271.165 Q163.843 273.063 161.737 275.656 Q161.158 276.327 158.056 279.545 Q154.954 282.739 149.306 288.503 Z" fill="#000000" fill-rule="nonzero" fill-opacity="1" /><path clip-path="url(#clip380)" d="M175.487 257.878 L193.843 257.878 L193.843 261.813 L179.769 261.813 L179.769 270.285 Q180.788 269.938 181.806 269.776 Q182.825 269.591 183.843 269.591 Q189.63 269.591 193.01 272.762 Q196.389 275.934 196.389 281.35 Q196.389 286.929 192.917 290.031 Q189.445 293.109 183.126 293.109 Q180.95 293.109 178.681 292.739 Q176.436 292.369 174.028 291.628 L174.028 286.929 Q176.112 288.063 178.334 288.619 Q180.556 289.174 183.033 289.174 Q187.038 289.174 189.375 287.068 Q191.713 284.961 191.713 281.35 Q191.713 277.739 189.375 275.633 Q187.038 273.526 183.033 273.526 Q181.158 273.526 179.283 273.943 Q177.431 274.359 175.487 275.239 L175.487 257.878 Z" fill="#000000" fill-rule="nonzero" fill-opacity="1" /><path clip-path="url(#clip380)" d="M16.4842 931.388 L16.4842 904.079 L21.895 904.079 L21.895 924.958 L35.8996 924.958 L35.8996 906.116 L41.3104 906.116 L41.3104 924.958 L64.0042 924.958 L64.0042 931.388 L16.4842 931.388 Z" fill="#000000" fill-rule="nonzero" fill-opacity="1" /><path clip-path="url(#clip380)" d="M33.8307 878.234 Q33.2578 879.221 33.0032 880.398 Q32.7167 881.544 32.7167 882.945 Q32.7167 887.91 35.9632 890.584 Q39.1779 893.225 45.2253 893.225 L64.0042 893.225 L64.0042 899.114 L28.3562 899.114 L28.3562 893.225 L33.8944 893.225 Q30.6479 891.379 29.0883 888.419 Q27.4968 885.459 27.4968 881.226 Q27.4968 880.621 27.5923 879.889 Q27.656 879.157 27.8151 878.266 L33.8307 878.234 Z" fill="#000000" fill-rule="nonzero" fill-opacity="1" /><path clip-path="url(#clip380)" d="M44.7161 843.032 L47.5806 843.032 L47.5806 869.959 Q53.6281 869.577 56.8109 866.33 Q59.9619 863.052 59.9619 857.227 Q59.9619 853.853 59.1344 850.702 Q58.3069 847.52 56.6518 844.4 L62.1899 844.4 Q63.5267 847.551 64.227 850.862 Q64.9272 854.172 64.9272 857.577 Q64.9272 866.107 59.9619 871.105 Q54.9967 876.07 46.5303 876.07 Q37.7774 876.07 32.6531 871.359 Q27.4968 866.617 27.4968 858.596 Q27.4968 851.403 32.1438 847.233 Q36.7589 843.032 44.7161 843.032 M42.9973 848.888 Q38.1912 848.952 35.3266 851.594 Q32.4621 854.204 32.4621 858.532 Q32.4621 863.434 35.2312 866.394 Q38.0002 869.322 43.0292 869.768 L42.9973 848.888 Z" fill="#000000" fill-rule="nonzero" fill-opacity="1" /><path clip-path="url(#clip380)" d="M46.212 829.918 Q52.6732 829.918 56.3653 827.277 Q60.0256 824.603 60.0256 819.956 Q60.0256 815.309 56.3653 812.636 Q52.6732 809.962 46.212 809.962 Q39.7508 809.962 36.0905 812.636 Q32.3984 815.309 32.3984 819.956 Q32.3984 824.603 36.0905 827.277 Q39.7508 829.918 46.212 829.918 M58.657 809.962 Q61.8398 811.808 63.3994 814.641 Q64.9272 817.442 64.9272 821.388 Q64.9272 827.85 59.771 831.924 Q54.6147 835.966 46.212 835.966 Q37.8093 835.966 32.6531 831.924 Q27.4968 827.85 27.4968 821.388 Q27.4968 817.442 29.0564 814.641 Q30.5842 811.808 33.7671 809.962 L28.3562 809.962 L28.3562 804.105 L77.5631 804.105 L77.5631 809.962 L58.657 809.962 Z" fill="#000000" fill-rule="nonzero" fill-opacity="1" /><path clip-path="url(#clip380)" d="M49.9359 792.647 L28.3562 792.647 L28.3562 786.791 L49.7131 786.791 Q54.7739 786.791 57.3202 784.817 Q59.8346 782.844 59.8346 778.897 Q59.8346 774.155 56.8109 771.418 Q53.7872 768.648 48.5673 768.648 L28.3562 768.648 L28.3562 762.792 L64.0042 762.792 L64.0042 768.648 L58.5296 768.648 Q61.7762 770.781 63.3676 773.614 Q64.9272 776.415 64.9272 780.139 Q64.9272 786.282 61.1078 789.464 Q57.2883 792.647 49.9359 792.647 M27.4968 777.911 L27.4968 777.911 Z" fill="#000000" fill-rule="nonzero" fill-opacity="1" /><path clip-path="url(#clip380)" d="M44.7161 720.237 L47.5806 720.237 L47.5806 747.164 Q53.6281 746.782 56.8109 743.536 Q59.9619 740.257 59.9619 734.433 Q59.9619 731.059 59.1344 727.908 Q58.3069 724.725 56.6518 721.606 L62.1899 721.606 Q63.5267 724.757 64.227 728.067 Q64.9272 731.377 64.9272 734.783 Q64.9272 743.313 59.9619 748.31 Q54.9967 753.275 46.5303 753.275 Q37.7774 753.275 32.6531 748.565 Q27.4968 743.822 27.4968 735.801 Q27.4968 728.608 32.1438 724.439 Q36.7589 720.237 44.7161 720.237 M42.9973 726.094 Q38.1912 726.157 35.3266 728.799 Q32.4621 731.409 32.4621 735.738 Q32.4621 740.639 35.2312 743.599 Q38.0002 746.528 43.0292 746.973 L42.9973 726.094 Z" fill="#000000" fill-rule="nonzero" fill-opacity="1" /><path clip-path="url(#clip380)" d="M42.4881 680.993 L64.0042 680.993 L64.0042 686.849 L42.679 686.849 Q37.6183 686.849 35.1038 688.823 Q32.5894 690.796 32.5894 694.743 Q32.5894 699.485 35.6131 702.222 Q38.6368 704.96 43.8567 704.96 L64.0042 704.96 L64.0042 710.848 L28.3562 710.848 L28.3562 704.96 L33.8944 704.96 Q30.6797 702.859 29.0883 700.026 Q27.4968 697.162 27.4968 693.438 Q27.4968 687.295 31.3163 684.144 Q35.1038 680.993 42.4881 680.993 Z" fill="#000000" fill-rule="nonzero" fill-opacity="1" /><path clip-path="url(#clip380)" d="M29.7248 643.658 L35.1993 643.658 Q33.8307 646.14 33.1623 648.655 Q32.4621 651.138 32.4621 653.684 Q32.4621 659.381 36.0905 662.532 Q39.6872 665.683 46.212 665.683 Q52.7369 665.683 56.3653 662.532 Q59.9619 659.381 59.9619 653.684 Q59.9619 651.138 59.2935 648.655 Q58.5933 646.14 57.2247 643.658 L62.6355 643.658 Q63.7814 646.109 64.3543 648.75 Q64.9272 651.36 64.9272 654.32 Q64.9272 662.373 59.8664 667.115 Q54.8057 671.858 46.212 671.858 Q37.491 671.858 32.4939 667.084 Q27.4968 662.278 27.4968 653.938 Q27.4968 651.233 28.0697 648.655 Q28.6108 646.077 29.7248 643.658 Z" fill="#000000" fill-rule="nonzero" fill-opacity="1" /><path clip-path="url(#clip380)" d="M67.3143 618.641 Q73.68 621.123 75.6216 623.479 Q77.5631 625.834 77.5631 629.781 L77.5631 634.459 L72.6615 634.459 L72.6615 631.022 Q72.6615 628.603 71.5157 627.266 Q70.3699 625.929 66.1048 624.306 L63.4312 623.256 L28.3562 637.674 L28.3562 631.468 L56.238 620.328 L28.3562 609.188 L28.3562 602.981 L67.3143 618.641 Z" fill="#000000" fill-rule="nonzero" fill-opacity="1" /><path clip-path="url(#clip380)" d="M528.39 12.096 L540.583 12.096 L556.017 53.2532 L571.532 12.096 L583.725 12.096 L583.725 72.576 L575.745 72.576 L575.745 19.4686 L560.149 60.9499 L551.926 60.9499 L536.33 19.4686 L536.33 72.576 L528.39 72.576 L528.39 12.096 Z" fill="#000000" fill-rule="nonzero" fill-opacity="1" /><path clip-path="url(#clip380)" d="M599.645 27.2059 L607.099 27.2059 L607.099 72.576 L599.645 72.576 L599.645 27.2059 M599.645 9.54393 L607.099 9.54393 L607.099 18.9825 L599.645 18.9825 L599.645 9.54393 Z" fill="#000000" fill-rule="nonzero" fill-opacity="1" /><path clip-path="url(#clip380)" d="M652.55 34.0924 L652.55 9.54393 L660.004 9.54393 L660.004 72.576 L652.55 72.576 L652.55 65.7705 Q650.2 69.8214 646.595 71.8063 Q643.03 73.7508 638.007 73.7508 Q629.784 73.7508 624.599 67.1883 Q619.454 60.6258 619.454 49.9314 Q619.454 39.2371 624.599 32.6746 Q629.784 26.1121 638.007 26.1121 Q643.03 26.1121 646.595 28.0971 Q650.2 30.0415 652.55 34.0924 M627.151 49.9314 Q627.151 58.1548 630.513 62.8538 Q633.916 67.5124 639.83 67.5124 Q645.744 67.5124 649.147 62.8538 Q652.55 58.1548 652.55 49.9314 Q652.55 41.7081 649.147 37.0496 Q645.744 32.3505 639.83 32.3505 Q633.916 32.3505 630.513 37.0496 Q627.151 41.7081 627.151 49.9314 Z" fill="#000000" fill-rule="nonzero" fill-opacity="1" /><path clip-path="url(#clip380)" d="M705.212 34.0924 L705.212 9.54393 L712.665 9.54393 L712.665 72.576 L705.212 72.576 L705.212 65.7705 Q702.862 69.8214 699.257 71.8063 Q695.692 73.7508 690.669 73.7508 Q682.446 73.7508 677.261 67.1883 Q672.116 60.6258 672.116 49.9314 Q672.116 39.2371 677.261 32.6746 Q682.446 26.1121 690.669 26.1121 Q695.692 26.1121 699.257 28.0971 Q702.862 30.0415 705.212 34.0924 M679.813 49.9314 Q679.813 58.1548 683.175 62.8538 Q686.578 67.5124 692.492 67.5124 Q698.406 67.5124 701.809 62.8538 Q705.212 58.1548 705.212 49.9314 Q705.212 41.7081 701.809 37.0496 Q698.406 32.3505 692.492 32.3505 Q686.578 32.3505 683.175 37.0496 Q679.813 41.7081 679.813 49.9314 Z" fill="#000000" fill-rule="nonzero" fill-opacity="1" /><path clip-path="url(#clip380)" d="M728.018 9.54393 L735.472 9.54393 L735.472 72.576 L728.018 72.576 L728.018 9.54393 Z" fill="#000000" fill-rule="nonzero" fill-opacity="1" /><path clip-path="url(#clip380)" d="M789.876 48.0275 L789.876 51.6733 L755.605 51.6733 Q756.091 59.3701 760.223 63.421 Q764.395 67.4314 771.809 67.4314 Q776.103 67.4314 780.113 66.3781 Q784.164 65.3249 788.134 63.2184 L788.134 70.267 Q784.123 71.9684 779.91 72.8596 Q775.698 73.7508 771.363 73.7508 Q760.507 73.7508 754.147 67.4314 Q747.827 61.1119 747.827 50.3365 Q747.827 39.1965 753.823 32.6746 Q759.858 26.1121 770.067 26.1121 Q779.222 26.1121 784.528 32.0264 Q789.876 37.9003 789.876 48.0275 M782.422 45.84 Q782.341 39.7232 778.979 36.0774 Q775.657 32.4315 770.148 32.4315 Q763.909 32.4315 760.142 35.9558 Q756.415 39.4801 755.848 45.8805 L782.422 45.84 Z" fill="#000000" fill-rule="nonzero" fill-opacity="1" /><path clip-path="url(#clip380)" d="M866.195 45.1919 L866.195 72.576 L858.741 72.576 L858.741 45.4349 Q858.741 38.994 856.229 35.7938 Q853.718 32.5936 848.695 32.5936 Q842.659 32.5936 839.175 36.4419 Q835.691 40.2903 835.691 46.9338 L835.691 72.576 L828.197 72.576 L828.197 9.54393 L835.691 9.54393 L835.691 34.2544 Q838.365 30.163 841.97 28.1376 Q845.616 26.1121 850.356 26.1121 Q858.174 26.1121 862.184 30.9732 Q866.195 35.7938 866.195 45.1919 Z" fill="#000000" fill-rule="nonzero" fill-opacity="1" /><path clip-path="url(#clip380)" d="M901.681 49.7694 Q892.647 49.7694 889.163 51.8354 Q885.68 53.9013 885.68 58.8839 Q885.68 62.8538 888.272 65.2034 Q890.905 67.5124 895.402 67.5124 Q901.6 67.5124 905.326 63.1374 Q909.094 58.7219 909.094 51.4303 L909.094 49.7694 L901.681 49.7694 M916.547 46.6907 L916.547 72.576 L909.094 72.576 L909.094 65.6895 Q906.542 69.8214 902.734 71.8063 Q898.926 73.7508 893.417 73.7508 Q886.449 73.7508 882.317 69.8619 Q878.226 65.9325 878.226 59.3701 Q878.226 51.7138 883.33 47.825 Q888.475 43.9361 898.642 43.9361 L909.094 43.9361 L909.094 43.2069 Q909.094 38.0623 905.691 35.2672 Q902.329 32.4315 896.212 32.4315 Q892.323 32.4315 888.637 33.3632 Q884.95 34.295 881.548 36.1584 L881.548 29.2718 Q885.639 27.692 889.487 26.9223 Q893.336 26.1121 896.982 26.1121 Q906.825 26.1121 911.686 31.2163 Q916.547 36.3204 916.547 46.6907 Z" fill="#000000" fill-rule="nonzero" fill-opacity="1" /><path clip-path="url(#clip380)" d="M931.9 9.54393 L939.354 9.54393 L939.354 72.576 L931.9 72.576 L931.9 9.54393 Z" fill="#000000" fill-rule="nonzero" fill-opacity="1" /><path clip-path="url(#clip380)" d="M977.919 9.54393 L977.919 15.7418 L970.789 15.7418 Q966.779 15.7418 965.199 17.3622 Q963.659 18.9825 963.659 23.1955 L963.659 27.2059 L975.934 27.2059 L975.934 32.9987 L963.659 32.9987 L963.659 72.576 L956.165 72.576 L956.165 32.9987 L949.036 32.9987 L949.036 27.2059 L956.165 27.2059 L956.165 24.0462 Q956.165 16.471 959.69 13.0277 Q963.214 9.54393 970.87 9.54393 L977.919 9.54393 Z" fill="#000000" fill-rule="nonzero" fill-opacity="1" /><path clip-path="url(#clip380)" d="M1028.11 32.4315 Q1022.11 32.4315 1018.63 37.1306 Q1015.15 41.7891 1015.15 49.9314 Q1015.15 58.0738 1018.59 62.7728 Q1022.07 67.4314 1028.11 67.4314 Q1034.06 67.4314 1037.55 62.7323 Q1041.03 58.0333 1041.03 49.9314 Q1041.03 41.8701 1037.55 37.1711 Q1034.06 32.4315 1028.11 32.4315 M1028.11 26.1121 Q1037.83 26.1121 1043.38 32.4315 Q1048.93 38.7509 1048.93 49.9314 Q1048.93 61.0714 1043.38 67.4314 Q1037.83 73.7508 1028.11 73.7508 Q1018.35 73.7508 1012.8 67.4314 Q1007.29 61.0714 1007.29 49.9314 Q1007.29 38.7509 1012.8 32.4315 Q1018.35 26.1121 1028.11 26.1121 Z" fill="#000000" fill-rule="nonzero" fill-opacity="1" /><path clip-path="url(#clip380)" d="M1084.25 9.54393 L1084.25 15.7418 L1077.13 15.7418 Q1073.11 15.7418 1071.54 17.3622 Q1070 18.9825 1070 23.1955 L1070 27.2059 L1082.27 27.2059 L1082.27 32.9987 L1070 32.9987 L1070 72.576 L1062.5 72.576 L1062.5 32.9987 L1055.37 32.9987 L1055.37 27.2059 L1062.5 27.2059 L1062.5 24.0462 Q1062.5 16.471 1066.03 13.0277 Q1069.55 9.54393 1077.21 9.54393 L1084.25 9.54393 Z" fill="#000000" fill-rule="nonzero" fill-opacity="1" /><path clip-path="url(#clip380)" d="M1145.79 28.5427 L1145.79 35.5912 Q1142.63 33.9709 1139.23 33.1607 Q1135.82 32.3505 1132.18 32.3505 Q1126.63 32.3505 1123.83 34.0519 Q1121.08 35.7533 1121.08 39.156 Q1121.08 41.7486 1123.06 43.2475 Q1125.05 44.7058 1131.04 46.0426 L1133.59 46.6097 Q1141.53 48.3111 1144.86 51.4303 Q1148.22 54.509 1148.22 60.0587 Q1148.22 66.3781 1143.2 70.0644 Q1138.21 73.7508 1129.46 73.7508 Q1125.82 73.7508 1121.85 73.0216 Q1117.92 72.3329 1113.54 70.9151 L1113.54 63.2184 Q1117.67 65.3654 1121.69 66.4591 Q1125.7 67.5124 1129.63 67.5124 Q1134.89 67.5124 1137.73 65.73 Q1140.56 63.9071 1140.56 60.6258 Q1140.56 57.5877 1138.5 55.9673 Q1136.47 54.3469 1129.54 52.8481 L1126.95 52.2405 Q1120.02 50.7821 1116.95 47.7845 Q1113.87 44.7463 1113.87 39.4801 Q1113.87 33.0797 1118.4 29.5959 Q1122.94 26.1121 1131.29 26.1121 Q1135.42 26.1121 1139.06 26.7198 Q1142.71 27.3274 1145.79 28.5427 Z" fill="#000000" fill-rule="nonzero" fill-opacity="1" /><path clip-path="url(#clip380)" d="M1177.67 32.4315 Q1171.67 32.4315 1168.19 37.1306 Q1164.71 41.7891 1164.71 49.9314 Q1164.71 58.0738 1168.15 62.7728 Q1171.63 67.4314 1177.67 67.4314 Q1183.62 67.4314 1187.11 62.7323 Q1190.59 58.0333 1190.59 49.9314 Q1190.59 41.8701 1187.11 37.1711 Q1183.62 32.4315 1177.67 32.4315 M1177.67 26.1121 Q1187.39 26.1121 1192.94 32.4315 Q1198.49 38.7509 1198.49 49.9314 Q1198.49 61.0714 1192.94 67.4314 Q1187.39 73.7508 1177.67 73.7508 Q1167.91 73.7508 1162.36 67.4314 Q1156.85 61.0714 1156.85 49.9314 Q1156.85 38.7509 1162.36 32.4315 Q1167.91 26.1121 1177.67 26.1121 Z" fill="#000000" fill-rule="nonzero" fill-opacity="1" /><path clip-path="url(#clip380)" d="M1237.14 34.1734 Q1235.88 33.4443 1234.38 33.1202 Q1232.92 32.7556 1231.14 32.7556 Q1224.82 32.7556 1221.42 36.8875 Q1218.06 40.9789 1218.06 48.6757 L1218.06 72.576 L1210.56 72.576 L1210.56 27.2059 L1218.06 27.2059 L1218.06 34.2544 Q1220.41 30.1225 1224.17 28.1376 Q1227.94 26.1121 1233.33 26.1121 Q1234.1 26.1121 1235.03 26.2337 Q1235.96 26.3147 1237.1 26.5172 L1237.14 34.1734 Z" fill="#000000" fill-rule="nonzero" fill-opacity="1" /><path clip-path="url(#clip380)" d="M1252.33 14.324 L1252.33 27.2059 L1267.68 27.2059 L1267.68 32.9987 L1252.33 32.9987 L1252.33 57.6282 Q1252.33 63.1779 1253.83 64.7578 Q1255.37 66.3376 1260.02 66.3376 L1267.68 66.3376 L1267.68 72.576 L1260.02 72.576 Q1251.4 72.576 1248.11 69.3758 Q1244.83 66.1351 1244.83 57.6282 L1244.83 32.9987 L1239.36 32.9987 L1239.36 27.2059 L1244.83 27.2059 L1244.83 14.324 L1252.33 14.324 Z" fill="#000000" fill-rule="nonzero" fill-opacity="1" /><path clip-path="url(#clip380)" d="M1316.29 48.0275 L1316.29 51.6733 L1282.02 51.6733 Q1282.51 59.3701 1286.64 63.421 Q1290.81 67.4314 1298.22 67.4314 Q1302.52 67.4314 1306.53 66.3781 Q1310.58 65.3249 1314.55 63.2184 L1314.55 70.267 Q1310.54 71.9684 1306.33 72.8596 Q1302.11 73.7508 1297.78 73.7508 Q1286.92 73.7508 1280.56 67.4314 Q1274.24 61.1119 1274.24 50.3365 Q1274.24 39.1965 1280.24 32.6746 Q1286.27 26.1121 1296.48 26.1121 Q1305.64 26.1121 1310.94 32.0264 Q1316.29 37.9003 1316.29 48.0275 M1308.84 45.84 Q1308.76 39.7232 1305.39 36.0774 Q1302.07 32.4315 1296.56 32.4315 Q1290.32 32.4315 1286.56 35.9558 Q1282.83 39.4801 1282.26 45.8805 L1308.84 45.84 Z" fill="#000000" fill-rule="nonzero" fill-opacity="1" /><path clip-path="url(#clip380)" d="M1358.38 34.0924 L1358.38 9.54393 L1365.83 9.54393 L1365.83 72.576 L1358.38 72.576 L1358.38 65.7705 Q1356.03 69.8214 1352.42 71.8063 Q1348.86 73.7508 1343.84 73.7508 Q1335.61 73.7508 1330.43 67.1883 Q1325.28 60.6258 1325.28 49.9314 Q1325.28 39.2371 1330.43 32.6746 Q1335.61 26.1121 1343.84 26.1121 Q1348.86 26.1121 1352.42 28.0971 Q1356.03 30.0415 1358.38 34.0924 M1332.98 49.9314 Q1332.98 58.1548 1336.34 62.8538 Q1339.75 67.5124 1345.66 67.5124 Q1351.57 67.5124 1354.98 62.8538 Q1358.38 58.1548 1358.38 49.9314 Q1358.38 41.7081 1354.98 37.0496 Q1351.57 32.3505 1345.66 32.3505 Q1339.75 32.3505 1336.34 37.0496 Q1332.98 41.7081 1332.98 49.9314 Z" fill="#000000" fill-rule="nonzero" fill-opacity="1" /><path clip-path="url(#clip380)" d="M1437.41 34.0924 L1437.41 9.54393 L1444.87 9.54393 L1444.87 72.576 L1437.41 72.576 L1437.41 65.7705 Q1435.06 69.8214 1431.46 71.8063 Q1427.89 73.7508 1422.87 73.7508 Q1414.65 73.7508 1409.46 67.1883 Q1404.32 60.6258 1404.32 49.9314 Q1404.32 39.2371 1409.46 32.6746 Q1414.65 26.1121 1422.87 26.1121 Q1427.89 26.1121 1431.46 28.0971 Q1435.06 30.0415 1437.41 34.0924 M1412.01 49.9314 Q1412.01 58.1548 1415.38 62.8538 Q1418.78 67.5124 1424.69 67.5124 Q1430.61 67.5124 1434.01 62.8538 Q1437.41 58.1548 1437.41 49.9314 Q1437.41 41.7081 1434.01 37.0496 Q1430.61 32.3505 1424.69 32.3505 Q1418.78 32.3505 1415.38 37.0496 Q1412.01 41.7081 1412.01 49.9314 Z" fill="#000000" fill-rule="nonzero" fill-opacity="1" /><path clip-path="url(#clip380)" d="M1499.03 48.0275 L1499.03 51.6733 L1464.76 51.6733 Q1465.24 59.3701 1469.37 63.421 Q1473.55 67.4314 1480.96 67.4314 Q1485.25 67.4314 1489.26 66.3781 Q1493.32 65.3249 1497.29 63.2184 L1497.29 70.267 Q1493.27 71.9684 1489.06 72.8596 Q1484.85 73.7508 1480.51 73.7508 Q1469.66 73.7508 1463.3 67.4314 Q1456.98 61.1119 1456.98 50.3365 Q1456.98 39.1965 1462.97 32.6746 Q1469.01 26.1121 1479.22 26.1121 Q1488.37 26.1121 1493.68 32.0264 Q1499.03 37.9003 1499.03 48.0275 M1491.57 45.84 Q1491.49 39.7232 1488.13 36.0774 Q1484.81 32.4315 1479.3 32.4315 Q1473.06 32.4315 1469.29 35.9558 Q1465.57 39.4801 1465 45.8805 L1491.57 45.84 Z" fill="#000000" fill-rule="nonzero" fill-opacity="1" /><path clip-path="url(#clip380)" d="M1541.12 49.3643 Q1541.12 41.2625 1537.75 36.8065 Q1534.43 32.3505 1528.4 32.3505 Q1522.4 32.3505 1519.04 36.8065 Q1515.72 41.2625 1515.72 49.3643 Q1515.72 57.4256 1519.04 61.8816 Q1522.4 66.3376 1528.4 66.3376 Q1534.43 66.3376 1537.75 61.8816 Q1541.12 57.4256 1541.12 49.3643 M1548.57 66.9452 Q1548.57 78.5308 1543.42 84.1616 Q1538.28 89.8329 1527.67 89.8329 Q1523.74 89.8329 1520.25 89.2252 Q1516.77 88.6581 1513.49 87.4428 L1513.49 80.1917 Q1516.77 81.9741 1519.97 82.8248 Q1523.17 83.6755 1526.49 83.6755 Q1533.82 83.6755 1537.47 79.8271 Q1541.12 76.0193 1541.12 68.282 L1541.12 64.5957 Q1538.81 68.6061 1535.2 70.5911 Q1531.6 72.576 1526.57 72.576 Q1518.23 72.576 1513.12 66.2161 Q1508.02 59.8562 1508.02 49.3643 Q1508.02 38.832 1513.12 32.472 Q1518.23 26.1121 1526.57 26.1121 Q1531.6 26.1121 1535.2 28.0971 Q1538.81 30.082 1541.12 34.0924 L1541.12 27.2059 L1548.57 27.2059 L1548.57 66.9452 Z" fill="#000000" fill-rule="nonzero" fill-opacity="1" /><path clip-path="url(#clip380)" d="M1590.21 34.1734 Q1588.96 33.4443 1587.46 33.1202 Q1586 32.7556 1584.22 32.7556 Q1577.9 32.7556 1574.5 36.8875 Q1571.13 40.9789 1571.13 48.6757 L1571.13 72.576 L1563.64 72.576 L1563.64 27.2059 L1571.13 27.2059 L1571.13 34.2544 Q1573.48 30.1225 1577.25 28.1376 Q1581.02 26.1121 1586.4 26.1121 Q1587.17 26.1121 1588.11 26.2337 Q1589.04 26.3147 1590.17 26.5172 L1590.21 34.1734 Z" fill="#000000" fill-rule="nonzero" fill-opacity="1" /><path clip-path="url(#clip380)" d="M1635.02 48.0275 L1635.02 51.6733 L1600.75 51.6733 Q1601.23 59.3701 1605.36 63.421 Q1609.54 67.4314 1616.95 67.4314 Q1621.24 67.4314 1625.25 66.3781 Q1629.3 65.3249 1633.27 63.2184 L1633.27 70.267 Q1629.26 71.9684 1625.05 72.8596 Q1620.84 73.7508 1616.5 73.7508 Q1605.65 73.7508 1599.29 67.4314 Q1592.97 61.1119 1592.97 50.3365 Q1592.97 39.1965 1598.96 32.6746 Q1605 26.1121 1615.21 26.1121 Q1624.36 26.1121 1629.67 32.0264 Q1635.02 37.9003 1635.02 48.0275 M1627.56 45.84 Q1627.48 39.7232 1624.12 36.0774 Q1620.8 32.4315 1615.29 32.4315 Q1609.05 32.4315 1605.28 35.9558 Q1601.56 39.4801 1600.99 45.8805 L1627.56 45.84 Z" fill="#000000" fill-rule="nonzero" fill-opacity="1" /><path clip-path="url(#clip380)" d="M1686.06 48.0275 L1686.06 51.6733 L1651.79 51.6733 Q1652.27 59.3701 1656.4 63.421 Q1660.58 67.4314 1667.99 67.4314 Q1672.28 67.4314 1676.29 66.3781 Q1680.35 65.3249 1684.32 63.2184 L1684.32 70.267 Q1680.3 71.9684 1676.09 72.8596 Q1671.88 73.7508 1667.54 73.7508 Q1656.69 73.7508 1650.33 67.4314 Q1644.01 61.1119 1644.01 50.3365 Q1644.01 39.1965 1650 32.6746 Q1656.04 26.1121 1666.25 26.1121 Q1675.4 26.1121 1680.71 32.0264 Q1686.06 37.9003 1686.06 48.0275 M1678.6 45.84 Q1678.52 39.7232 1675.16 36.0774 Q1671.84 32.4315 1666.33 32.4315 Q1660.09 32.4315 1656.32 35.9558 Q1652.6 39.4801 1652.03 45.8805 L1678.6 45.84 Z" fill="#000000" fill-rule="nonzero" fill-opacity="1" /><path clip-path="url(#clip380)" d="M1727.21 28.5427 L1727.21 35.5912 Q1724.05 33.9709 1720.65 33.1607 Q1717.25 32.3505 1713.6 32.3505 Q1708.05 32.3505 1705.26 34.0519 Q1702.5 35.7533 1702.5 39.156 Q1702.5 41.7486 1704.49 43.2475 Q1706.47 44.7058 1712.47 46.0426 L1715.02 46.6097 Q1722.96 48.3111 1726.28 51.4303 Q1729.64 54.509 1729.64 60.0587 Q1729.64 66.3781 1724.62 70.0644 Q1719.64 73.7508 1710.89 73.7508 Q1707.24 73.7508 1703.27 73.0216 Q1699.34 72.3329 1694.97 70.9151 L1694.97 63.2184 Q1699.1 65.3654 1703.11 66.4591 Q1707.12 67.5124 1711.05 67.5124 Q1716.32 67.5124 1719.15 65.73 Q1721.99 63.9071 1721.99 60.6258 Q1721.99 57.5877 1719.92 55.9673 Q1717.9 54.3469 1710.97 52.8481 L1708.38 52.2405 Q1701.45 50.7821 1698.37 47.7845 Q1695.29 44.7463 1695.29 39.4801 Q1695.29 33.0797 1699.83 29.5959 Q1704.37 26.1121 1712.71 26.1121 Q1716.84 26.1121 1720.49 26.7198 Q1724.14 27.3274 1727.21 28.5427 Z" fill="#000000" fill-rule="nonzero" fill-opacity="1" /><path clip-path="url(#clip380)" d="M1767.2 9.54393 L1784.37 9.54393 L1784.37 15.3367 L1774.65 15.3367 L1774.65 77.7206 L1784.37 77.7206 L1784.37 83.5134 L1767.2 83.5134 L1767.2 9.54393 Z" fill="#000000" fill-rule="nonzero" fill-opacity="1" /><path clip-path="url(#clip380)" d="M1802.72 65.6895 L1816.09 65.6895 L1816.09 19.5497 L1801.55 22.4663 L1801.55 15.0127 L1816.01 12.096 L1824.19 12.096 L1824.19 65.6895 L1837.56 65.6895 L1837.56 72.576 L1802.72 72.576 L1802.72 65.6895 Z" fill="#000000" fill-rule="nonzero" fill-opacity="1" /><path clip-path="url(#clip380)" d="M1854.94 62.2867 L1863.49 62.2867 L1863.49 72.576 L1854.94 72.576 L1854.94 62.2867 M1854.94 29.6769 L1863.49 29.6769 L1863.49 39.9662 L1854.94 39.9662 L1854.94 29.6769 Z" fill="#000000" fill-rule="nonzero" fill-opacity="1" /><path clip-path="url(#clip380)" d="M1889.09 65.6895 L1917.65 65.6895 L1917.65 72.576 L1879.24 72.576 L1879.24 65.6895 Q1883.9 60.8689 1891.92 52.7671 Q1899.99 44.6248 1902.05 42.2752 Q1905.98 37.8598 1907.52 34.8216 Q1909.1 31.7429 1909.1 28.7857 Q1909.1 23.9651 1905.7 20.927 Q1902.33 17.8888 1896.91 17.8888 Q1893.06 17.8888 1888.76 19.2256 Q1884.51 20.5624 1879.65 23.2765 L1879.65 15.0127 Q1884.59 13.0277 1888.89 12.015 Q1893.18 11.0023 1896.74 11.0023 Q1906.14 11.0023 1911.73 15.7013 Q1917.32 20.4004 1917.32 28.2591 Q1917.32 31.9859 1915.91 35.3482 Q1914.53 38.6699 1910.84 43.2069 Q1909.83 44.3817 1904.4 50.0125 Q1898.97 55.6027 1889.09 65.6895 Z" fill="#000000" fill-rule="nonzero" fill-opacity="1" /><path clip-path="url(#clip380)" d="M1952.32 17.4837 Q1946 17.4837 1942.8 23.7221 Q1939.64 29.92 1939.64 42.3968 Q1939.64 54.833 1942.8 61.0714 Q1946 67.2693 1952.32 67.2693 Q1958.68 67.2693 1961.84 61.0714 Q1965.04 54.833 1965.04 42.3968 Q1965.04 29.92 1961.84 23.7221 Q1958.68 17.4837 1952.32 17.4837 M1952.32 11.0023 Q1962.49 11.0023 1967.84 19.0636 Q1973.23 27.0843 1973.23 42.3968 Q1973.23 57.6687 1967.84 65.73 Q1962.49 73.7508 1952.32 73.7508 Q1942.16 73.7508 1936.77 65.73 Q1931.42 57.6687 1931.42 42.3968 Q1931.42 27.0843 1936.77 19.0636 Q1942.16 11.0023 1952.32 11.0023 Z" fill="#000000" fill-rule="nonzero" fill-opacity="1" /><path clip-path="url(#clip380)" d="M2005.11 17.4837 Q1998.79 17.4837 1995.59 23.7221 Q1992.43 29.92 1992.43 42.3968 Q1992.43 54.833 1995.59 61.0714 Q1998.79 67.2693 2005.11 67.2693 Q2011.47 67.2693 2014.63 61.0714 Q2017.83 54.833 2017.83 42.3968 Q2017.83 29.92 2014.63 23.7221 Q2011.47 17.4837 2005.11 17.4837 M2005.11 11.0023 Q2015.27 11.0023 2020.62 19.0636 Q2026.01 27.0843 2026.01 42.3968 Q2026.01 57.6687 2020.62 65.73 Q2015.27 73.7508 2005.11 73.7508 Q1994.94 73.7508 1989.55 65.73 Q1984.2 57.6687 1984.2 42.3968 Q1984.2 27.0843 1989.55 19.0636 Q1994.94 11.0023 2005.11 11.0023 Z" fill="#000000" fill-rule="nonzero" fill-opacity="1" /><path clip-path="url(#clip380)" d="M2056.76 9.54393 L2056.76 83.5134 L2039.58 83.5134 L2039.58 77.7206 L2049.26 77.7206 L2049.26 15.3367 L2039.58 15.3367 L2039.58 9.54393 L2056.76 9.54393 Z" fill="#000000" fill-rule="nonzero" fill-opacity="1" /><polyline clip-path="url(#clip382)" style="stroke:#000000; stroke-linecap:round; stroke-linejoin:round; stroke-width:4; stroke-opacity:1; fill:none" points="292.4,159.909 692.469,159.909 "/>
<polyline clip-path="url(#clip382)" style="stroke:#000000; stroke-linecap:round; stroke-linejoin:round; stroke-width:4; stroke-opacity:1; fill:none" points="692.469,1347.86 1092.54,1347.86 "/>
<polyline clip-path="url(#clip382)" style="stroke:#000000; stroke-linecap:round; stroke-linejoin:round; stroke-width:4; stroke-opacity:1; fill:none" points="1092.54,1126.23 1492.61,1126.23 "/>
<polyline clip-path="url(#clip382)" style="stroke:#000000; stroke-linecap:round; stroke-linejoin:round; stroke-width:4; stroke-opacity:1; fill:none" points="1492.61,1135.1 1892.68,1135.1 "/>
<polyline clip-path="url(#clip382)" style="stroke:#000000; stroke-linecap:round; stroke-linejoin:round; stroke-width:4; stroke-opacity:1; fill:none" points="1892.68,1374.46 2292.75,1374.46 "/>
<line clip-path="url(#clip382)" x1="292.4" y1="175.909" x2="292.4" y2="143.909" style="stroke:#000000; stroke-width:3.2; stroke-opacity:1"/>
<line clip-path="url(#clip382)" x1="692.469" y1="175.909" x2="692.469" y2="143.909" style="stroke:#000000; stroke-width:3.2; stroke-opacity:1"/>
<line clip-path="url(#clip382)" x1="692.469" y1="1363.86" x2="692.469" y2="1331.86" style="stroke:#000000; stroke-width:3.2; stroke-opacity:1"/>
<line clip-path="url(#clip382)" x1="1092.54" y1="1363.86" x2="1092.54" y2="1331.86" style="stroke:#000000; stroke-width:3.2; stroke-opacity:1"/>
<line clip-path="url(#clip382)" x1="1092.54" y1="1142.23" x2="1092.54" y2="1110.23" style="stroke:#000000; stroke-width:3.2; stroke-opacity:1"/>
<line clip-path="url(#clip382)" x1="1492.61" y1="1142.23" x2="1492.61" y2="1110.23" style="stroke:#000000; stroke-width:3.2; stroke-opacity:1"/>
<line clip-path="url(#clip382)" x1="1492.61" y1="1151.1" x2="1492.61" y2="1119.1" style="stroke:#000000; stroke-width:3.2; stroke-opacity:1"/>
<line clip-path="url(#clip382)" x1="1892.68" y1="1151.1" x2="1892.68" y2="1119.1" style="stroke:#000000; stroke-width:3.2; stroke-opacity:1"/>
<line clip-path="url(#clip382)" x1="1892.68" y1="1390.46" x2="1892.68" y2="1358.46" style="stroke:#000000; stroke-width:3.2; stroke-opacity:1"/>
<line clip-path="url(#clip382)" x1="2292.75" y1="1390.46" x2="2292.75" y2="1358.46" style="stroke:#000000; stroke-width:3.2; stroke-opacity:1"/>
<circle clip-path="url(#clip382)" cx="492.434" cy="159.909" r="14.4" fill="#009af9" fill-rule="evenodd" fill-opacity="1" stroke="#000000" stroke-opacity="1" stroke-width="3.2"/>
<circle clip-path="url(#clip382)" cx="892.503" cy="1347.86" r="14.4" fill="#009af9" fill-rule="evenodd" fill-opacity="1" stroke="#000000" stroke-opacity="1" stroke-width="3.2"/>
<circle clip-path="url(#clip382)" cx="1292.57" cy="1126.23" r="14.4" fill="#009af9" fill-rule="evenodd" fill-opacity="1" stroke="#000000" stroke-opacity="1" stroke-width="3.2"/>
<circle clip-path="url(#clip382)" cx="1692.64" cy="1135.1" r="14.4" fill="#009af9" fill-rule="evenodd" fill-opacity="1" stroke="#000000" stroke-opacity="1" stroke-width="3.2"/>
<circle clip-path="url(#clip382)" cx="2092.71" cy="1374.46" r="14.4" fill="#009af9" fill-rule="evenodd" fill-opacity="1" stroke="#000000" stroke-opacity="1" stroke-width="3.2"/>
<path clip-path="url(#clip380)" d="M1904.58 270.066 L2282.08 270.066 L2282.08 166.386 L1904.58 166.386  Z" fill="#ffffff" fill-rule="evenodd" fill-opacity="1"/>
<polyline clip-path="url(#clip380)" style="stroke:#000000; stroke-linecap:round; stroke-linejoin:round; stroke-width:4; stroke-opacity:1; fill:none" points="1904.58,270.066 2282.08,270.066 2282.08,166.386 1904.58,166.386 1904.58,270.066 "/>
<circle clip-path="url(#clip380)" cx="1998.82" cy="218.226" r="20.48" fill="#009af9" fill-rule="evenodd" fill-opacity="1" stroke="#000000" stroke-opacity="1" stroke-width="4.55111"/>
<path clip-path="url(#clip380)" d="M2093.06 199.488 L2102.87 199.488 L2102.87 202.798 L2097.31 202.798 L2097.31 238.446 L2102.87 238.446 L2102.87 241.756 L2093.06 241.756 L2093.06 199.488 Z" fill="#000000" fill-rule="nonzero" fill-opacity="1" /><path clip-path="url(#clip380)" d="M2113.36 231.571 L2120.99 231.571 L2120.99 205.206 L2112.68 206.872 L2112.68 202.613 L2120.95 200.946 L2125.62 200.946 L2125.62 231.571 L2133.26 231.571 L2133.26 235.506 L2113.36 235.506 L2113.36 231.571 Z" fill="#000000" fill-rule="nonzero" fill-opacity="1" /><path clip-path="url(#clip380)" d="M2143.19 229.627 L2148.08 229.627 L2148.08 235.506 L2143.19 235.506 L2143.19 229.627 M2143.19 210.993 L2148.08 210.993 L2148.08 216.872 L2143.19 216.872 L2143.19 210.993 Z" fill="#000000" fill-rule="nonzero" fill-opacity="1" /><path clip-path="url(#clip380)" d="M2162.71 231.571 L2179.03 231.571 L2179.03 235.506 L2157.08 235.506 L2157.08 231.571 Q2159.74 228.816 2164.33 224.187 Q2168.93 219.534 2170.12 218.192 Q2172.36 215.668 2173.24 213.932 Q2174.14 212.173 2174.14 210.483 Q2174.14 207.729 2172.2 205.993 Q2170.28 204.256 2167.18 204.256 Q2164.98 204.256 2162.52 205.02 Q2160.09 205.784 2157.31 207.335 L2157.31 202.613 Q2160.14 201.479 2162.59 200.9 Q2165.05 200.321 2167.08 200.321 Q2172.45 200.321 2175.65 203.006 Q2178.84 205.692 2178.84 210.182 Q2178.84 212.312 2178.03 214.233 Q2177.24 216.131 2175.14 218.724 Q2174.56 219.395 2171.46 222.613 Q2168.36 225.807 2162.71 231.571 Z" fill="#000000" fill-rule="nonzero" fill-opacity="1" /><path clip-path="url(#clip380)" d="M2198.84 204.025 Q2195.23 204.025 2193.4 207.59 Q2191.6 211.131 2191.6 218.261 Q2191.6 225.367 2193.4 228.932 Q2195.23 232.474 2198.84 232.474 Q2202.48 232.474 2204.28 228.932 Q2206.11 225.367 2206.11 218.261 Q2206.11 211.131 2204.28 207.59 Q2202.48 204.025 2198.84 204.025 M2198.84 200.321 Q2204.65 200.321 2207.71 204.928 Q2210.79 209.511 2210.79 218.261 Q2210.79 226.988 2207.71 231.594 Q2204.65 236.178 2198.84 236.178 Q2193.03 236.178 2189.95 231.594 Q2186.9 226.988 2186.9 218.261 Q2186.9 209.511 2189.95 204.928 Q2193.03 200.321 2198.84 200.321 Z" fill="#000000" fill-rule="nonzero" fill-opacity="1" /><path clip-path="url(#clip380)" d="M2229 204.025 Q2225.39 204.025 2223.56 207.59 Q2221.76 211.131 2221.76 218.261 Q2221.76 225.367 2223.56 228.932 Q2225.39 232.474 2229 232.474 Q2232.64 232.474 2234.44 228.932 Q2236.27 225.367 2236.27 218.261 Q2236.27 211.131 2234.44 207.59 Q2232.64 204.025 2229 204.025 M2229 200.321 Q2234.81 200.321 2237.87 204.928 Q2240.95 209.511 2240.95 218.261 Q2240.95 226.988 2237.87 231.594 Q2234.81 236.178 2229 236.178 Q2223.19 236.178 2220.11 231.594 Q2217.06 226.988 2217.06 218.261 Q2217.06 209.511 2220.11 204.928 Q2223.19 200.321 2229 200.321 Z" fill="#000000" fill-rule="nonzero" fill-opacity="1" /><path clip-path="url(#clip380)" d="M2258.52 199.488 L2258.52 241.756 L2248.7 241.756 L2248.7 238.446 L2254.24 238.446 L2254.24 202.798 L2248.7 202.798 L2248.7 199.488 L2258.52 199.488 Z" fill="#000000" fill-rule="nonzero" fill-opacity="1" /></svg>
