<?xml version="1.0" encoding="utf-8"?>
<svg xmlns="http://www.w3.org/2000/svg" xmlns:xlink="http://www.w3.org/1999/xlink" width="600" height="400" viewBox="0 0 2400 1600">
<defs>
  <clipPath id="clip380">
    <rect x="0" y="0" width="2400" height="1600"/>
  </clipPath>
</defs>
<path clip-path="url(#clip380)" d="M0 1600 L2400 1600 L2400 0 L0 0  Z" fill="#ffffff" fill-rule="evenodd" fill-opacity="1"/>
<defs>
  <clipPath id="clip381">
    <rect x="480" y="0" width="1681" height="1600"/>
  </clipPath>
</defs>
<path clip-path="url(#clip380)" d="M292.713 1423.18 L2352.76 1423.18 L2352.76 123.472 L292.713 123.472  Z" fill="#ffffff" fill-rule="evenodd" fill-opacity="1"/>
<defs>
  <clipPath id="clip382">
    <rect x="292" y="123" width="2061" height="1301"/>
  </clipPath>
</defs>
<polyline clip-path="url(#clip382)" style="stroke:#000000; stroke-linecap:round; stroke-linejoin:round; stroke-width:2; stroke-opacity:0.1; fill:none" points="351.016,1423.18 351.016,123.472 "/>
<polyline clip-path="url(#clip382)" style="stroke:#000000; stroke-linecap:round; stroke-linejoin:round; stroke-width:2; stroke-opacity:0.1; fill:none" points="773.502,1423.18 773.502,123.472 "/>
<polyline clip-path="url(#clip382)" style="stroke:#000000; stroke-linecap:round; stroke-linejoin:round; stroke-width:2; stroke-opacity:0.1; fill:none" points="1195.99,1423.18 1195.99,123.472 "/>
<polyline clip-path="url(#clip382)" style="stroke:#000000; stroke-linecap:round; stroke-linejoin:round; stroke-width:2; stroke-opacity:0.1; fill:none" points="1618.47,1423.18 1618.47,123.472 "/>
<polyline clip-path="url(#clip382)" style="stroke:#000000; stroke-linecap:round; stroke-linejoin:round; stroke-width:2; stroke-opacity:0.1; fill:none" points="2040.96,1423.18 2040.96,123.472 "/>
<polyline clip-path="url(#clip380)" style="stroke:#000000; stroke-linecap:round; stroke-linejoin:round; stroke-width:4; stroke-opacity:1; fill:none" points="292.713,1423.18 2352.76,1423.18 "/>
<polyline clip-path="url(#clip380)" style="stroke:#000000; stroke-linecap:round; stroke-linejoin:round; stroke-width:4; stroke-opacity:1; fill:none" points="351.016,1423.18 351.016,1404.28 "/>
<polyline clip-path="url(#clip380)" style="stroke:#000000; stroke-linecap:round; stroke-linejoin:round; stroke-width:4; stroke-opacity:1; fill:none" points="773.502,1423.18 773.502,1404.28 "/>
<polyline clip-path="url(#clip380)" style="stroke:#000000; stroke-linecap:round; stroke-linejoin:round; stroke-width:4; stroke-opacity:1; fill:none" points="1195.99,1423.18 1195.99,1404.28 "/>
<polyline clip-path="url(#clip380)" style="stroke:#000000; stroke-linecap:round; stroke-linejoin:round; stroke-width:4; stroke-opacity:1; fill:none" points="1618.47,1423.18 1618.47,1404.28 "/>
<polyline clip-path="url(#clip380)" style="stroke:#000000; stroke-linecap:round; stroke-linejoin:round; stroke-width:4; stroke-opacity:1; fill:none" points="2040.96,1423.18 2040.96,1404.28 "/>
<path clip-path="url(#clip380)" d="M351.016 1454.1 Q347.405 1454.1 345.576 1457.66 Q343.771 1461.2 343.771 1468.33 Q343.771 1475.44 345.576 1479.01 Q347.405 1482.55 351.016 1482.55 Q354.65 1482.55 356.456 1479.01 Q358.285 1475.44 358.285 1468.33 Q358.285 1461.2 356.456 1457.66 Q354.65 1454.1 351.016 1454.1 M351.016 1450.39 Q356.826 1450.39 359.882 1455 Q362.961 1459.58 362.961 1468.33 Q362.961 1477.06 359.882 1481.67 Q356.826 1486.25 351.016 1486.25 Q345.206 1486.25 342.127 1481.67 Q339.072 1477.06 339.072 1468.33 Q339.072 1459.58 342.127 1455 Q345.206 1450.39 351.016 1450.39 Z" fill="#000000" fill-rule="nonzero" fill-opacity="1" /><path clip-path="url(#clip380)" d="M748.202 1451.02 L766.558 1451.02 L766.558 1454.96 L752.484 1454.96 L752.484 1463.43 Q753.503 1463.08 754.521 1462.92 Q755.54 1462.73 756.558 1462.73 Q762.345 1462.73 765.725 1465.9 Q769.104 1469.08 769.104 1474.49 Q769.104 1480.07 765.632 1483.17 Q762.16 1486.25 755.84 1486.25 Q753.665 1486.25 751.396 1485.88 Q749.151 1485.51 746.743 1484.77 L746.743 1480.07 Q748.827 1481.2 751.049 1481.76 Q753.271 1482.32 755.748 1482.32 Q759.752 1482.32 762.09 1480.21 Q764.428 1478.1 764.428 1474.49 Q764.428 1470.88 762.09 1468.77 Q759.752 1466.67 755.748 1466.67 Q753.873 1466.67 751.998 1467.08 Q750.146 1467.5 748.202 1468.38 L748.202 1451.02 Z" fill="#000000" fill-rule="nonzero" fill-opacity="1" /><path clip-path="url(#clip380)" d="M788.317 1454.1 Q784.706 1454.1 782.877 1457.66 Q781.072 1461.2 781.072 1468.33 Q781.072 1475.44 782.877 1479.01 Q784.706 1482.55 788.317 1482.55 Q791.951 1482.55 793.757 1479.01 Q795.586 1475.44 795.586 1468.33 Q795.586 1461.2 793.757 1457.66 Q791.951 1454.1 788.317 1454.1 M788.317 1450.39 Q794.127 1450.39 797.183 1455 Q800.262 1459.58 800.262 1468.33 Q800.262 1477.06 797.183 1481.67 Q794.127 1486.25 788.317 1486.25 Q782.507 1486.25 779.428 1481.67 Q776.373 1477.06 776.373 1468.33 Q776.373 1459.58 779.428 1455 Q782.507 1450.39 788.317 1450.39 Z" fill="#000000" fill-rule="nonzero" fill-opacity="1" /><path clip-path="url(#clip380)" d="M1155.6 1481.64 L1163.23 1481.64 L1163.23 1455.28 L1154.92 1456.95 L1154.92 1452.69 L1163.19 1451.02 L1167.86 1451.02 L1167.86 1481.64 L1175.5 1481.64 L1175.5 1485.58 L1155.6 1485.58 L1155.6 1481.64 Z" fill="#000000" fill-rule="nonzero" fill-opacity="1" /><path clip-path="url(#clip380)" d="M1194.95 1454.1 Q1191.34 1454.1 1189.51 1457.66 Q1187.7 1461.2 1187.7 1468.33 Q1187.7 1475.44 1189.51 1479.01 Q1191.34 1482.55 1194.95 1482.55 Q1198.58 1482.55 1200.39 1479.01 Q1202.22 1475.44 1202.22 1468.33 Q1202.22 1461.2 1200.39 1457.66 Q1198.58 1454.1 1194.95 1454.1 M1194.95 1450.39 Q1200.76 1450.39 1203.81 1455 Q1206.89 1459.58 1206.89 1468.33 Q1206.89 1477.06 1203.81 1481.67 Q1200.76 1486.25 1194.95 1486.25 Q1189.14 1486.25 1186.06 1481.67 Q1183 1477.06 1183 1468.33 Q1183 1459.58 1186.06 1455 Q1189.14 1450.39 1194.95 1450.39 Z" fill="#000000" fill-rule="nonzero" fill-opacity="1" /><path clip-path="url(#clip380)" d="M1225.11 1454.1 Q1221.5 1454.1 1219.67 1457.66 Q1217.86 1461.2 1217.86 1468.33 Q1217.86 1475.44 1219.67 1479.01 Q1221.5 1482.55 1225.11 1482.55 Q1228.74 1482.55 1230.55 1479.01 Q1232.38 1475.44 1232.38 1468.33 Q1232.38 1461.2 1230.55 1457.66 Q1228.74 1454.1 1225.11 1454.1 M1225.11 1450.39 Q1230.92 1450.39 1233.97 1455 Q1237.05 1459.58 1237.05 1468.33 Q1237.05 1477.06 1233.97 1481.67 Q1230.92 1486.25 1225.11 1486.25 Q1219.3 1486.25 1216.22 1481.67 Q1213.16 1477.06 1213.16 1468.33 Q1213.16 1459.58 1216.22 1455 Q1219.3 1450.39 1225.11 1450.39 Z" fill="#000000" fill-rule="nonzero" fill-opacity="1" /><path clip-path="url(#clip380)" d="M1578.08 1481.64 L1585.72 1481.64 L1585.72 1455.28 L1577.41 1456.95 L1577.41 1452.69 L1585.67 1451.02 L1590.35 1451.02 L1590.35 1481.64 L1597.99 1481.64 L1597.99 1485.58 L1578.08 1485.58 L1578.08 1481.64 Z" fill="#000000" fill-rule="nonzero" fill-opacity="1" /><path clip-path="url(#clip380)" d="M1607.48 1451.02 L1625.84 1451.02 L1625.84 1454.96 L1611.76 1454.96 L1611.76 1463.43 Q1612.78 1463.08 1613.8 1462.92 Q1614.82 1462.73 1615.84 1462.73 Q1621.62 1462.73 1625 1465.9 Q1628.38 1469.08 1628.38 1474.49 Q1628.38 1480.07 1624.91 1483.17 Q1621.44 1486.25 1615.12 1486.25 Q1612.94 1486.25 1610.67 1485.88 Q1608.43 1485.51 1606.02 1484.77 L1606.02 1480.07 Q1608.1 1481.2 1610.33 1481.76 Q1612.55 1482.32 1615.03 1482.32 Q1619.03 1482.32 1621.37 1480.21 Q1623.71 1478.1 1623.71 1474.49 Q1623.71 1470.88 1621.37 1468.77 Q1619.03 1466.67 1615.03 1466.67 Q1613.15 1466.67 1611.28 1467.08 Q1609.42 1467.5 1607.48 1468.38 L1607.48 1451.02 Z" fill="#000000" fill-rule="nonzero" fill-opacity="1" /><path clip-path="url(#clip380)" d="M1647.6 1454.1 Q1643.98 1454.1 1642.16 1457.66 Q1640.35 1461.2 1640.35 1468.33 Q1640.35 1475.44 1642.16 1479.01 Q1643.98 1482.55 1647.6 1482.55 Q1651.23 1482.55 1653.03 1479.01 Q1654.86 1475.44 1654.86 1468.33 Q1654.86 1461.2 1653.03 1457.66 Q1651.23 1454.1 1647.6 1454.1 M1647.6 1450.39 Q1653.41 1450.39 1656.46 1455 Q1659.54 1459.58 1659.54 1468.33 Q1659.54 1477.06 1656.46 1481.67 Q1653.41 1486.25 1647.6 1486.25 Q1641.78 1486.25 1638.71 1481.67 Q1635.65 1477.06 1635.65 1468.33 Q1635.65 1459.58 1638.71 1455 Q1641.78 1450.39 1647.6 1450.39 Z" fill="#000000" fill-rule="nonzero" fill-opacity="1" /><path clip-path="url(#clip380)" d="M2004.65 1481.64 L2020.97 1481.64 L2020.97 1485.58 L1999.03 1485.58 L1999.03 1481.64 Q2001.69 1478.89 2006.27 1474.26 Q2010.88 1469.61 2012.06 1468.27 Q2014.31 1465.74 2015.19 1464.01 Q2016.09 1462.25 2016.09 1460.56 Q2016.09 1457.8 2014.14 1456.07 Q2012.22 1454.33 2009.12 1454.33 Q2006.92 1454.33 2004.47 1455.09 Q2002.04 1455.86 1999.26 1457.41 L1999.26 1452.69 Q2002.08 1451.55 2004.54 1450.97 Q2006.99 1450.39 2009.03 1450.39 Q2014.4 1450.39 2017.59 1453.08 Q2020.79 1455.77 2020.79 1460.26 Q2020.79 1462.39 2019.98 1464.31 Q2019.19 1466.2 2017.08 1468.8 Q2016.51 1469.47 2013.4 1472.69 Q2010.3 1475.88 2004.65 1481.64 Z" fill="#000000" fill-rule="nonzero" fill-opacity="1" /><path clip-path="url(#clip380)" d="M2040.79 1454.1 Q2037.18 1454.1 2035.35 1457.66 Q2033.54 1461.2 2033.54 1468.33 Q2033.54 1475.44 2035.35 1479.01 Q2037.18 1482.55 2040.79 1482.55 Q2044.42 1482.55 2046.23 1479.01 Q2048.06 1475.44 2048.06 1468.33 Q2048.06 1461.2 2046.23 1457.66 Q2044.42 1454.1 2040.79 1454.1 M2040.79 1450.39 Q2046.6 1450.39 2049.65 1455 Q2052.73 1459.58 2052.73 1468.33 Q2052.73 1477.06 2049.65 1481.67 Q2046.6 1486.25 2040.79 1486.25 Q2034.98 1486.25 2031.9 1481.67 Q2028.84 1477.06 2028.84 1468.33 Q2028.84 1459.58 2031.9 1455 Q2034.98 1450.39 2040.79 1450.39 Z" fill="#000000" fill-rule="nonzero" fill-opacity="1" /><path clip-path="url(#clip380)" d="M2070.95 1454.1 Q2067.34 1454.1 2065.51 1457.66 Q2063.7 1461.2 2063.7 1468.33 Q2063.7 1475.44 2065.51 1479.01 Q2067.34 1482.55 2070.95 1482.55 Q2074.58 1482.55 2076.39 1479.01 Q2078.22 1475.44 2078.22 1468.33 Q2078.22 1461.2 2076.39 1457.66 Q2074.58 1454.1 2070.95 1454.1 M2070.95 1450.39 Q2076.76 1450.39 2079.82 1455 Q2082.89 1459.58 2082.89 1468.33 Q2082.89 1477.06 2079.82 1481.67 Q2076.76 1486.25 2070.95 1486.25 Q2065.14 1486.25 2062.06 1481.67 Q2059 1477.06 2059 1468.33 Q2059 1459.58 2062.06 1455 Q2065.14 1450.39 2070.95 1450.39 Z" fill="#000000" fill-rule="nonzero" fill-opacity="1" /><path clip-path="url(#clip380)" d="M1198.35 1525.81 L1198.35 1562.76 L1206.11 1562.76 Q1215.95 1562.76 1220.5 1558.3 Q1225.08 1553.85 1225.08 1544.24 Q1225.08 1534.69 1220.5 1530.26 Q1215.95 1525.81 1206.11 1525.81 L1198.35 1525.81 M1191.92 1520.52 L1205.13 1520.52 Q1218.94 1520.52 1225.4 1526.28 Q1231.86 1532.01 1231.86 1544.24 Q1231.86 1556.52 1225.37 1562.28 Q1218.88 1568.04 1205.13 1568.04 L1191.92 1568.04 L1191.92 1520.52 Z" fill="#000000" fill-rule="nonzero" fill-opacity="1" /><path clip-path="url(#clip380)" d="M1272.35 1548.76 L1272.35 1551.62 L1245.42 1551.62 Q1245.8 1557.67 1249.05 1560.85 Q1252.33 1564 1258.15 1564 Q1261.53 1564 1264.68 1563.17 Q1267.86 1562.35 1270.98 1560.69 L1270.98 1566.23 Q1267.83 1567.57 1264.52 1568.27 Q1261.21 1568.97 1257.8 1568.97 Q1249.27 1568.97 1244.28 1564 Q1239.31 1559.04 1239.31 1550.57 Q1239.31 1541.82 1244.02 1536.69 Q1248.76 1531.54 1256.79 1531.54 Q1263.98 1531.54 1268.15 1536.18 Q1272.35 1540.8 1272.35 1548.76 M1266.49 1547.04 Q1266.43 1542.23 1263.79 1539.37 Q1261.18 1536.5 1256.85 1536.5 Q1251.95 1536.5 1248.99 1539.27 Q1246.06 1542.04 1245.61 1547.07 L1266.49 1547.04 Z" fill="#000000" fill-rule="nonzero" fill-opacity="1" /><path clip-path="url(#clip380)" d="M1305.42 1549.81 Q1305.42 1543.44 1302.78 1539.94 Q1300.17 1536.44 1295.43 1536.44 Q1290.71 1536.44 1288.07 1539.94 Q1285.46 1543.44 1285.46 1549.81 Q1285.46 1556.14 1288.07 1559.64 Q1290.71 1563.14 1295.43 1563.14 Q1300.17 1563.14 1302.78 1559.64 Q1305.42 1556.14 1305.42 1549.81 M1311.28 1563.62 Q1311.28 1572.72 1307.23 1577.15 Q1303.19 1581.6 1294.85 1581.6 Q1291.77 1581.6 1289.03 1581.13 Q1286.29 1580.68 1283.71 1579.72 L1283.71 1574.03 Q1286.29 1575.43 1288.81 1576.1 Q1291.32 1576.76 1293.93 1576.76 Q1299.69 1576.76 1302.56 1573.74 Q1305.42 1570.75 1305.42 1564.67 L1305.42 1561.77 Q1303.61 1564.92 1300.77 1566.48 Q1297.94 1568.04 1293.99 1568.04 Q1287.44 1568.04 1283.43 1563.05 Q1279.42 1558.05 1279.42 1549.81 Q1279.42 1541.53 1283.43 1536.53 Q1287.44 1531.54 1293.99 1531.54 Q1297.94 1531.54 1300.77 1533.1 Q1303.61 1534.66 1305.42 1537.81 L1305.42 1532.4 L1311.28 1532.4 L1311.28 1563.62 Z" fill="#000000" fill-rule="nonzero" fill-opacity="1" /><path clip-path="url(#clip380)" d="M1344 1537.87 Q1343.01 1537.3 1341.83 1537.04 Q1340.69 1536.76 1339.29 1536.76 Q1334.32 1536.76 1331.65 1540 Q1329 1543.22 1329 1549.27 L1329 1568.04 L1323.12 1568.04 L1323.12 1532.4 L1329 1532.4 L1329 1537.93 Q1330.85 1534.69 1333.81 1533.13 Q1336.77 1531.54 1341 1531.54 Q1341.61 1531.54 1342.34 1531.63 Q1343.07 1531.7 1343.96 1531.85 L1344 1537.87 Z" fill="#000000" fill-rule="nonzero" fill-opacity="1" /><path clip-path="url(#clip380)" d="M1379.2 1548.76 L1379.2 1551.62 L1352.27 1551.62 Q1352.65 1557.67 1355.9 1560.85 Q1359.18 1564 1365 1564 Q1368.38 1564 1371.53 1563.17 Q1374.71 1562.35 1377.83 1560.69 L1377.83 1566.23 Q1374.68 1567.57 1371.37 1568.27 Q1368.06 1568.97 1364.65 1568.97 Q1356.12 1568.97 1351.13 1564 Q1346.16 1559.04 1346.16 1550.57 Q1346.16 1541.82 1350.87 1536.69 Q1355.61 1531.54 1363.63 1531.54 Q1370.83 1531.54 1375 1536.18 Q1379.2 1540.8 1379.2 1548.76 M1373.34 1547.04 Q1373.28 1542.23 1370.64 1539.37 Q1368.03 1536.5 1363.7 1536.5 Q1358.8 1536.5 1355.84 1539.27 Q1352.91 1542.04 1352.46 1547.07 L1373.34 1547.04 Z" fill="#000000" fill-rule="nonzero" fill-opacity="1" /><path clip-path="url(#clip380)" d="M1419.3 1548.76 L1419.3 1551.62 L1392.38 1551.62 Q1392.76 1557.67 1396 1560.85 Q1399.28 1564 1405.11 1564 Q1408.48 1564 1411.63 1563.17 Q1414.81 1562.35 1417.93 1560.69 L1417.93 1566.23 Q1414.78 1567.57 1411.47 1568.27 Q1408.16 1568.97 1404.76 1568.97 Q1396.23 1568.97 1391.23 1564 Q1386.26 1559.04 1386.26 1550.57 Q1386.26 1541.82 1390.97 1536.69 Q1395.72 1531.54 1403.74 1531.54 Q1410.93 1531.54 1415.1 1536.18 Q1419.3 1540.8 1419.3 1548.76 M1413.45 1547.04 Q1413.38 1542.23 1410.74 1539.37 Q1408.13 1536.5 1403.8 1536.5 Q1398.9 1536.5 1395.94 1539.27 Q1393.01 1542.04 1392.57 1547.07 L1413.45 1547.04 Z" fill="#000000" fill-rule="nonzero" fill-opacity="1" /><path clip-path="url(#clip380)" d="M1451.64 1533.45 L1451.64 1538.98 Q1449.16 1537.71 1446.48 1537.07 Q1443.81 1536.44 1440.95 1536.44 Q1436.59 1536.44 1434.39 1537.77 Q1432.22 1539.11 1432.22 1541.79 Q1432.22 1543.82 1433.78 1545 Q1435.34 1546.15 1440.05 1547.2 L1442.06 1547.64 Q1448.3 1548.98 1450.91 1551.43 Q1453.55 1553.85 1453.55 1558.21 Q1453.55 1563.17 1449.6 1566.07 Q1445.69 1568.97 1438.81 1568.97 Q1435.95 1568.97 1432.83 1568.39 Q1429.74 1567.85 1426.3 1566.74 L1426.3 1560.69 Q1429.55 1562.38 1432.7 1563.24 Q1435.85 1564.07 1438.94 1564.07 Q1443.08 1564.07 1445.31 1562.66 Q1447.53 1561.23 1447.53 1558.65 Q1447.53 1556.27 1445.91 1554.99 Q1444.32 1553.72 1438.88 1552.54 L1436.84 1552.07 Q1431.4 1550.92 1428.98 1548.56 Q1426.56 1546.18 1426.56 1542.04 Q1426.56 1537.01 1430.12 1534.27 Q1433.69 1531.54 1440.25 1531.54 Q1443.49 1531.54 1446.36 1532.01 Q1449.22 1532.49 1451.64 1533.45 Z" fill="#000000" fill-rule="nonzero" fill-opacity="1" /><polyline clip-path="url(#clip382)" style="stroke:#000000; stroke-linecap:round; stroke-linejoin:round; stroke-width:2; stroke-opacity:0.1; fill:none" points="292.713,1393.58 2352.76,1393.58 "/>
<polyline clip-path="url(#clip382)" style="stroke:#000000; stroke-linecap:round; stroke-linejoin:round; stroke-width:2; stroke-opacity:0.1; fill:none" points="292.713,1078.63 2352.76,1078.63 "/>
<polyline clip-path="url(#clip382)" style="stroke:#000000; stroke-linecap:round; stroke-linejoin:round; stroke-width:2; stroke-opacity:0.1; fill:none" points="292.713,763.689 2352.76,763.689 "/>
<polyline clip-path="url(#clip382)" style="stroke:#000000; stroke-linecap:round; stroke-linejoin:round; stroke-width:2; stroke-opacity:0.1; fill:none" points="292.713,448.745 2352.76,448.745 "/>
<polyline clip-path="url(#clip382)" style="stroke:#000000; stroke-linecap:round; stroke-linejoin:round; stroke-width:2; stroke-opacity:0.1; fill:none" points="292.713,133.801 2352.76,133.801 "/>
<polyline clip-path="url(#clip380)" style="stroke:#000000; stroke-linecap:round; stroke-linejoin:round; stroke-width:4; stroke-opacity:1; fill:none" points="292.713,1423.18 292.713,123.472 "/>
<polyline clip-path="url(#clip380)" style="stroke:#000000; stroke-linecap:round; stroke-linejoin:round; stroke-width:4; stroke-opacity:1; fill:none" points="292.713,1393.58 311.611,1393.58 "/>
<polyline clip-path="url(#clip380)" style="stroke:#000000; stroke-linecap:round; stroke-linejoin:round; stroke-width:4; stroke-opacity:1; fill:none" points="292.713,1078.63 311.611,1078.63 "/>
<polyline clip-path="url(#clip380)" style="stroke:#000000; stroke-linecap:round; stroke-linejoin:round; stroke-width:4; stroke-opacity:1; fill:none" points="292.713,763.689 311.611,763.689 "/>
<polyline clip-path="url(#clip380)" style="stroke:#000000; stroke-linecap:round; stroke-linejoin:round; stroke-width:4; stroke-opacity:1; fill:none" points="292.713,448.745 311.611,448.745 "/>
<polyline clip-path="url(#clip380)" style="stroke:#000000; stroke-linecap:round; stroke-linejoin:round; stroke-width:4; stroke-opacity:1; fill:none" points="292.713,133.801 311.611,133.801 "/>
<path clip-path="url(#clip380)" d="M244.769 1379.38 Q241.158 1379.38 239.329 1382.94 Q237.523 1386.48 237.523 1393.61 Q237.523 1400.72 239.329 1404.28 Q241.158 1407.82 244.769 1407.82 Q248.403 1407.82 250.209 1404.28 Q252.037 1400.72 252.037 1393.61 Q252.037 1386.48 250.209 1382.94 Q248.403 1379.38 244.769 1379.38 M244.769 1375.67 Q250.579 1375.67 253.634 1380.28 Q256.713 1384.86 256.713 1393.61 Q256.713 1402.34 253.634 1406.94 Q250.579 1411.53 244.769 1411.53 Q238.959 1411.53 235.88 1406.94 Q232.824 1402.34 232.824 1393.61 Q232.824 1384.86 235.88 1380.28 Q238.959 1375.67 244.769 1375.67 Z" fill="#000000" fill-rule="nonzero" fill-opacity="1" /><path clip-path="url(#clip380)" d="M148.311 1091.98 L164.63 1091.98 L164.63 1095.91 L142.686 1095.91 L142.686 1091.98 Q145.348 1089.22 149.931 1084.59 Q154.538 1079.94 155.718 1078.6 Q157.964 1076.07 158.843 1074.34 Q159.746 1072.58 159.746 1070.89 Q159.746 1068.13 157.802 1066.4 Q155.88 1064.66 152.778 1064.66 Q150.579 1064.66 148.126 1065.43 Q145.695 1066.19 142.917 1067.74 L142.917 1063.02 Q145.741 1061.88 148.195 1061.31 Q150.649 1060.73 152.686 1060.73 Q158.056 1060.73 161.251 1063.41 Q164.445 1066.1 164.445 1070.59 Q164.445 1072.72 163.635 1074.64 Q162.848 1076.54 160.741 1079.13 Q160.163 1079.8 157.061 1083.02 Q153.959 1086.21 148.311 1091.98 Z" fill="#000000" fill-rule="nonzero" fill-opacity="1" /><path clip-path="url(#clip380)" d="M174.491 1061.35 L192.848 1061.35 L192.848 1065.29 L178.774 1065.29 L178.774 1073.76 Q179.792 1073.41 180.811 1073.25 Q181.829 1073.07 182.848 1073.07 Q188.635 1073.07 192.014 1076.24 Q195.394 1079.41 195.394 1084.82 Q195.394 1090.4 191.922 1093.51 Q188.45 1096.58 182.13 1096.58 Q179.954 1096.58 177.686 1096.21 Q175.44 1095.84 173.033 1095.1 L173.033 1090.4 Q175.116 1091.54 177.339 1092.09 Q179.561 1092.65 182.038 1092.65 Q186.042 1092.65 188.38 1090.54 Q190.718 1088.44 190.718 1084.82 Q190.718 1081.21 188.38 1079.11 Q186.042 1077 182.038 1077 Q180.163 1077 178.288 1077.42 Q176.436 1077.83 174.491 1078.71 L174.491 1061.35 Z" fill="#000000" fill-rule="nonzero" fill-opacity="1" /><path clip-path="url(#clip380)" d="M214.607 1064.43 Q210.996 1064.43 209.167 1068 Q207.362 1071.54 207.362 1078.67 Q207.362 1085.77 209.167 1089.34 Q210.996 1092.88 214.607 1092.88 Q218.241 1092.88 220.047 1089.34 Q221.875 1085.77 221.875 1078.67 Q221.875 1071.54 220.047 1068 Q218.241 1064.43 214.607 1064.43 M214.607 1060.73 Q220.417 1060.73 223.473 1065.33 Q226.551 1069.92 226.551 1078.67 Q226.551 1087.39 223.473 1092 Q220.417 1096.58 214.607 1096.58 Q208.797 1096.58 205.718 1092 Q202.662 1087.39 202.662 1078.67 Q202.662 1069.92 205.718 1065.33 Q208.797 1060.73 214.607 1060.73 Z" fill="#000000" fill-rule="nonzero" fill-opacity="1" /><path clip-path="url(#clip380)" d="M244.769 1064.43 Q241.158 1064.43 239.329 1068 Q237.523 1071.54 237.523 1078.67 Q237.523 1085.77 239.329 1089.34 Q241.158 1092.88 244.769 1092.88 Q248.403 1092.88 250.209 1089.34 Q252.037 1085.77 252.037 1078.67 Q252.037 1071.54 250.209 1068 Q248.403 1064.43 244.769 1064.43 M244.769 1060.73 Q250.579 1060.73 253.634 1065.33 Q256.713 1069.92 256.713 1078.67 Q256.713 1087.39 253.634 1092 Q250.579 1096.58 244.769 1096.58 Q238.959 1096.58 235.88 1092 Q232.824 1087.39 232.824 1078.67 Q232.824 1069.92 235.88 1065.33 Q238.959 1060.73 244.769 1060.73 Z" fill="#000000" fill-rule="nonzero" fill-opacity="1" /><path clip-path="url(#clip380)" d="M144.329 746.409 L162.686 746.409 L162.686 750.344 L148.612 750.344 L148.612 758.816 Q149.63 758.469 150.649 758.307 Q151.667 758.122 152.686 758.122 Q158.473 758.122 161.852 761.293 Q165.232 764.464 165.232 769.881 Q165.232 775.459 161.76 778.561 Q158.288 781.64 151.968 781.64 Q149.792 781.64 147.524 781.27 Q145.279 780.899 142.871 780.159 L142.871 775.459 Q144.954 776.594 147.177 777.149 Q149.399 777.705 151.876 777.705 Q155.88 777.705 158.218 775.598 Q160.556 773.492 160.556 769.881 Q160.556 766.27 158.218 764.163 Q155.88 762.057 151.876 762.057 Q150.001 762.057 148.126 762.473 Q146.274 762.89 144.329 763.77 L144.329 746.409 Z" fill="#000000" fill-rule="nonzero" fill-opacity="1" /><path clip-path="url(#clip380)" d="M184.445 749.487 Q180.834 749.487 179.005 753.052 Q177.2 756.594 177.2 763.723 Q177.2 770.83 179.005 774.395 Q180.834 777.936 184.445 777.936 Q188.079 777.936 189.885 774.395 Q191.713 770.83 191.713 763.723 Q191.713 756.594 189.885 753.052 Q188.079 749.487 184.445 749.487 M184.445 745.784 Q190.255 745.784 193.311 750.39 Q196.389 754.973 196.389 763.723 Q196.389 772.45 193.311 777.057 Q190.255 781.64 184.445 781.64 Q178.635 781.64 175.556 777.057 Q172.501 772.45 172.501 763.723 Q172.501 754.973 175.556 750.39 Q178.635 745.784 184.445 745.784 Z" fill="#000000" fill-rule="nonzero" fill-opacity="1" /><path clip-path="url(#clip380)" d="M214.607 749.487 Q210.996 749.487 209.167 753.052 Q207.362 756.594 207.362 763.723 Q207.362 770.83 209.167 774.395 Q210.996 777.936 214.607 777.936 Q218.241 777.936 220.047 774.395 Q221.875 770.83 221.875 763.723 Q221.875 756.594 220.047 753.052 Q218.241 749.487 214.607 749.487 M214.607 745.784 Q220.417 745.784 223.473 750.39 Q226.551 754.973 226.551 763.723 Q226.551 772.45 223.473 777.057 Q220.417 781.64 214.607 781.64 Q208.797 781.64 205.718 777.057 Q202.662 772.45 202.662 763.723 Q202.662 754.973 205.718 750.39 Q208.797 745.784 214.607 745.784 Z" fill="#000000" fill-rule="nonzero" fill-opacity="1" /><path clip-path="url(#clip380)" d="M244.769 749.487 Q241.158 749.487 239.329 753.052 Q237.523 756.594 237.523 763.723 Q237.523 770.83 239.329 774.395 Q241.158 777.936 244.769 777.936 Q248.403 777.936 250.209 774.395 Q252.037 770.83 252.037 763.723 Q252.037 756.594 250.209 753.052 Q248.403 749.487 244.769 749.487 M244.769 745.784 Q250.579 745.784 253.634 750.39 Q256.713 754.973 256.713 763.723 Q256.713 772.45 253.634 777.057 Q250.579 781.64 244.769 781.64 Q238.959 781.64 235.88 777.057 Q232.824 772.45 232.824 763.723 Q232.824 754.973 235.88 750.39 Q238.959 745.784 244.769 745.784 Z" fill="#000000" fill-rule="nonzero" fill-opacity="1" /><path clip-path="url(#clip380)" d="M143.103 431.465 L165.325 431.465 L165.325 433.456 L152.778 466.025 L147.894 466.025 L159.7 435.4 L143.103 435.4 L143.103 431.465 Z" fill="#000000" fill-rule="nonzero" fill-opacity="1" /><path clip-path="url(#clip380)" d="M174.491 431.465 L192.848 431.465 L192.848 435.4 L178.774 435.4 L178.774 443.872 Q179.792 443.525 180.811 443.363 Q181.829 443.178 182.848 443.178 Q188.635 443.178 192.014 446.349 Q195.394 449.52 195.394 454.937 Q195.394 460.516 191.922 463.617 Q188.45 466.696 182.13 466.696 Q179.954 466.696 177.686 466.326 Q175.44 465.955 173.033 465.215 L173.033 460.516 Q175.116 461.65 177.339 462.205 Q179.561 462.761 182.038 462.761 Q186.042 462.761 188.38 460.655 Q190.718 458.548 190.718 454.937 Q190.718 451.326 188.38 449.219 Q186.042 447.113 182.038 447.113 Q180.163 447.113 178.288 447.53 Q176.436 447.946 174.491 448.826 L174.491 431.465 Z" fill="#000000" fill-rule="nonzero" fill-opacity="1" /><path clip-path="url(#clip380)" d="M214.607 434.544 Q210.996 434.544 209.167 438.108 Q207.362 441.65 207.362 448.78 Q207.362 455.886 209.167 459.451 Q210.996 462.992 214.607 462.992 Q218.241 462.992 220.047 459.451 Q221.875 455.886 221.875 448.78 Q221.875 441.65 220.047 438.108 Q218.241 434.544 214.607 434.544 M214.607 430.84 Q220.417 430.84 223.473 435.446 Q226.551 440.03 226.551 448.78 Q226.551 457.506 223.473 462.113 Q220.417 466.696 214.607 466.696 Q208.797 466.696 205.718 462.113 Q202.662 457.506 202.662 448.78 Q202.662 440.03 205.718 435.446 Q208.797 430.84 214.607 430.84 Z" fill="#000000" fill-rule="nonzero" fill-opacity="1" /><path clip-path="url(#clip380)" d="M244.769 434.544 Q241.158 434.544 239.329 438.108 Q237.523 441.65 237.523 448.78 Q237.523 455.886 239.329 459.451 Q241.158 462.992 244.769 462.992 Q248.403 462.992 250.209 459.451 Q252.037 455.886 252.037 448.78 Q252.037 441.65 250.209 438.108 Q248.403 434.544 244.769 434.544 M244.769 430.84 Q250.579 430.84 253.634 435.446 Q256.713 440.03 256.713 448.78 Q256.713 457.506 253.634 462.113 Q250.579 466.696 244.769 466.696 Q238.959 466.696 235.88 462.113 Q232.824 457.506 232.824 448.78 Q232.824 440.03 235.88 435.446 Q238.959 430.84 244.769 430.84 Z" fill="#000000" fill-rule="nonzero" fill-opacity="1" /><path clip-path="url(#clip380)" d="M114.931 147.146 L122.57 147.146 L122.57 120.78 L114.26 122.447 L114.26 118.188 L122.524 116.521 L127.2 116.521 L127.2 147.146 L134.839 147.146 L134.839 151.081 L114.931 151.081 L114.931 147.146 Z" fill="#000000" fill-rule="nonzero" fill-opacity="1" /><path clip-path="url(#clip380)" d="M154.283 119.6 Q150.672 119.6 148.843 123.165 Q147.038 126.706 147.038 133.836 Q147.038 140.942 148.843 144.507 Q150.672 148.049 154.283 148.049 Q157.917 148.049 159.723 144.507 Q161.552 140.942 161.552 133.836 Q161.552 126.706 159.723 123.165 Q157.917 119.6 154.283 119.6 M154.283 115.896 Q160.093 115.896 163.149 120.502 Q166.227 125.086 166.227 133.836 Q166.227 142.563 163.149 147.169 Q160.093 151.752 154.283 151.752 Q148.473 151.752 145.394 147.169 Q142.339 142.563 142.339 133.836 Q142.339 125.086 145.394 120.502 Q148.473 115.896 154.283 115.896 Z" fill="#000000" fill-rule="nonzero" fill-opacity="1" /><path clip-path="url(#clip380)" d="M184.445 119.6 Q180.834 119.6 179.005 123.165 Q177.2 126.706 177.2 133.836 Q177.2 140.942 179.005 144.507 Q180.834 148.049 184.445 148.049 Q188.079 148.049 189.885 144.507 Q191.713 140.942 191.713 133.836 Q191.713 126.706 189.885 123.165 Q188.079 119.6 184.445 119.6 M184.445 115.896 Q190.255 115.896 193.311 120.502 Q196.389 125.086 196.389 133.836 Q196.389 142.563 193.311 147.169 Q190.255 151.752 184.445 151.752 Q178.635 151.752 175.556 147.169 Q172.501 142.563 172.501 133.836 Q172.501 125.086 175.556 120.502 Q178.635 115.896 184.445 115.896 Z" fill="#000000" fill-rule="nonzero" fill-opacity="1" /><path clip-path="url(#clip380)" d="M214.607 119.6 Q210.996 119.6 209.167 123.165 Q207.362 126.706 207.362 133.836 Q207.362 140.942 209.167 144.507 Q210.996 148.049 214.607 148.049 Q218.241 148.049 220.047 144.507 Q221.875 140.942 221.875 133.836 Q221.875 126.706 220.047 123.165 Q218.241 119.6 214.607 119.6 M214.607 115.896 Q220.417 115.896 223.473 120.502 Q226.551 125.086 226.551 133.836 Q226.551 142.563 223.473 147.169 Q220.417 151.752 214.607 151.752 Q208.797 151.752 205.718 147.169 Q202.662 142.563 202.662 133.836 Q202.662 125.086 205.718 120.502 Q208.797 115.896 214.607 115.896 Z" fill="#000000" fill-rule="nonzero" fill-opacity="1" /><path clip-path="url(#clip380)" d="M244.769 119.6 Q241.158 119.6 239.329 123.165 Q237.523 126.706 237.523 133.836 Q237.523 140.942 239.329 144.507 Q241.158 148.049 244.769 148.049 Q248.403 148.049 250.209 144.507 Q252.037 140.942 252.037 133.836 Q252.037 126.706 250.209 123.165 Q248.403 119.6 244.769 119.6 M244.769 115.896 Q250.579 115.896 253.634 120.502 Q256.713 125.086 256.713 133.836 Q256.713 142.563 253.634 147.169 Q250.579 151.752 244.769 151.752 Q238.959 151.752 235.88 147.169 Q232.824 142.563 232.824 133.836 Q232.824 125.086 235.88 120.502 Q238.959 115.896 244.769 115.896 Z" fill="#000000" fill-rule="nonzero" fill-opacity="1" /><path clip-path="url(#clip380)" d="M16.4842 937.529 L16.4842 910.221 L21.895 910.221 L21.895 931.1 L35.8996 931.1 L35.8996 912.258 L41.3104 912.258 L41.3104 931.1 L64.0042 931.1 L64.0042 937.529 L16.4842 937.529 Z" fill="#000000" fill-rule="nonzero" fill-opacity="1" /><path clip-path="url(#clip380)" d="M33.8307 884.376 Q33.2578 885.362 33.0032 886.54 Q32.7167 887.686 32.7167 889.086 Q32.7167 894.052 35.9632 896.725 Q39.1779 899.367 45.2253 899.367 L64.0042 899.367 L64.0042 905.255 L28.3562 905.255 L28.3562 899.367 L33.8944 899.367 Q30.6479 897.521 29.0883 894.561 Q27.4968 891.601 27.4968 887.368 Q27.4968 886.763 27.5923 886.031 Q27.656 885.299 27.8151 884.408 L33.8307 884.376 Z" fill="#000000" fill-rule="nonzero" fill-opacity="1" /><path clip-path="url(#clip380)" d="M44.7161 849.173 L47.5806 849.173 L47.5806 876.1 Q53.6281 875.718 56.8109 872.472 Q59.9619 869.194 59.9619 863.369 Q59.9619 859.995 59.1344 856.844 Q58.3069 853.661 56.6518 850.542 L62.1899 850.542 Q63.5267 853.693 64.227 857.003 Q64.9272 860.313 64.9272 863.719 Q64.9272 872.249 59.9619 877.246 Q54.9967 882.211 46.5303 882.211 Q37.7774 882.211 32.6531 877.501 Q27.4968 872.758 27.4968 864.738 Q27.4968 857.544 32.1438 853.375 Q36.7589 849.173 44.7161 849.173 M42.9973 855.03 Q38.1912 855.093 35.3266 857.735 Q32.4621 860.345 32.4621 864.674 Q32.4621 869.575 35.2312 872.536 Q38.0002 875.464 43.0292 875.909 L42.9973 855.03 Z" fill="#000000" fill-rule="nonzero" fill-opacity="1" /><path clip-path="url(#clip380)" d="M46.212 836.06 Q52.6732 836.06 56.3653 833.418 Q60.0256 830.745 60.0256 826.098 Q60.0256 821.451 56.3653 818.777 Q52.6732 816.104 46.212 816.104 Q39.7508 816.104 36.0905 818.777 Q32.3984 821.451 32.3984 826.098 Q32.3984 830.745 36.0905 833.418 Q39.7508 836.06 46.212 836.06 M58.657 816.104 Q61.8398 817.95 63.3994 820.782 Q64.9272 823.583 64.9272 827.53 Q64.9272 833.991 59.771 838.065 Q54.6147 842.107 46.212 842.107 Q37.8093 842.107 32.6531 838.065 Q27.4968 833.991 27.4968 827.53 Q27.4968 823.583 29.0564 820.782 Q30.5842 817.95 33.7671 816.104 L28.3562 816.104 L28.3562 810.247 L77.5631 810.247 L77.5631 816.104 L58.657 816.104 Z" fill="#000000" fill-rule="nonzero" fill-opacity="1" /><path clip-path="url(#clip380)" d="M49.9359 798.789 L28.3562 798.789 L28.3562 792.932 L49.7131 792.932 Q54.7739 792.932 57.3202 790.959 Q59.8346 788.986 59.8346 785.039 Q59.8346 780.296 56.8109 777.559 Q53.7872 774.79 48.5673 774.79 L28.3562 774.79 L28.3562 768.934 L64.0042 768.934 L64.0042 774.79 L58.5296 774.79 Q61.7762 776.923 63.3676 779.755 Q64.9272 782.556 64.9272 786.28 Q64.9272 792.423 61.1078 795.606 Q57.2883 798.789 49.9359 798.789 M27.4968 784.052 L27.4968 784.052 Z" fill="#000000" fill-rule="nonzero" fill-opacity="1" /><path clip-path="url(#clip380)" d="M44.7161 726.379 L47.5806 726.379 L47.5806 753.306 Q53.6281 752.924 56.8109 749.677 Q59.9619 746.399 59.9619 740.574 Q59.9619 737.201 59.1344 734.05 Q58.3069 730.867 56.6518 727.748 L62.1899 727.748 Q63.5267 730.899 64.227 734.209 Q64.9272 737.519 64.9272 740.925 Q64.9272 749.455 59.9619 754.452 Q54.9967 759.417 46.5303 759.417 Q37.7774 759.417 32.6531 754.706 Q27.4968 749.964 27.4968 741.943 Q27.4968 734.75 32.1438 730.58 Q36.7589 726.379 44.7161 726.379 M42.9973 732.235 Q38.1912 732.299 35.3266 734.941 Q32.4621 737.551 32.4621 741.879 Q32.4621 746.781 35.2312 749.741 Q38.0002 752.669 43.0292 753.115 L42.9973 732.235 Z" fill="#000000" fill-rule="nonzero" fill-opacity="1" /><path clip-path="url(#clip380)" d="M42.4881 687.134 L64.0042 687.134 L64.0042 692.991 L42.679 692.991 Q37.6183 692.991 35.1038 694.964 Q32.5894 696.938 32.5894 700.884 Q32.5894 705.627 35.6131 708.364 Q38.6368 711.101 43.8567 711.101 L64.0042 711.101 L64.0042 716.989 L28.3562 716.989 L28.3562 711.101 L33.8944 711.101 Q30.6797 709.001 29.0883 706.168 Q27.4968 703.303 27.4968 699.579 Q27.4968 693.436 31.3163 690.285 Q35.1038 687.134 42.4881 687.134 Z" fill="#000000" fill-rule="nonzero" fill-opacity="1" /><path clip-path="url(#clip380)" d="M29.7248 649.799 L35.1993 649.799 Q33.8307 652.282 33.1623 654.797 Q32.4621 657.279 32.4621 659.825 Q32.4621 665.523 36.0905 668.674 Q39.6872 671.825 46.212 671.825 Q52.7369 671.825 56.3653 668.674 Q59.9619 665.523 59.9619 659.825 Q59.9619 657.279 59.2935 654.797 Q58.5933 652.282 57.2247 649.799 L62.6355 649.799 Q63.7814 652.25 64.3543 654.892 Q64.9272 657.502 64.9272 660.462 Q64.9272 668.515 59.8664 673.257 Q54.8057 678 46.212 678 Q37.491 678 32.4939 673.225 Q27.4968 668.419 27.4968 660.08 Q27.4968 657.375 28.0697 654.797 Q28.6108 652.218 29.7248 649.799 Z" fill="#000000" fill-rule="nonzero" fill-opacity="1" /><path clip-path="url(#clip380)" d="M67.3143 624.782 Q73.68 627.265 75.6216 629.62 Q77.5631 631.975 77.5631 635.922 L77.5631 640.601 L72.6615 640.601 L72.6615 637.164 Q72.6615 634.745 71.5157 633.408 Q70.3699 632.071 66.1048 630.448 L63.4312 629.397 L28.3562 643.816 L28.3562 637.609 L56.238 626.469 L28.3562 615.329 L28.3562 609.123 L67.3143 624.782 Z" fill="#000000" fill-rule="nonzero" fill-opacity="1" /><path clip-path="url(#clip380)" d="M772.723 12.096 L780.906 12.096 L780.906 65.6895 L810.356 65.6895 L810.356 72.576 L772.723 72.576 L772.723 12.096 Z" fill="#000000" fill-rule="nonzero" fill-opacity="1" /><path clip-path="url(#clip380)" d="M839.239 49.7694 Q830.205 49.7694 826.722 51.8354 Q823.238 53.9013 823.238 58.8839 Q823.238 62.8538 825.83 65.2034 Q828.463 67.5124 832.96 67.5124 Q839.158 67.5124 842.885 63.1374 Q846.652 58.7219 846.652 51.4303 L846.652 49.7694 L839.239 49.7694 M854.106 46.6907 L854.106 72.576 L846.652 72.576 L846.652 65.6895 Q844.1 69.8214 840.292 71.8063 Q836.484 73.7508 830.975 73.7508 Q824.007 73.7508 819.876 69.8619 Q815.784 65.9325 815.784 59.3701 Q815.784 51.7138 820.888 47.825 Q826.033 43.9361 836.201 43.9361 L846.652 43.9361 L846.652 43.2069 Q846.652 38.0623 843.249 35.2672 Q839.887 32.4315 833.77 32.4315 Q829.881 32.4315 826.195 33.3632 Q822.509 34.295 819.106 36.1584 L819.106 29.2718 Q823.197 27.692 827.046 26.9223 Q830.894 26.1121 834.54 26.1121 Q844.383 26.1121 849.245 31.2163 Q854.106 36.3204 854.106 46.6907 Z" fill="#000000" fill-rule="nonzero" fill-opacity="1" /><path clip-path="url(#clip380)" d="M898.382 28.5427 L898.382 35.5912 Q895.222 33.9709 891.82 33.1607 Q888.417 32.3505 884.771 32.3505 Q879.221 32.3505 876.426 34.0519 Q873.672 35.7533 873.672 39.156 Q873.672 41.7486 875.656 43.2475 Q877.641 44.7058 883.637 46.0426 L886.189 46.6097 Q894.129 48.3111 897.45 51.4303 Q900.813 54.509 900.813 60.0587 Q900.813 66.3781 895.789 70.0644 Q890.807 73.7508 882.057 73.7508 Q878.411 73.7508 874.441 73.0216 Q870.512 72.3329 866.137 70.9151 L866.137 63.2184 Q870.269 65.3654 874.279 66.4591 Q878.29 67.5124 882.219 67.5124 Q887.485 67.5124 890.321 65.73 Q893.156 63.9071 893.156 60.6258 Q893.156 57.5877 891.09 55.9673 Q889.065 54.3469 882.138 52.8481 L879.545 52.2405 Q872.618 50.7821 869.54 47.7845 Q866.461 44.7463 866.461 39.4801 Q866.461 33.0797 870.998 29.5959 Q875.535 26.1121 883.88 26.1121 Q888.012 26.1121 891.658 26.7198 Q895.303 27.3274 898.382 28.5427 Z" fill="#000000" fill-rule="nonzero" fill-opacity="1" /><path clip-path="url(#clip380)" d="M920.054 14.324 L920.054 27.2059 L935.407 27.2059 L935.407 32.9987 L920.054 32.9987 L920.054 57.6282 Q920.054 63.1779 921.553 64.7578 Q923.093 66.3376 927.751 66.3376 L935.407 66.3376 L935.407 72.576 L927.751 72.576 Q919.123 72.576 915.841 69.3758 Q912.56 66.1351 912.56 57.6282 L912.56 32.9987 L907.091 32.9987 L907.091 27.2059 L912.56 27.2059 L912.56 14.324 L920.054 14.324 Z" fill="#000000" fill-rule="nonzero" fill-opacity="1" /><path clip-path="url(#clip380)" d="M1009.3 45.1919 L1009.3 72.576 L1001.84 72.576 L1001.84 45.4349 Q1001.84 38.994 999.331 35.7938 Q996.819 32.5936 991.796 32.5936 Q985.76 32.5936 982.276 36.4419 Q978.792 40.2903 978.792 46.9338 L978.792 72.576 L971.298 72.576 L971.298 9.54393 L978.792 9.54393 L978.792 34.2544 Q981.466 30.163 985.071 28.1376 Q988.717 26.1121 993.457 26.1121 Q1001.27 26.1121 1005.29 30.9732 Q1009.3 35.7938 1009.3 45.1919 Z" fill="#000000" fill-rule="nonzero" fill-opacity="1" /><path clip-path="url(#clip380)" d="M1044.78 49.7694 Q1035.75 49.7694 1032.26 51.8354 Q1028.78 53.9013 1028.78 58.8839 Q1028.78 62.8538 1031.37 65.2034 Q1034.01 67.5124 1038.5 67.5124 Q1044.7 67.5124 1048.43 63.1374 Q1052.19 58.7219 1052.19 51.4303 L1052.19 49.7694 L1044.78 49.7694 M1059.65 46.6907 L1059.65 72.576 L1052.19 72.576 L1052.19 65.6895 Q1049.64 69.8214 1045.83 71.8063 Q1042.03 73.7508 1036.52 73.7508 Q1029.55 73.7508 1025.42 69.8619 Q1021.33 65.9325 1021.33 59.3701 Q1021.33 51.7138 1026.43 47.825 Q1031.58 43.9361 1041.74 43.9361 L1052.19 43.9361 L1052.19 43.2069 Q1052.19 38.0623 1048.79 35.2672 Q1045.43 32.4315 1039.31 32.4315 Q1035.42 32.4315 1031.74 33.3632 Q1028.05 34.295 1024.65 36.1584 L1024.65 29.2718 Q1028.74 27.692 1032.59 26.9223 Q1036.44 26.1121 1040.08 26.1121 Q1049.93 26.1121 1054.79 31.2163 Q1059.65 36.3204 1059.65 46.6907 Z" fill="#000000" fill-rule="nonzero" fill-opacity="1" /><path clip-path="url(#clip380)" d="M1075 9.54393 L1082.46 9.54393 L1082.46 72.576 L1075 72.576 L1075 9.54393 Z" fill="#000000" fill-rule="nonzero" fill-opacity="1" /><path clip-path="url(#clip380)" d="M1121.02 9.54393 L1121.02 15.7418 L1113.89 15.7418 Q1109.88 15.7418 1108.3 17.3622 Q1106.76 18.9825 1106.76 23.1955 L1106.76 27.2059 L1119.03 27.2059 L1119.03 32.9987 L1106.76 32.9987 L1106.76 72.576 L1099.27 72.576 L1099.27 32.9987 L1092.14 32.9987 L1092.14 27.2059 L1099.27 27.2059 L1099.27 24.0462 Q1099.27 16.471 1102.79 13.0277 Q1106.31 9.54393 1113.97 9.54393 L1121.02 9.54393 Z" fill="#000000" fill-rule="nonzero" fill-opacity="1" /><path clip-path="url(#clip380)" d="M1171.21 32.4315 Q1165.22 32.4315 1161.73 37.1306 Q1158.25 41.7891 1158.25 49.9314 Q1158.25 58.0738 1161.69 62.7728 Q1165.17 67.4314 1171.21 67.4314 Q1177.17 67.4314 1180.65 62.7323 Q1184.13 58.0333 1184.13 49.9314 Q1184.13 41.8701 1180.65 37.1711 Q1177.17 32.4315 1171.21 32.4315 M1171.21 26.1121 Q1180.93 26.1121 1186.48 32.4315 Q1192.03 38.7509 1192.03 49.9314 Q1192.03 61.0714 1186.48 67.4314 Q1180.93 73.7508 1171.21 73.7508 Q1161.45 73.7508 1155.9 67.4314 Q1150.39 61.0714 1150.39 49.9314 Q1150.39 38.7509 1155.9 32.4315 Q1161.45 26.1121 1171.21 26.1121 Z" fill="#000000" fill-rule="nonzero" fill-opacity="1" /><path clip-path="url(#clip380)" d="M1227.36 9.54393 L1227.36 15.7418 L1220.23 15.7418 Q1216.22 15.7418 1214.64 17.3622 Q1213.1 18.9825 1213.1 23.1955 L1213.1 27.2059 L1225.37 27.2059 L1225.37 32.9987 L1213.1 32.9987 L1213.1 72.576 L1205.6 72.576 L1205.6 32.9987 L1198.47 32.9987 L1198.47 27.2059 L1205.6 27.2059 L1205.6 24.0462 Q1205.6 16.471 1209.13 13.0277 Q1212.65 9.54393 1220.31 9.54393 L1227.36 9.54393 Z" fill="#000000" fill-rule="nonzero" fill-opacity="1" /><path clip-path="url(#clip380)" d="M1288.89 28.5427 L1288.89 35.5912 Q1285.73 33.9709 1282.33 33.1607 Q1278.92 32.3505 1275.28 32.3505 Q1269.73 32.3505 1266.93 34.0519 Q1264.18 35.7533 1264.18 39.156 Q1264.18 41.7486 1266.16 43.2475 Q1268.15 44.7058 1274.14 46.0426 L1276.7 46.6097 Q1284.64 48.3111 1287.96 51.4303 Q1291.32 54.509 1291.32 60.0587 Q1291.32 66.3781 1286.3 70.0644 Q1281.31 73.7508 1272.56 73.7508 Q1268.92 73.7508 1264.95 73.0216 Q1261.02 72.3329 1256.64 70.9151 L1256.64 63.2184 Q1260.78 65.3654 1264.79 66.4591 Q1268.8 67.5124 1272.73 67.5124 Q1277.99 67.5124 1280.83 65.73 Q1283.66 63.9071 1283.66 60.6258 Q1283.66 57.5877 1281.6 55.9673 Q1279.57 54.3469 1272.65 52.8481 L1270.05 52.2405 Q1263.13 50.7821 1260.05 47.7845 Q1256.97 44.7463 1256.97 39.4801 Q1256.97 33.0797 1261.51 29.5959 Q1266.04 26.1121 1274.39 26.1121 Q1278.52 26.1121 1282.16 26.7198 Q1285.81 27.3274 1288.89 28.5427 Z" fill="#000000" fill-rule="nonzero" fill-opacity="1" /><path clip-path="url(#clip380)" d="M1320.77 32.4315 Q1314.77 32.4315 1311.29 37.1306 Q1307.81 41.7891 1307.81 49.9314 Q1307.81 58.0738 1311.25 62.7728 Q1314.73 67.4314 1320.77 67.4314 Q1326.72 67.4314 1330.21 62.7323 Q1333.69 58.0333 1333.69 49.9314 Q1333.69 41.8701 1330.21 37.1711 Q1326.72 32.4315 1320.77 32.4315 M1320.77 26.1121 Q1330.49 26.1121 1336.04 32.4315 Q1341.59 38.7509 1341.59 49.9314 Q1341.59 61.0714 1336.04 67.4314 Q1330.49 73.7508 1320.77 73.7508 Q1311.01 73.7508 1305.46 67.4314 Q1299.95 61.0714 1299.95 49.9314 Q1299.95 38.7509 1305.46 32.4315 Q1311.01 26.1121 1320.77 26.1121 Z" fill="#000000" fill-rule="nonzero" fill-opacity="1" /><path clip-path="url(#clip380)" d="M1380.24 34.1734 Q1378.98 33.4443 1377.48 33.1202 Q1376.02 32.7556 1374.24 32.7556 Q1367.92 32.7556 1364.52 36.8875 Q1361.16 40.9789 1361.16 48.6757 L1361.16 72.576 L1353.66 72.576 L1353.66 27.2059 L1361.16 27.2059 L1361.16 34.2544 Q1363.51 30.1225 1367.27 28.1376 Q1371.04 26.1121 1376.43 26.1121 Q1377.2 26.1121 1378.13 26.2337 Q1379.06 26.3147 1380.2 26.5172 L1380.24 34.1734 Z" fill="#000000" fill-rule="nonzero" fill-opacity="1" /><path clip-path="url(#clip380)" d="M1395.43 14.324 L1395.43 27.2059 L1410.78 27.2059 L1410.78 32.9987 L1395.43 32.9987 L1395.43 57.6282 Q1395.43 63.1779 1396.93 64.7578 Q1398.47 66.3376 1403.12 66.3376 L1410.78 66.3376 L1410.78 72.576 L1403.12 72.576 Q1394.5 72.576 1391.22 69.3758 Q1387.93 66.1351 1387.93 57.6282 L1387.93 32.9987 L1382.47 32.9987 L1382.47 27.2059 L1387.93 27.2059 L1387.93 14.324 L1395.43 14.324 Z" fill="#000000" fill-rule="nonzero" fill-opacity="1" /><path clip-path="url(#clip380)" d="M1459.39 48.0275 L1459.39 51.6733 L1425.12 51.6733 Q1425.61 59.3701 1429.74 63.421 Q1433.91 67.4314 1441.32 67.4314 Q1445.62 67.4314 1449.63 66.3781 Q1453.68 65.3249 1457.65 63.2184 L1457.65 70.267 Q1453.64 71.9684 1449.43 72.8596 Q1445.21 73.7508 1440.88 73.7508 Q1430.02 73.7508 1423.66 67.4314 Q1417.34 61.1119 1417.34 50.3365 Q1417.34 39.1965 1423.34 32.6746 Q1429.37 26.1121 1439.58 26.1121 Q1448.74 26.1121 1454.04 32.0264 Q1459.39 37.9003 1459.39 48.0275 M1451.94 45.84 Q1451.86 39.7232 1448.49 36.0774 Q1445.17 32.4315 1439.66 32.4315 Q1433.43 32.4315 1429.66 35.9558 Q1425.93 39.4801 1425.36 45.8805 L1451.94 45.84 Z" fill="#000000" fill-rule="nonzero" fill-opacity="1" /><path clip-path="url(#clip380)" d="M1501.48 34.0924 L1501.48 9.54393 L1508.93 9.54393 L1508.93 72.576 L1501.48 72.576 L1501.48 65.7705 Q1499.13 69.8214 1495.53 71.8063 Q1491.96 73.7508 1486.94 73.7508 Q1478.71 73.7508 1473.53 67.1883 Q1468.38 60.6258 1468.38 49.9314 Q1468.38 39.2371 1473.53 32.6746 Q1478.71 26.1121 1486.94 26.1121 Q1491.96 26.1121 1495.53 28.0971 Q1499.13 30.0415 1501.48 34.0924 M1476.08 49.9314 Q1476.08 58.1548 1479.44 62.8538 Q1482.85 67.5124 1488.76 67.5124 Q1494.68 67.5124 1498.08 62.8538 Q1501.48 58.1548 1501.48 49.9314 Q1501.48 41.7081 1498.08 37.0496 Q1494.68 32.3505 1488.76 32.3505 Q1482.85 32.3505 1479.44 37.0496 Q1476.08 41.7081 1476.08 49.9314 Z" fill="#000000" fill-rule="nonzero" fill-opacity="1" /><path clip-path="url(#clip380)" d="M1580.51 34.0924 L1580.51 9.54393 L1587.97 9.54393 L1587.97 72.576 L1580.51 72.576 L1580.51 65.7705 Q1578.16 69.8214 1574.56 71.8063 Q1570.99 73.7508 1565.97 73.7508 Q1557.75 73.7508 1552.56 67.1883 Q1547.42 60.6258 1547.42 49.9314 Q1547.42 39.2371 1552.56 32.6746 Q1557.75 26.1121 1565.97 26.1121 Q1570.99 26.1121 1574.56 28.0971 Q1578.16 30.0415 1580.51 34.0924 M1555.11 49.9314 Q1555.11 58.1548 1558.48 62.8538 Q1561.88 67.5124 1567.79 67.5124 Q1573.71 67.5124 1577.11 62.8538 Q1580.51 58.1548 1580.51 49.9314 Q1580.51 41.7081 1577.11 37.0496 Q1573.71 32.3505 1567.79 32.3505 Q1561.88 32.3505 1558.48 37.0496 Q1555.11 41.7081 1555.11 49.9314 Z" fill="#000000" fill-rule="nonzero" fill-opacity="1" /><path clip-path="url(#clip380)" d="M1642.13 48.0275 L1642.13 51.6733 L1607.86 51.6733 Q1608.34 59.3701 1612.48 63.421 Q1616.65 67.4314 1624.06 67.4314 Q1628.35 67.4314 1632.37 66.3781 Q1636.42 65.3249 1640.39 63.2184 L1640.39 70.267 Q1636.38 71.9684 1632.16 72.8596 Q1627.95 73.7508 1623.62 73.7508 Q1612.76 73.7508 1606.4 67.4314 Q1600.08 61.1119 1600.08 50.3365 Q1600.08 39.1965 1606.07 32.6746 Q1612.11 26.1121 1622.32 26.1121 Q1631.47 26.1121 1636.78 32.0264 Q1642.13 37.9003 1642.13 48.0275 M1634.67 45.84 Q1634.59 39.7232 1631.23 36.0774 Q1627.91 32.4315 1622.4 32.4315 Q1616.16 32.4315 1612.39 35.9558 Q1608.67 39.4801 1608.1 45.8805 L1634.67 45.84 Z" fill="#000000" fill-rule="nonzero" fill-opacity="1" /><path clip-path="url(#clip380)" d="M1684.22 49.3643 Q1684.22 41.2625 1680.85 36.8065 Q1677.53 32.3505 1671.5 32.3505 Q1665.5 32.3505 1662.14 36.8065 Q1658.82 41.2625 1658.82 49.3643 Q1658.82 57.4256 1662.14 61.8816 Q1665.5 66.3376 1671.5 66.3376 Q1677.53 66.3376 1680.85 61.8816 Q1684.22 57.4256 1684.22 49.3643 M1691.67 66.9452 Q1691.67 78.5308 1686.53 84.1616 Q1681.38 89.8329 1670.77 89.8329 Q1666.84 89.8329 1663.35 89.2252 Q1659.87 88.6581 1656.59 87.4428 L1656.59 80.1917 Q1659.87 81.9741 1663.07 82.8248 Q1666.27 83.6755 1669.59 83.6755 Q1676.93 83.6755 1680.57 79.8271 Q1684.22 76.0193 1684.22 68.282 L1684.22 64.5957 Q1681.91 68.6061 1678.3 70.5911 Q1674.7 72.576 1669.67 72.576 Q1661.33 72.576 1656.23 66.2161 Q1651.12 59.8562 1651.12 49.3643 Q1651.12 38.832 1656.23 32.472 Q1661.33 26.1121 1669.67 26.1121 Q1674.7 26.1121 1678.3 28.0971 Q1681.91 30.082 1684.22 34.0924 L1684.22 27.2059 L1691.67 27.2059 L1691.67 66.9452 Z" fill="#000000" fill-rule="nonzero" fill-opacity="1" /><path clip-path="url(#clip380)" d="M1733.31 34.1734 Q1732.06 33.4443 1730.56 33.1202 Q1729.1 32.7556 1727.32 32.7556 Q1721 32.7556 1717.6 36.8875 Q1714.23 40.9789 1714.23 48.6757 L1714.23 72.576 L1706.74 72.576 L1706.74 27.2059 L1714.23 27.2059 L1714.23 34.2544 Q1716.58 30.1225 1720.35 28.1376 Q1724.12 26.1121 1729.51 26.1121 Q1730.28 26.1121 1731.21 26.2337 Q1732.14 26.3147 1733.27 26.5172 L1733.31 34.1734 Z" fill="#000000" fill-rule="nonzero" fill-opacity="1" /><path clip-path="url(#clip380)" d="M1778.12 48.0275 L1778.12 51.6733 L1743.85 51.6733 Q1744.33 59.3701 1748.46 63.421 Q1752.64 67.4314 1760.05 67.4314 Q1764.34 67.4314 1768.35 66.3781 Q1772.41 65.3249 1776.38 63.2184 L1776.38 70.267 Q1772.36 71.9684 1768.15 72.8596 Q1763.94 73.7508 1759.6 73.7508 Q1748.75 73.7508 1742.39 67.4314 Q1736.07 61.1119 1736.07 50.3365 Q1736.07 39.1965 1742.06 32.6746 Q1748.1 26.1121 1758.31 26.1121 Q1767.46 26.1121 1772.77 32.0264 Q1778.12 37.9003 1778.12 48.0275 M1770.66 45.84 Q1770.58 39.7232 1767.22 36.0774 Q1763.9 32.4315 1758.39 32.4315 Q1752.15 32.4315 1748.38 35.9558 Q1744.66 39.4801 1744.09 45.8805 L1770.66 45.84 Z" fill="#000000" fill-rule="nonzero" fill-opacity="1" /><path clip-path="url(#clip380)" d="M1829.16 48.0275 L1829.16 51.6733 L1794.89 51.6733 Q1795.37 59.3701 1799.51 63.421 Q1803.68 67.4314 1811.09 67.4314 Q1815.39 67.4314 1819.4 66.3781 Q1823.45 65.3249 1827.42 63.2184 L1827.42 70.267 Q1823.41 71.9684 1819.19 72.8596 Q1814.98 73.7508 1810.65 73.7508 Q1799.79 73.7508 1793.43 67.4314 Q1787.11 61.1119 1787.11 50.3365 Q1787.11 39.1965 1793.11 32.6746 Q1799.14 26.1121 1809.35 26.1121 Q1818.5 26.1121 1823.81 32.0264 Q1829.16 37.9003 1829.16 48.0275 M1821.7 45.84 Q1821.62 39.7232 1818.26 36.0774 Q1814.94 32.4315 1809.43 32.4315 Q1803.19 32.4315 1799.42 35.9558 Q1795.7 39.4801 1795.13 45.8805 L1821.7 45.84 Z" fill="#000000" fill-rule="nonzero" fill-opacity="1" /><path clip-path="url(#clip380)" d="M1870.32 28.5427 L1870.32 35.5912 Q1867.16 33.9709 1863.75 33.1607 Q1860.35 32.3505 1856.7 32.3505 Q1851.15 32.3505 1848.36 34.0519 Q1845.6 35.7533 1845.6 39.156 Q1845.6 41.7486 1847.59 43.2475 Q1849.57 44.7058 1855.57 46.0426 L1858.12 46.6097 Q1866.06 48.3111 1869.38 51.4303 Q1872.75 54.509 1872.75 60.0587 Q1872.75 66.3781 1867.72 70.0644 Q1862.74 73.7508 1853.99 73.7508 Q1850.34 73.7508 1846.37 73.0216 Q1842.45 72.3329 1838.07 70.9151 L1838.07 63.2184 Q1842.2 65.3654 1846.21 66.4591 Q1850.22 67.5124 1854.15 67.5124 Q1859.42 67.5124 1862.25 65.73 Q1865.09 63.9071 1865.09 60.6258 Q1865.09 57.5877 1863.02 55.9673 Q1861 54.3469 1854.07 52.8481 L1851.48 52.2405 Q1844.55 50.7821 1841.47 47.7845 Q1838.39 44.7463 1838.39 39.4801 Q1838.39 33.0797 1842.93 29.5959 Q1847.47 26.1121 1855.81 26.1121 Q1859.95 26.1121 1863.59 26.7198 Q1867.24 27.3274 1870.32 28.5427 Z" fill="#000000" fill-rule="nonzero" fill-opacity="1" /><polyline clip-path="url(#clip382)" style="stroke:#000000; stroke-linecap:round; stroke-linejoin:round; stroke-width:4; stroke-opacity:1; fill:none" points="351.016,160.256 393.265,160.256 "/>
<polyline clip-path="url(#clip382)" style="stroke:#000000; stroke-linecap:round; stroke-linejoin:round; stroke-width:4; stroke-opacity:1; fill:none" points="393.265,776.286 435.513,776.286 "/>
<polyline clip-path="url(#clip382)" style="stroke:#000000; stroke-linecap:round; stroke-linejoin:round; stroke-width:4; stroke-opacity:1; fill:none" points="435.513,662.403 477.762,662.403 "/>
<polyline clip-path="url(#clip382)" style="stroke:#000000; stroke-linecap:round; stroke-linejoin:round; stroke-width:4; stroke-opacity:1; fill:none" points="477.762,1008.46 520.011,1008.46 "/>
<polyline clip-path="url(#clip382)" style="stroke:#000000; stroke-linecap:round; stroke-linejoin:round; stroke-width:4; stroke-opacity:1; fill:none" points="520.011,943.333 562.259,943.333 "/>
<polyline clip-path="url(#clip382)" style="stroke:#000000; stroke-linecap:round; stroke-linejoin:round; stroke-width:4; stroke-opacity:1; fill:none" points="562.259,1086.82 604.508,1086.82 "/>
<polyline clip-path="url(#clip382)" style="stroke:#000000; stroke-linecap:round; stroke-linejoin:round; stroke-width:4; stroke-opacity:1; fill:none" points="604.508,1103.2 646.757,1103.2 "/>
<polyline clip-path="url(#clip382)" style="stroke:#000000; stroke-linecap:round; stroke-linejoin:round; stroke-width:4; stroke-opacity:1; fill:none" points="646.757,1245.55 689.005,1245.55 "/>
<polyline clip-path="url(#clip382)" style="stroke:#000000; stroke-linecap:round; stroke-linejoin:round; stroke-width:4; stroke-opacity:1; fill:none" points="689.005,1212.04 731.254,1212.04 "/>
<polyline clip-path="url(#clip382)" style="stroke:#000000; stroke-linecap:round; stroke-linejoin:round; stroke-width:4; stroke-opacity:1; fill:none" points="731.254,1293.68 773.502,1293.68 "/>
<polyline clip-path="url(#clip382)" style="stroke:#000000; stroke-linecap:round; stroke-linejoin:round; stroke-width:4; stroke-opacity:1; fill:none" points="773.502,1261.8 815.751,1261.8 "/>
<polyline clip-path="url(#clip382)" style="stroke:#000000; stroke-linecap:round; stroke-linejoin:round; stroke-width:4; stroke-opacity:1; fill:none" points="815.751,1313.33 858,1313.33 "/>
<polyline clip-path="url(#clip382)" style="stroke:#000000; stroke-linecap:round; stroke-linejoin:round; stroke-width:4; stroke-opacity:1; fill:none" points="858,1287 900.248,1287 "/>
<polyline clip-path="url(#clip382)" style="stroke:#000000; stroke-linecap:round; stroke-linejoin:round; stroke-width:4; stroke-opacity:1; fill:none" points="900.248,1328.82 942.497,1328.82 "/>
<polyline clip-path="url(#clip382)" style="stroke:#000000; stroke-linecap:round; stroke-linejoin:round; stroke-width:4; stroke-opacity:1; fill:none" points="942.497,1305.14 984.746,1305.14 "/>
<polyline clip-path="url(#clip382)" style="stroke:#000000; stroke-linecap:round; stroke-linejoin:round; stroke-width:4; stroke-opacity:1; fill:none" points="984.746,1341.17 1026.99,1341.17 "/>
<polyline clip-path="url(#clip382)" style="stroke:#000000; stroke-linecap:round; stroke-linejoin:round; stroke-width:4; stroke-opacity:1; fill:none" points="1026.99,1334.49 1069.24,1334.49 "/>
<polyline clip-path="url(#clip382)" style="stroke:#000000; stroke-linecap:round; stroke-linejoin:round; stroke-width:4; stroke-opacity:1; fill:none" points="1069.24,1361.2 1111.49,1361.2 "/>
<polyline clip-path="url(#clip382)" style="stroke:#000000; stroke-linecap:round; stroke-linejoin:round; stroke-width:4; stroke-opacity:1; fill:none" points="1111.49,1340.04 1153.74,1340.04 "/>
<polyline clip-path="url(#clip382)" style="stroke:#000000; stroke-linecap:round; stroke-linejoin:round; stroke-width:4; stroke-opacity:1; fill:none" points="1153.74,1359.94 1195.99,1359.94 "/>
<polyline clip-path="url(#clip382)" style="stroke:#000000; stroke-linecap:round; stroke-linejoin:round; stroke-width:4; stroke-opacity:1; fill:none" points="1195.99,1357.67 1238.24,1357.67 "/>
<polyline clip-path="url(#clip382)" style="stroke:#000000; stroke-linecap:round; stroke-linejoin:round; stroke-width:4; stroke-opacity:1; fill:none" points="1238.24,1365.61 1280.49,1365.61 "/>
<polyline clip-path="url(#clip382)" style="stroke:#000000; stroke-linecap:round; stroke-linejoin:round; stroke-width:4; stroke-opacity:1; fill:none" points="1280.49,1355.03 1322.73,1355.03 "/>
<polyline clip-path="url(#clip382)" style="stroke:#000000; stroke-linecap:round; stroke-linejoin:round; stroke-width:4; stroke-opacity:1; fill:none" points="1322.73,1368.88 1364.98,1368.88 "/>
<polyline clip-path="url(#clip382)" style="stroke:#000000; stroke-linecap:round; stroke-linejoin:round; stroke-width:4; stroke-opacity:1; fill:none" points="1364.98,1366.62 1407.23,1366.62 "/>
<polyline clip-path="url(#clip382)" style="stroke:#000000; stroke-linecap:round; stroke-linejoin:round; stroke-width:4; stroke-opacity:1; fill:none" points="1407.23,1373.55 1449.48,1373.55 "/>
<polyline clip-path="url(#clip382)" style="stroke:#000000; stroke-linecap:round; stroke-linejoin:round; stroke-width:4; stroke-opacity:1; fill:none" points="1449.48,1334.24 1491.73,1334.24 "/>
<polyline clip-path="url(#clip382)" style="stroke:#000000; stroke-linecap:round; stroke-linejoin:round; stroke-width:4; stroke-opacity:1; fill:none" points="1491.73,1370.9 1533.98,1370.9 "/>
<polyline clip-path="url(#clip382)" style="stroke:#000000; stroke-linecap:round; stroke-linejoin:round; stroke-width:4; stroke-opacity:1; fill:none" points="1533.98,1348.73 1576.23,1348.73 "/>
<polyline clip-path="url(#clip382)" style="stroke:#000000; stroke-linecap:round; stroke-linejoin:round; stroke-width:4; stroke-opacity:1; fill:none" points="1576.23,1374.3 1618.47,1374.3 "/>
<polyline clip-path="url(#clip382)" style="stroke:#000000; stroke-linecap:round; stroke-linejoin:round; stroke-width:4; stroke-opacity:1; fill:none" points="1618.47,1369.39 1660.72,1369.39 "/>
<polyline clip-path="url(#clip382)" style="stroke:#000000; stroke-linecap:round; stroke-linejoin:round; stroke-width:4; stroke-opacity:1; fill:none" points="1660.72,1368.13 1702.97,1368.13 "/>
<polyline clip-path="url(#clip382)" style="stroke:#000000; stroke-linecap:round; stroke-linejoin:round; stroke-width:4; stroke-opacity:1; fill:none" points="1702.97,1368 1745.22,1368 "/>
<polyline clip-path="url(#clip382)" style="stroke:#000000; stroke-linecap:round; stroke-linejoin:round; stroke-width:4; stroke-opacity:1; fill:none" points="1745.22,1372.79 1787.47,1372.79 "/>
<polyline clip-path="url(#clip382)" style="stroke:#000000; stroke-linecap:round; stroke-linejoin:round; stroke-width:4; stroke-opacity:1; fill:none" points="1787.47,1368.13 1829.72,1368.13 "/>
<polyline clip-path="url(#clip382)" style="stroke:#000000; stroke-linecap:round; stroke-linejoin:round; stroke-width:4; stroke-opacity:1; fill:none" points="1829.72,1384.51 1871.97,1384.51 "/>
<polyline clip-path="url(#clip382)" style="stroke:#000000; stroke-linecap:round; stroke-linejoin:round; stroke-width:4; stroke-opacity:1; fill:none" points="1871.97,1362.21 1914.22,1362.21 "/>
<polyline clip-path="url(#clip382)" style="stroke:#000000; stroke-linecap:round; stroke-linejoin:round; stroke-width:4; stroke-opacity:1; fill:none" points="1914.22,1386.4 1956.46,1386.4 "/>
<polyline clip-path="url(#clip382)" style="stroke:#000000; stroke-linecap:round; stroke-linejoin:round; stroke-width:4; stroke-opacity:1; fill:none" points="1956.46,1369.89 1998.71,1369.89 "/>
<polyline clip-path="url(#clip382)" style="stroke:#000000; stroke-linecap:round; stroke-linejoin:round; stroke-width:4; stroke-opacity:1; fill:none" points="1998.71,1376.44 2040.96,1376.44 "/>
<polyline clip-path="url(#clip382)" style="stroke:#000000; stroke-linecap:round; stroke-linejoin:round; stroke-width:4; stroke-opacity:1; fill:none" points="2040.96,1366.87 2083.21,1366.87 "/>
<polyline clip-path="url(#clip382)" style="stroke:#000000; stroke-linecap:round; stroke-linejoin:round; stroke-width:4; stroke-opacity:1; fill:none" points="2083.21,1383.25 2125.46,1383.25 "/>
<polyline clip-path="url(#clip382)" style="stroke:#000000; stroke-linecap:round; stroke-linejoin:round; stroke-width:4; stroke-opacity:1; fill:none" points="2125.46,1340.41 2167.71,1340.41 "/>
<polyline clip-path="url(#clip382)" style="stroke:#000000; stroke-linecap:round; stroke-linejoin:round; stroke-width:4; stroke-opacity:1; fill:none" points="2167.71,1358.68 2209.96,1358.68 "/>
<polyline clip-path="url(#clip382)" style="stroke:#000000; stroke-linecap:round; stroke-linejoin:round; stroke-width:4; stroke-opacity:1; fill:none" points="2209.96,1382.36 2252.2,1382.36 "/>
<polyline clip-path="url(#clip382)" style="stroke:#000000; stroke-linecap:round; stroke-linejoin:round; stroke-width:4; stroke-opacity:1; fill:none" points="2252.2,1386.14 2294.45,1386.14 "/>
<line clip-path="url(#clip382)" x1="351.016" y1="176.256" x2="351.016" y2="144.256" style="stroke:#000000; stroke-width:3.2; stroke-opacity:1"/>
<line clip-path="url(#clip382)" x1="393.265" y1="176.256" x2="393.265" y2="144.256" style="stroke:#000000; stroke-width:3.2; stroke-opacity:1"/>
<line clip-path="url(#clip382)" x1="393.265" y1="792.286" x2="393.265" y2="760.286" style="stroke:#000000; stroke-width:3.2; stroke-opacity:1"/>
<line clip-path="url(#clip382)" x1="435.513" y1="792.286" x2="435.513" y2="760.286" style="stroke:#000000; stroke-width:3.2; stroke-opacity:1"/>
<line clip-path="url(#clip382)" x1="435.513" y1="678.403" x2="435.513" y2="646.403" style="stroke:#000000; stroke-width:3.2; stroke-opacity:1"/>
<line clip-path="url(#clip382)" x1="477.762" y1="678.403" x2="477.762" y2="646.403" style="stroke:#000000; stroke-width:3.2; stroke-opacity:1"/>
<line clip-path="url(#clip382)" x1="477.762" y1="1024.46" x2="477.762" y2="992.463" style="stroke:#000000; stroke-width:3.2; stroke-opacity:1"/>
<line clip-path="url(#clip382)" x1="520.011" y1="1024.46" x2="520.011" y2="992.463" style="stroke:#000000; stroke-width:3.2; stroke-opacity:1"/>
<line clip-path="url(#clip382)" x1="520.011" y1="959.333" x2="520.011" y2="927.333" style="stroke:#000000; stroke-width:3.2; stroke-opacity:1"/>
<line clip-path="url(#clip382)" x1="562.259" y1="959.333" x2="562.259" y2="927.333" style="stroke:#000000; stroke-width:3.2; stroke-opacity:1"/>
<line clip-path="url(#clip382)" x1="562.259" y1="1102.82" x2="562.259" y2="1070.82" style="stroke:#000000; stroke-width:3.2; stroke-opacity:1"/>
<line clip-path="url(#clip382)" x1="604.508" y1="1102.82" x2="604.508" y2="1070.82" style="stroke:#000000; stroke-width:3.2; stroke-opacity:1"/>
<line clip-path="url(#clip382)" x1="604.508" y1="1119.2" x2="604.508" y2="1087.2" style="stroke:#000000; stroke-width:3.2; stroke-opacity:1"/>
<line clip-path="url(#clip382)" x1="646.757" y1="1119.2" x2="646.757" y2="1087.2" style="stroke:#000000; stroke-width:3.2; stroke-opacity:1"/>
<line clip-path="url(#clip382)" x1="646.757" y1="1261.55" x2="646.757" y2="1229.55" style="stroke:#000000; stroke-width:3.2; stroke-opacity:1"/>
<line clip-path="url(#clip382)" x1="689.005" y1="1261.55" x2="689.005" y2="1229.55" style="stroke:#000000; stroke-width:3.2; stroke-opacity:1"/>
<line clip-path="url(#clip382)" x1="689.005" y1="1228.04" x2="689.005" y2="1196.04" style="stroke:#000000; stroke-width:3.2; stroke-opacity:1"/>
<line clip-path="url(#clip382)" x1="731.254" y1="1228.04" x2="731.254" y2="1196.04" style="stroke:#000000; stroke-width:3.2; stroke-opacity:1"/>
<line clip-path="url(#clip382)" x1="731.254" y1="1309.68" x2="731.254" y2="1277.68" style="stroke:#000000; stroke-width:3.2; stroke-opacity:1"/>
<line clip-path="url(#clip382)" x1="773.502" y1="1309.68" x2="773.502" y2="1277.68" style="stroke:#000000; stroke-width:3.2; stroke-opacity:1"/>
<line clip-path="url(#clip382)" x1="773.502" y1="1277.8" x2="773.502" y2="1245.8" style="stroke:#000000; stroke-width:3.2; stroke-opacity:1"/>
<line clip-path="url(#clip382)" x1="815.751" y1="1277.8" x2="815.751" y2="1245.8" style="stroke:#000000; stroke-width:3.2; stroke-opacity:1"/>
<line clip-path="url(#clip382)" x1="815.751" y1="1329.33" x2="815.751" y2="1297.33" style="stroke:#000000; stroke-width:3.2; stroke-opacity:1"/>
<line clip-path="url(#clip382)" x1="858" y1="1329.33" x2="858" y2="1297.33" style="stroke:#000000; stroke-width:3.2; stroke-opacity:1"/>
<line clip-path="url(#clip382)" x1="858" y1="1303" x2="858" y2="1271" style="stroke:#000000; stroke-width:3.2; stroke-opacity:1"/>
<line clip-path="url(#clip382)" x1="900.248" y1="1303" x2="900.248" y2="1271" style="stroke:#000000; stroke-width:3.2; stroke-opacity:1"/>
<line clip-path="url(#clip382)" x1="900.248" y1="1344.82" x2="900.248" y2="1312.82" style="stroke:#000000; stroke-width:3.2; stroke-opacity:1"/>
<line clip-path="url(#clip382)" x1="942.497" y1="1344.82" x2="942.497" y2="1312.82" style="stroke:#000000; stroke-width:3.2; stroke-opacity:1"/>
<line clip-path="url(#clip382)" x1="942.497" y1="1321.14" x2="942.497" y2="1289.14" style="stroke:#000000; stroke-width:3.2; stroke-opacity:1"/>
<line clip-path="url(#clip382)" x1="984.746" y1="1321.14" x2="984.746" y2="1289.14" style="stroke:#000000; stroke-width:3.2; stroke-opacity:1"/>
<line clip-path="url(#clip382)" x1="984.746" y1="1357.17" x2="984.746" y2="1325.17" style="stroke:#000000; stroke-width:3.2; stroke-opacity:1"/>
<line clip-path="url(#clip382)" x1="1026.99" y1="1357.17" x2="1026.99" y2="1325.17" style="stroke:#000000; stroke-width:3.2; stroke-opacity:1"/>
<line clip-path="url(#clip382)" x1="1026.99" y1="1350.49" x2="1026.99" y2="1318.49" style="stroke:#000000; stroke-width:3.2; stroke-opacity:1"/>
<line clip-path="url(#clip382)" x1="1069.24" y1="1350.49" x2="1069.24" y2="1318.49" style="stroke:#000000; stroke-width:3.2; stroke-opacity:1"/>
<line clip-path="url(#clip382)" x1="1069.24" y1="1377.2" x2="1069.24" y2="1345.2" style="stroke:#000000; stroke-width:3.2; stroke-opacity:1"/>
<line clip-path="url(#clip382)" x1="1111.49" y1="1377.2" x2="1111.49" y2="1345.2" style="stroke:#000000; stroke-width:3.2; stroke-opacity:1"/>
<line clip-path="url(#clip382)" x1="1111.49" y1="1356.04" x2="1111.49" y2="1324.04" style="stroke:#000000; stroke-width:3.2; stroke-opacity:1"/>
<line clip-path="url(#clip382)" x1="1153.74" y1="1356.04" x2="1153.74" y2="1324.04" style="stroke:#000000; stroke-width:3.2; stroke-opacity:1"/>
<line clip-path="url(#clip382)" x1="1153.74" y1="1375.94" x2="1153.74" y2="1343.94" style="stroke:#000000; stroke-width:3.2; stroke-opacity:1"/>
<line clip-path="url(#clip382)" x1="1195.99" y1="1375.94" x2="1195.99" y2="1343.94" style="stroke:#000000; stroke-width:3.2; stroke-opacity:1"/>
<line clip-path="url(#clip382)" x1="1195.99" y1="1373.67" x2="1195.99" y2="1341.67" style="stroke:#000000; stroke-width:3.2; stroke-opacity:1"/>
<line clip-path="url(#clip382)" x1="1238.24" y1="1373.67" x2="1238.24" y2="1341.67" style="stroke:#000000; stroke-width:3.2; stroke-opacity:1"/>
<line clip-path="url(#clip382)" x1="1238.24" y1="1381.61" x2="1238.24" y2="1349.61" style="stroke:#000000; stroke-width:3.2; stroke-opacity:1"/>
<line clip-path="url(#clip382)" x1="1280.49" y1="1381.61" x2="1280.49" y2="1349.61" style="stroke:#000000; stroke-width:3.2; stroke-opacity:1"/>
<line clip-path="url(#clip382)" x1="1280.49" y1="1371.03" x2="1280.49" y2="1339.03" style="stroke:#000000; stroke-width:3.2; stroke-opacity:1"/>
<line clip-path="url(#clip382)" x1="1322.73" y1="1371.03" x2="1322.73" y2="1339.03" style="stroke:#000000; stroke-width:3.2; stroke-opacity:1"/>
<line clip-path="url(#clip382)" x1="1322.73" y1="1384.88" x2="1322.73" y2="1352.88" style="stroke:#000000; stroke-width:3.2; stroke-opacity:1"/>
<line clip-path="url(#clip382)" x1="1364.98" y1="1384.88" x2="1364.98" y2="1352.88" style="stroke:#000000; stroke-width:3.2; stroke-opacity:1"/>
<line clip-path="url(#clip382)" x1="1364.98" y1="1382.62" x2="1364.98" y2="1350.62" style="stroke:#000000; stroke-width:3.2; stroke-opacity:1"/>
<line clip-path="url(#clip382)" x1="1407.23" y1="1382.62" x2="1407.23" y2="1350.62" style="stroke:#000000; stroke-width:3.2; stroke-opacity:1"/>
<line clip-path="url(#clip382)" x1="1407.23" y1="1389.55" x2="1407.23" y2="1357.55" style="stroke:#000000; stroke-width:3.2; stroke-opacity:1"/>
<line clip-path="url(#clip382)" x1="1449.48" y1="1389.55" x2="1449.48" y2="1357.55" style="stroke:#000000; stroke-width:3.2; stroke-opacity:1"/>
<line clip-path="url(#clip382)" x1="1449.48" y1="1350.24" x2="1449.48" y2="1318.24" style="stroke:#000000; stroke-width:3.2; stroke-opacity:1"/>
<line clip-path="url(#clip382)" x1="1491.73" y1="1350.24" x2="1491.73" y2="1318.24" style="stroke:#000000; stroke-width:3.2; stroke-opacity:1"/>
<line clip-path="url(#clip382)" x1="1491.73" y1="1386.9" x2="1491.73" y2="1354.9" style="stroke:#000000; stroke-width:3.2; stroke-opacity:1"/>
<line clip-path="url(#clip382)" x1="1533.98" y1="1386.9" x2="1533.98" y2="1354.9" style="stroke:#000000; stroke-width:3.2; stroke-opacity:1"/>
<line clip-path="url(#clip382)" x1="1533.98" y1="1364.73" x2="1533.98" y2="1332.73" style="stroke:#000000; stroke-width:3.2; stroke-opacity:1"/>
<line clip-path="url(#clip382)" x1="1576.23" y1="1364.73" x2="1576.23" y2="1332.73" style="stroke:#000000; stroke-width:3.2; stroke-opacity:1"/>
<line clip-path="url(#clip382)" x1="1576.23" y1="1390.3" x2="1576.23" y2="1358.3" style="stroke:#000000; stroke-width:3.2; stroke-opacity:1"/>
<line clip-path="url(#clip382)" x1="1618.47" y1="1390.3" x2="1618.47" y2="1358.3" style="stroke:#000000; stroke-width:3.2; stroke-opacity:1"/>
<line clip-path="url(#clip382)" x1="1618.47" y1="1385.39" x2="1618.47" y2="1353.39" style="stroke:#000000; stroke-width:3.2; stroke-opacity:1"/>
<line clip-path="url(#clip382)" x1="1660.72" y1="1385.39" x2="1660.72" y2="1353.39" style="stroke:#000000; stroke-width:3.2; stroke-opacity:1"/>
<line clip-path="url(#clip382)" x1="1660.72" y1="1384.13" x2="1660.72" y2="1352.13" style="stroke:#000000; stroke-width:3.2; stroke-opacity:1"/>
<line clip-path="url(#clip382)" x1="1702.97" y1="1384.13" x2="1702.97" y2="1352.13" style="stroke:#000000; stroke-width:3.2; stroke-opacity:1"/>
<line clip-path="url(#clip382)" x1="1702.97" y1="1384" x2="1702.97" y2="1352" style="stroke:#000000; stroke-width:3.2; stroke-opacity:1"/>
<line clip-path="url(#clip382)" x1="1745.22" y1="1384" x2="1745.22" y2="1352" style="stroke:#000000; stroke-width:3.2; stroke-opacity:1"/>
<line clip-path="url(#clip382)" x1="1745.22" y1="1388.79" x2="1745.22" y2="1356.79" style="stroke:#000000; stroke-width:3.2; stroke-opacity:1"/>
<line clip-path="url(#clip382)" x1="1787.47" y1="1388.79" x2="1787.47" y2="1356.79" style="stroke:#000000; stroke-width:3.2; stroke-opacity:1"/>
<line clip-path="url(#clip382)" x1="1787.47" y1="1384.13" x2="1787.47" y2="1352.13" style="stroke:#000000; stroke-width:3.2; stroke-opacity:1"/>
<line clip-path="url(#clip382)" x1="1829.72" y1="1384.13" x2="1829.72" y2="1352.13" style="stroke:#000000; stroke-width:3.2; stroke-opacity:1"/>
<line clip-path="url(#clip382)" x1="1829.72" y1="1400.51" x2="1829.72" y2="1368.51" style="stroke:#000000; stroke-width:3.2; stroke-opacity:1"/>
<line clip-path="url(#clip382)" x1="1871.97" y1="1400.51" x2="1871.97" y2="1368.51" style="stroke:#000000; stroke-width:3.2; stroke-opacity:1"/>
<line clip-path="url(#clip382)" x1="1871.97" y1="1378.21" x2="1871.97" y2="1346.21" style="stroke:#000000; stroke-width:3.2; stroke-opacity:1"/>
<line clip-path="url(#clip382)" x1="1914.22" y1="1378.21" x2="1914.22" y2="1346.21" style="stroke:#000000; stroke-width:3.2; stroke-opacity:1"/>
<line clip-path="url(#clip382)" x1="1914.22" y1="1402.4" x2="1914.22" y2="1370.4" style="stroke:#000000; stroke-width:3.2; stroke-opacity:1"/>
<line clip-path="url(#clip382)" x1="1956.46" y1="1402.4" x2="1956.46" y2="1370.4" style="stroke:#000000; stroke-width:3.2; stroke-opacity:1"/>
<line clip-path="url(#clip382)" x1="1956.46" y1="1385.89" x2="1956.46" y2="1353.89" style="stroke:#000000; stroke-width:3.2; stroke-opacity:1"/>
<line clip-path="url(#clip382)" x1="1998.71" y1="1385.89" x2="1998.71" y2="1353.89" style="stroke:#000000; stroke-width:3.2; stroke-opacity:1"/>
<line clip-path="url(#clip382)" x1="1998.71" y1="1392.44" x2="1998.71" y2="1360.44" style="stroke:#000000; stroke-width:3.2; stroke-opacity:1"/>
<line clip-path="url(#clip382)" x1="2040.96" y1="1392.44" x2="2040.96" y2="1360.44" style="stroke:#000000; stroke-width:3.2; stroke-opacity:1"/>
<line clip-path="url(#clip382)" x1="2040.96" y1="1382.87" x2="2040.96" y2="1350.87" style="stroke:#000000; stroke-width:3.2; stroke-opacity:1"/>
<line clip-path="url(#clip382)" x1="2083.21" y1="1382.87" x2="2083.21" y2="1350.87" style="stroke:#000000; stroke-width:3.2; stroke-opacity:1"/>
<line clip-path="url(#clip382)" x1="2083.21" y1="1399.25" x2="2083.21" y2="1367.25" style="stroke:#000000; stroke-width:3.2; stroke-opacity:1"/>
<line clip-path="url(#clip382)" x1="2125.46" y1="1399.25" x2="2125.46" y2="1367.25" style="stroke:#000000; stroke-width:3.2; stroke-opacity:1"/>
<line clip-path="url(#clip382)" x1="2125.46" y1="1356.41" x2="2125.46" y2="1324.41" style="stroke:#000000; stroke-width:3.2; stroke-opacity:1"/>
<line clip-path="url(#clip382)" x1="2167.71" y1="1356.41" x2="2167.71" y2="1324.41" style="stroke:#000000; stroke-width:3.2; stroke-opacity:1"/>
<line clip-path="url(#clip382)" x1="2167.71" y1="1374.68" x2="2167.71" y2="1342.68" style="stroke:#000000; stroke-width:3.2; stroke-opacity:1"/>
<line clip-path="url(#clip382)" x1="2209.96" y1="1374.68" x2="2209.96" y2="1342.68" style="stroke:#000000; stroke-width:3.2; stroke-opacity:1"/>
<line clip-path="url(#clip382)" x1="2209.96" y1="1398.36" x2="2209.96" y2="1366.36" style="stroke:#000000; stroke-width:3.2; stroke-opacity:1"/>
<line clip-path="url(#clip382)" x1="2252.2" y1="1398.36" x2="2252.2" y2="1366.36" style="stroke:#000000; stroke-width:3.2; stroke-opacity:1"/>
<line clip-path="url(#clip382)" x1="2252.2" y1="1402.14" x2="2252.2" y2="1370.14" style="stroke:#000000; stroke-width:3.2; stroke-opacity:1"/>
<line clip-path="url(#clip382)" x1="2294.45" y1="1402.14" x2="2294.45" y2="1370.14" style="stroke:#000000; stroke-width:3.2; stroke-opacity:1"/>
<circle clip-path="url(#clip382)" cx="372.141" cy="160.256" r="14.4" fill="#009af9" fill-rule="evenodd" fill-opacity="1" stroke="#000000" stroke-opacity="1" stroke-width="3.2"/>
<circle clip-path="url(#clip382)" cx="414.389" cy="776.286" r="14.4" fill="#009af9" fill-rule="evenodd" fill-opacity="1" stroke="#000000" stroke-opacity="1" stroke-width="3.2"/>
<circle clip-path="url(#clip382)" cx="456.638" cy="662.403" r="14.4" fill="#009af9" fill-rule="evenodd" fill-opacity="1" stroke="#000000" stroke-opacity="1" stroke-width="3.2"/>
<circle clip-path="url(#clip382)" cx="498.886" cy="1008.46" r="14.4" fill="#009af9" fill-rule="evenodd" fill-opacity="1" stroke="#000000" stroke-opacity="1" stroke-width="3.2"/>
<circle clip-path="url(#clip382)" cx="541.135" cy="943.333" r="14.4" fill="#009af9" fill-rule="evenodd" fill-opacity="1" stroke="#000000" stroke-opacity="1" stroke-width="3.2"/>
<circle clip-path="url(#clip382)" cx="583.384" cy="1086.82" r="14.4" fill="#009af9" fill-rule="evenodd" fill-opacity="1" stroke="#000000" stroke-opacity="1" stroke-width="3.2"/>
<circle clip-path="url(#clip382)" cx="625.632" cy="1103.2" r="14.4" fill="#009af9" fill-rule="evenodd" fill-opacity="1" stroke="#000000" stroke-opacity="1" stroke-width="3.2"/>
<circle clip-path="url(#clip382)" cx="667.881" cy="1245.55" r="14.4" fill="#009af9" fill-rule="evenodd" fill-opacity="1" stroke="#000000" stroke-opacity="1" stroke-width="3.2"/>
<circle clip-path="url(#clip382)" cx="710.129" cy="1212.04" r="14.4" fill="#009af9" fill-rule="evenodd" fill-opacity="1" stroke="#000000" stroke-opacity="1" stroke-width="3.2"/>
<circle clip-path="url(#clip382)" cx="752.378" cy="1293.68" r="14.4" fill="#009af9" fill-rule="evenodd" fill-opacity="1" stroke="#000000" stroke-opacity="1" stroke-width="3.2"/>
<circle clip-path="url(#clip382)" cx="794.627" cy="1261.8" r="14.4" fill="#009af9" fill-rule="evenodd" fill-opacity="1" stroke="#000000" stroke-opacity="1" stroke-width="3.2"/>
<circle clip-path="url(#clip382)" cx="836.875" cy="1313.33" r="14.4" fill="#009af9" fill-rule="evenodd" fill-opacity="1" stroke="#000000" stroke-opacity="1" stroke-width="3.2"/>
<circle clip-path="url(#clip382)" cx="879.124" cy="1287" r="14.4" fill="#009af9" fill-rule="evenodd" fill-opacity="1" stroke="#000000" stroke-opacity="1" stroke-width="3.2"/>
<circle clip-path="url(#clip382)" cx="921.373" cy="1328.82" r="14.4" fill="#009af9" fill-rule="evenodd" fill-opacity="1" stroke="#000000" stroke-opacity="1" stroke-width="3.2"/>
<circle clip-path="url(#clip382)" cx="963.621" cy="1305.14" r="14.4" fill="#009af9" fill-rule="evenodd" fill-opacity="1" stroke="#000000" stroke-opacity="1" stroke-width="3.2"/>
<circle clip-path="url(#clip382)" cx="1005.87" cy="1341.17" r="14.4" fill="#009af9" fill-rule="evenodd" fill-opacity="1" stroke="#000000" stroke-opacity="1" stroke-width="3.2"/>
<circle clip-path="url(#clip382)" cx="1048.12" cy="1334.49" r="14.4" fill="#009af9" fill-rule="evenodd" fill-opacity="1" stroke="#000000" stroke-opacity="1" stroke-width="3.2"/>
<circle clip-path="url(#clip382)" cx="1090.37" cy="1361.2" r="14.4" fill="#009af9" fill-rule="evenodd" fill-opacity="1" stroke="#000000" stroke-opacity="1" stroke-width="3.2"/>
<circle clip-path="url(#clip382)" cx="1132.62" cy="1340.04" r="14.4" fill="#009af9" fill-rule="evenodd" fill-opacity="1" stroke="#000000" stroke-opacity="1" stroke-width="3.2"/>
<circle clip-path="url(#clip382)" cx="1174.86" cy="1359.94" r="14.4" fill="#009af9" fill-rule="evenodd" fill-opacity="1" stroke="#000000" stroke-opacity="1" stroke-width="3.2"/>
<circle clip-path="url(#clip382)" cx="1217.11" cy="1357.67" r="14.4" fill="#009af9" fill-rule="evenodd" fill-opacity="1" stroke="#000000" stroke-opacity="1" stroke-width="3.2"/>
<circle clip-path="url(#clip382)" cx="1259.36" cy="1365.61" r="14.4" fill="#009af9" fill-rule="evenodd" fill-opacity="1" stroke="#000000" stroke-opacity="1" stroke-width="3.2"/>
<circle clip-path="url(#clip382)" cx="1301.61" cy="1355.03" r="14.4" fill="#009af9" fill-rule="evenodd" fill-opacity="1" stroke="#000000" stroke-opacity="1" stroke-width="3.2"/>
<circle clip-path="url(#clip382)" cx="1343.86" cy="1368.88" r="14.4" fill="#009af9" fill-rule="evenodd" fill-opacity="1" stroke="#000000" stroke-opacity="1" stroke-width="3.2"/>
<circle clip-path="url(#clip382)" cx="1386.11" cy="1366.62" r="14.4" fill="#009af9" fill-rule="evenodd" fill-opacity="1" stroke="#000000" stroke-opacity="1" stroke-width="3.2"/>
<circle clip-path="url(#clip382)" cx="1428.36" cy="1373.55" r="14.4" fill="#009af9" fill-rule="evenodd" fill-opacity="1" stroke="#000000" stroke-opacity="1" stroke-width="3.2"/>
<circle clip-path="url(#clip382)" cx="1470.6" cy="1334.24" r="14.4" fill="#009af9" fill-rule="evenodd" fill-opacity="1" stroke="#000000" stroke-opacity="1" stroke-width="3.2"/>
<circle clip-path="url(#clip382)" cx="1512.85" cy="1370.9" r="14.4" fill="#009af9" fill-rule="evenodd" fill-opacity="1" stroke="#000000" stroke-opacity="1" stroke-width="3.2"/>
<circle clip-path="url(#clip382)" cx="1555.1" cy="1348.73" r="14.4" fill="#009af9" fill-rule="evenodd" fill-opacity="1" stroke="#000000" stroke-opacity="1" stroke-width="3.2"/>
<circle clip-path="url(#clip382)" cx="1597.35" cy="1374.3" r="14.4" fill="#009af9" fill-rule="evenodd" fill-opacity="1" stroke="#000000" stroke-opacity="1" stroke-width="3.2"/>
<circle clip-path="url(#clip382)" cx="1639.6" cy="1369.39" r="14.4" fill="#009af9" fill-rule="evenodd" fill-opacity="1" stroke="#000000" stroke-opacity="1" stroke-width="3.2"/>
<circle clip-path="url(#clip382)" cx="1681.85" cy="1368.13" r="14.4" fill="#009af9" fill-rule="evenodd" fill-opacity="1" stroke="#000000" stroke-opacity="1" stroke-width="3.2"/>
<circle clip-path="url(#clip382)" cx="1724.1" cy="1368" r="14.4" fill="#009af9" fill-rule="evenodd" fill-opacity="1" stroke="#000000" stroke-opacity="1" stroke-width="3.2"/>
<circle clip-path="url(#clip382)" cx="1766.35" cy="1372.79" r="14.4" fill="#009af9" fill-rule="evenodd" fill-opacity="1" stroke="#000000" stroke-opacity="1" stroke-width="3.2"/>
<circle clip-path="url(#clip382)" cx="1808.59" cy="1368.13" r="14.4" fill="#009af9" fill-rule="evenodd" fill-opacity="1" stroke="#000000" stroke-opacity="1" stroke-width="3.2"/>
<circle clip-path="url(#clip382)" cx="1850.84" cy="1384.51" r="14.4" fill="#009af9" fill-rule="evenodd" fill-opacity="1" stroke="#000000" stroke-opacity="1" stroke-width="3.2"/>
<circle clip-path="url(#clip382)" cx="1893.09" cy="1362.21" r="14.4" fill="#009af9" fill-rule="evenodd" fill-opacity="1" stroke="#000000" stroke-opacity="1" stroke-width="3.2"/>
<circle clip-path="url(#clip382)" cx="1935.34" cy="1386.4" r="14.4" fill="#009af9" fill-rule="evenodd" fill-opacity="1" stroke="#000000" stroke-opacity="1" stroke-width="3.2"/>
<circle clip-path="url(#clip382)" cx="1977.59" cy="1369.89" r="14.4" fill="#009af9" fill-rule="evenodd" fill-opacity="1" stroke="#000000" stroke-opacity="1" stroke-width="3.2"/>
<circle clip-path="url(#clip382)" cx="2019.84" cy="1376.44" r="14.4" fill="#009af9" fill-rule="evenodd" fill-opacity="1" stroke="#000000" stroke-opacity="1" stroke-width="3.2"/>
<circle clip-path="url(#clip382)" cx="2062.09" cy="1366.87" r="14.4" fill="#009af9" fill-rule="evenodd" fill-opacity="1" stroke="#000000" stroke-opacity="1" stroke-width="3.2"/>
<circle clip-path="url(#clip382)" cx="2104.33" cy="1383.25" r="14.4" fill="#009af9" fill-rule="evenodd" fill-opacity="1" stroke="#000000" stroke-opacity="1" stroke-width="3.2"/>
<circle clip-path="url(#clip382)" cx="2146.58" cy="1340.41" r="14.4" fill="#009af9" fill-rule="evenodd" fill-opacity="1" stroke="#000000" stroke-opacity="1" stroke-width="3.2"/>
<circle clip-path="url(#clip382)" cx="2188.83" cy="1358.68" r="14.4" fill="#009af9" fill-rule="evenodd" fill-opacity="1" stroke="#000000" stroke-opacity="1" stroke-width="3.2"/>
<circle clip-path="url(#clip382)" cx="2231.08" cy="1382.36" r="14.4" fill="#009af9" fill-rule="evenodd" fill-opacity="1" stroke="#000000" stroke-opacity="1" stroke-width="3.2"/>
<circle clip-path="url(#clip382)" cx="2273.33" cy="1386.14" r="14.4" fill="#009af9" fill-rule="evenodd" fill-opacity="1" stroke="#000000" stroke-opacity="1" stroke-width="3.2"/>
<path clip-path="url(#clip380)" d="M1788.96 270.476 L2284.09 270.476 L2284.09 166.796 L1788.96 166.796  Z" fill="#ffffff" fill-rule="evenodd" fill-opacity="1"/>
<polyline clip-path="url(#clip380)" style="stroke:#000000; stroke-linecap:round; stroke-linejoin:round; stroke-width:4; stroke-opacity:1; fill:none" points="1788.96,270.476 2284.09,270.476 2284.09,166.796 1788.96,166.796 1788.96,270.476 "/>
<circle clip-path="url(#clip380)" cx="1880.52" cy="218.636" r="20.48" fill="#009af9" fill-rule="evenodd" fill-opacity="1" stroke="#000000" stroke-opacity="1" stroke-width="4.55111"/>
<path clip-path="url(#clip380)" d="M1990.85 222.976 Q1990.85 218.277 1988.91 215.615 Q1986.99 212.93 1983.61 212.93 Q1980.23 212.93 1978.28 215.615 Q1976.36 218.277 1976.36 222.976 Q1976.36 227.675 1978.28 230.36 Q1980.23 233.022 1983.61 233.022 Q1986.99 233.022 1988.91 230.36 Q1990.85 227.675 1990.85 222.976 M1976.36 213.925 Q1977.7 211.61 1979.74 210.499 Q1981.8 209.365 1984.65 209.365 Q1989.37 209.365 1992.31 213.115 Q1995.27 216.865 1995.27 222.976 Q1995.27 229.087 1992.31 232.837 Q1989.37 236.587 1984.65 236.587 Q1981.8 236.587 1979.74 235.476 Q1977.7 234.342 1976.36 232.027 L1976.36 235.916 L1972.08 235.916 L1972.08 199.897 L1976.36 199.897 L1976.36 213.925 Z" fill="#000000" fill-rule="nonzero" fill-opacity="1" /><path clip-path="url(#clip380)" d="M2002.33 209.99 L2006.59 209.99 L2006.59 235.916 L2002.33 235.916 L2002.33 209.99 M2002.33 199.897 L2006.59 199.897 L2006.59 205.291 L2002.33 205.291 L2002.33 199.897 Z" fill="#000000" fill-rule="nonzero" fill-opacity="1" /><path clip-path="url(#clip380)" d="M2037.06 220.268 L2037.06 235.916 L2032.8 235.916 L2032.8 220.407 Q2032.8 216.726 2031.36 214.897 Q2029.93 213.069 2027.06 213.069 Q2023.61 213.069 2021.62 215.268 Q2019.63 217.467 2019.63 221.263 L2019.63 235.916 L2015.34 235.916 L2015.34 209.99 L2019.63 209.99 L2019.63 214.018 Q2021.15 211.68 2023.21 210.522 Q2025.3 209.365 2028.01 209.365 Q2032.47 209.365 2034.76 212.143 Q2037.06 214.897 2037.06 220.268 Z" fill="#000000" fill-rule="nonzero" fill-opacity="1" /><path clip-path="url(#clip380)" d="M2065.25 243.786 L2065.25 247.096 L2040.62 247.096 L2040.62 243.786 L2065.25 243.786 Z" fill="#000000" fill-rule="nonzero" fill-opacity="1" /><path clip-path="url(#clip380)" d="M2066.78 209.99 L2071.04 209.99 L2076.36 230.221 L2081.66 209.99 L2086.69 209.99 L2092.01 230.221 L2097.31 209.99 L2101.57 209.99 L2094.79 235.916 L2089.76 235.916 L2084.19 214.666 L2078.58 235.916 L2073.56 235.916 L2066.78 209.99 Z" fill="#000000" fill-rule="nonzero" fill-opacity="1" /><path clip-path="url(#clip380)" d="M2108.03 209.99 L2112.29 209.99 L2112.29 235.916 L2108.03 235.916 L2108.03 209.99 M2108.03 199.897 L2112.29 199.897 L2112.29 205.291 L2108.03 205.291 L2108.03 199.897 Z" fill="#000000" fill-rule="nonzero" fill-opacity="1" /><path clip-path="url(#clip380)" d="M2138.26 213.925 L2138.26 199.897 L2142.52 199.897 L2142.52 235.916 L2138.26 235.916 L2138.26 232.027 Q2136.92 234.342 2134.86 235.476 Q2132.82 236.587 2129.95 236.587 Q2125.25 236.587 2122.29 232.837 Q2119.35 229.087 2119.35 222.976 Q2119.35 216.865 2122.29 213.115 Q2125.25 209.365 2129.95 209.365 Q2132.82 209.365 2134.86 210.499 Q2136.92 211.61 2138.26 213.925 M2123.75 222.976 Q2123.75 227.675 2125.67 230.36 Q2127.61 233.022 2130.99 233.022 Q2134.37 233.022 2136.31 230.36 Q2138.26 227.675 2138.26 222.976 Q2138.26 218.277 2136.31 215.615 Q2134.37 212.93 2130.99 212.93 Q2127.61 212.93 2125.67 215.615 Q2123.75 218.277 2123.75 222.976 Z" fill="#000000" fill-rule="nonzero" fill-opacity="1" /><path clip-path="url(#clip380)" d="M2155.5 202.629 L2155.5 209.99 L2164.28 209.99 L2164.28 213.3 L2155.5 213.3 L2155.5 227.374 Q2155.5 230.545 2156.36 231.448 Q2157.24 232.351 2159.9 232.351 L2164.28 232.351 L2164.28 235.916 L2159.9 235.916 Q2154.97 235.916 2153.1 234.087 Q2151.22 232.235 2151.22 227.374 L2151.22 213.3 L2148.1 213.3 L2148.1 209.99 L2151.22 209.99 L2151.22 202.629 L2155.5 202.629 Z" fill="#000000" fill-rule="nonzero" fill-opacity="1" /><path clip-path="url(#clip380)" d="M2191.43 220.268 L2191.43 235.916 L2187.17 235.916 L2187.17 220.407 Q2187.17 216.726 2185.74 214.897 Q2184.3 213.069 2181.43 213.069 Q2177.98 213.069 2175.99 215.268 Q2174 217.467 2174 221.263 L2174 235.916 L2169.72 235.916 L2169.72 199.897 L2174 199.897 L2174 214.018 Q2175.53 211.68 2177.59 210.522 Q2179.67 209.365 2182.38 209.365 Q2186.85 209.365 2189.14 212.143 Q2191.43 214.897 2191.43 220.268 Z" fill="#000000" fill-rule="nonzero" fill-opacity="1" /><path clip-path="url(#clip380)" d="M2200.48 214.388 L2230.16 214.388 L2230.16 218.277 L2200.48 218.277 L2200.48 214.388 M2200.48 223.832 L2230.16 223.832 L2230.16 227.768 L2200.48 227.768 L2200.48 223.832 Z" fill="#000000" fill-rule="nonzero" fill-opacity="1" /><path clip-path="url(#clip380)" d="M2240.3 201.356 L2258.65 201.356 L2258.65 205.291 L2244.58 205.291 L2244.58 213.763 Q2245.6 213.416 2246.62 213.254 Q2247.63 213.069 2248.65 213.069 Q2254.44 213.069 2257.82 216.24 Q2261.2 219.411 2261.2 224.828 Q2261.2 230.406 2257.73 233.508 Q2254.25 236.587 2247.93 236.587 Q2245.76 236.587 2243.49 236.217 Q2241.24 235.846 2238.84 235.106 L2238.84 230.406 Q2240.92 231.541 2243.14 232.096 Q2245.37 232.652 2247.84 232.652 Q2251.85 232.652 2254.18 230.545 Q2256.52 228.439 2256.52 224.828 Q2256.52 221.217 2254.18 219.11 Q2251.85 217.004 2247.84 217.004 Q2245.97 217.004 2244.09 217.42 Q2242.24 217.837 2240.3 218.717 L2240.3 201.356 Z" fill="#000000" fill-rule="nonzero" fill-opacity="1" /></svg>
